<?xml version="1.0" standalone="no"?><!DOCTYPE svg PUBLIC "-//W3C//DTD SVG 1.1//EN" "http://www.w3.org/Graphics/SVG/1.1/DTD/svg11.dtd" ><svg version="1.1" xmlns="http://www.w3.org/2000/svg"><defs><font horiz-adv-x="0" id="font"><font-face ascent="766" bbox="-54 -201 953 926" cap-height="630" descent="-234" font-family="Copyright Klim Type Foundry" font-stretch="normal" font-style="normal" font-weight="500" units-per-em="1000" x-height="443" /><missing-glyph horiz-adv-x="608" /><glyph d="M345 630 526 0H390L351 145H167L127 0H2L183 630ZM196 251H322L262 476H258Z" glyph-name="A" horiz-adv-x="528" unicode="A" /><glyph d="M349 150H195L132 0H2L275 630H707V519H481V375H649V266H481V111H710V0H349ZM240 256H349V502H345Z" glyph-name="AE" horiz-adv-x="733" unicode="&#198;" /><glyph d="M414 666 461 802H592L503 666ZM349 150H195L132 0H2L275 630H707V519H481V375H649V266H481V111H710V0H349ZM240 256H349V502H345Z" glyph-name="AEacute" horiz-adv-x="733" unicode="&#508;" /><glyph d="M345 630 526 0H390L351 145H167L127 0H2L183 630ZM196 251H322L262 476H258ZM218 666 265 802H396L307 666Z" glyph-name="Aacute" horiz-adv-x="528" unicode="&#193;" /><glyph d="M345 630 526 0H390L351 145H167L127 0H2L183 630ZM196 251H322L262 476H258ZM264 661Q204 661 172 698Q140 735 140 801H216Q216 741 264 741Q311 741 311 801H388Q388 735 356 698Q324 661 264 661Z" glyph-name="Abreve" horiz-adv-x="528" unicode="&#258;" /><glyph d="M345 630 526 0H390L351 145H167L127 0H2L183 630ZM196 251H322L262 476H258ZM327 801 405 663H321L264 729L207 663H123L201 801Z" glyph-name="Acircumflex" horiz-adv-x="528" unicode="&#194;" /><glyph d="M345 630 526 0H390L351 145H167L127 0H2L183 630ZM196 251H322L262 476H258ZM138 782H248V669H138ZM280 782H389V669H280Z" glyph-name="Adieresis" horiz-adv-x="528" unicode="&#196;" /><glyph d="M345 630 526 0H390L351 145H167L127 0H2L183 630ZM196 251H322L262 476H258ZM220 666 130 802H262L308 666Z" glyph-name="Agrave" horiz-adv-x="528" unicode="&#192;" /><glyph d="M345 630 526 0H390L351 145H167L127 0H2L183 630ZM196 251H322L262 476H258ZM149 759H379V671H149Z" glyph-name="Amacron" horiz-adv-x="528" unicode="&#256;" /><glyph d="M345 630 526 0H464Q438 -25 429.5 -39Q421 -53 421 -69Q421 -94 447 -94Q462 -94 480 -87V-153Q468 -161 454 -165.5Q440 -170 420 -170Q388 -170 364.5 -151.5Q341 -133 341 -95Q341 -67 354.5 -44Q368 -21 390 0L351 145H167L127 0H2L183 630ZM195 251H323L262 476H258Z" glyph-name="Aogonek" horiz-adv-x="528" unicode="&#260;" /><glyph d="M345 630 526 0H390L351 145H167L127 0H2L183 630ZM196 251H322L262 476H258ZM228 740Q228 724 237 714Q246 704 264 704Q282 704 291 714Q300 724 300 740Q300 756 291 766.5Q282 777 264 777Q246 777 237 766.5Q228 756 228 740ZM172 740Q172 778 197 803.5Q222 829 264 829Q306 829 331 803.5Q356 778 356 740Q356 702 331 677Q306 652 264 652Q222 652 197 677Q172 702 172 740Z" glyph-name="Aring" horiz-adv-x="528" unicode="&#197;" /><glyph d="M215 819 250 926H387L310 819ZM226 725Q226 694 260 694Q294 694 294 725Q294 756 260 756Q226 756 226 725ZM172 725Q172 758 195.5 781Q219 804 260 804Q301 804 325.5 781Q350 758 350 725Q350 691 325.5 668.5Q301 646 260 646Q219 646 195.5 668.5Q172 691 172 725ZM345 630 526 0H390L351 145H167L127 0H2L183 630ZM196 251H322L262 476H258Z" glyph-name="Aringacute" horiz-adv-x="528" unicode="&#506;" /><glyph d="M345 630 526 0H390L351 145H167L127 0H2L183 630ZM196 251H322L262 476H258ZM129 666Q129 726 149.5 762.5Q170 799 211 799Q228 799 240.5 792Q253 785 263.5 777Q274 769 284 762Q294 755 306 755Q318 755 326 764.5Q334 774 336 796H400Q400 736 379.5 700Q359 664 318 664Q300 664 288 671Q276 678 265.5 686Q255 694 245 701Q235 708 223 708Q209 708 202 698.5Q195 689 193 666Z" glyph-name="Atilde" horiz-adv-x="528" unicode="&#195;" /><glyph d="M465 174Q465 91 413 45.5Q361 0 249 0H42V630H248Q302 630 340 618Q378 606 402 583.5Q426 561 437 529.5Q448 498 448 460Q448 403 418.5 368.5Q389 334 338 325Q394 315 429.5 278Q465 241 465 174ZM170 269V108H243Q296 108 315.5 129Q335 150 335 188Q335 225 315 247Q295 269 242 269ZM170 371H231Q257 371 274 376.5Q291 382 300.5 392Q310 402 314 415.5Q318 429 318 445Q318 462 314 476Q310 490 300.5 500.5Q291 511 274 517Q257 523 231 523H170Z" glyph-name="B" horiz-adv-x="482" unicode="B" /><glyph d="M24 336Q24 406 38.5 462.5Q53 519 82.5 558.5Q112 598 156.5 619.5Q201 641 261 641Q319 641 361.5 621.5Q404 602 431.5 567Q459 532 472 483Q485 434 485 375V359H358V374Q358 451 335.5 490Q313 529 263 529Q162 529 162 363V267Q162 101 263 101Q313 101 335.5 140Q358 179 358 256V271H485V255Q485 196 472 147Q459 98 431.5 63Q404 28 361.5 8.5Q319 -11 261 -11Q201 -11 156.5 10.5Q112 32 82.5 71.5Q53 111 38.5 167.5Q24 224 24 294Z" glyph-name="C" horiz-adv-x="509" unicode="C" /><glyph d="M24 336Q24 406 38.5 462.5Q53 519 82.5 558.5Q112 598 156.5 619.5Q201 641 261 641Q319 641 361.5 621.5Q404 602 431.5 567Q459 532 472 483Q485 434 485 375V359H358V374Q358 451 335.5 490Q313 529 263 529Q162 529 162 363V267Q162 101 263 101Q313 101 335.5 140Q358 179 358 256V271H485V255Q485 196 472 147Q459 98 431.5 63Q404 28 361.5 8.5Q319 -11 261 -11Q201 -11 156.5 10.5Q112 32 82.5 71.5Q53 111 38.5 167.5Q24 224 24 294ZM219 666 266 802H397L308 666Z" glyph-name="Cacute" horiz-adv-x="509" unicode="&#262;" /><glyph d="M24 336Q24 406 38.5 462.5Q53 519 82.5 558.5Q112 598 156.5 619.5Q201 641 261 641Q319 641 361.5 621.5Q404 602 431.5 567Q459 532 472 483Q485 434 485 375V359H358V374Q358 451 335.5 490Q313 529 263 529Q162 529 162 363V267Q162 101 263 101Q313 101 335.5 140Q358 179 358 256V271H485V255Q485 196 472 147Q459 98 431.5 63Q404 28 361.5 8.5Q319 -11 261 -11Q201 -11 156.5 10.5Q112 32 82.5 71.5Q53 111 38.5 167.5Q24 224 24 294ZM203 666 125 802H209L266 738L323 802H407L329 666Z" glyph-name="Ccaron" horiz-adv-x="509" unicode="&#268;" /><glyph d="M358 -99Q358 -139 329.5 -157Q301 -175 263 -175Q234 -175 208.5 -166.5Q183 -158 167 -144L184 -94Q198 -105 216.5 -113Q235 -121 254 -121Q284 -121 284 -99Q284 -83 263 -77.5Q242 -72 208 -72L237 -10Q183 -6 143 17Q103 40 76.5 79.5Q50 119 37 173Q24 227 24 294V336Q24 406 38.5 462.5Q53 519 82.5 558.5Q112 598 156.5 619.5Q201 641 261 641Q319 641 361.5 621.5Q404 602 431.5 567Q459 532 472 483Q485 434 485 375V359H358V374Q358 451 335.5 490Q313 529 263 529Q162 529 162 363V267Q162 101 263 101Q313 101 335.5 140Q358 179 358 256V271H485V255Q485 199 473 152Q461 105 436.5 70Q412 35 373.5 14.5Q335 -6 283 -10L275 -28Q308 -30 333 -46Q358 -62 358 -99Z" glyph-name="Ccedilla" horiz-adv-x="509" unicode="&#199;" /><glyph d="M24 336Q24 406 38.5 462.5Q53 519 82.5 558.5Q112 598 156.5 619.5Q201 641 261 641Q319 641 361.5 621.5Q404 602 431.5 567Q459 532 472 483Q485 434 485 375V359H358V374Q358 451 335.5 490Q313 529 263 529Q162 529 162 363V267Q162 101 263 101Q313 101 335.5 140Q358 179 358 256V271H485V255Q485 196 472 147Q459 98 431.5 63Q404 28 361.5 8.5Q319 -11 261 -11Q201 -11 156.5 10.5Q112 32 82.5 71.5Q53 111 38.5 167.5Q24 224 24 294ZM329 801 407 663H323L266 729L209 663H125L203 801Z" glyph-name="Ccircumflex" horiz-adv-x="509" unicode="&#264;" /><glyph d="M201 796H330V673H201ZM24 336Q24 406 38.5 462.5Q53 519 82.5 558.5Q112 598 156.5 619.5Q201 641 261 641Q319 641 361.5 621.5Q404 602 431.5 567Q459 532 472 483Q485 434 485 375V359H358V374Q358 451 335.5 490Q313 529 263 529Q162 529 162 363V267Q162 101 263 101Q313 101 335.5 140Q358 179 358 256V271H485V255Q485 196 472 147Q459 98 431.5 63Q404 28 361.5 8.5Q319 -11 261 -11Q201 -11 156.5 10.5Q112 32 82.5 71.5Q53 111 38.5 167.5Q24 224 24 294Z" glyph-name="Cdotaccent" horiz-adv-x="509" unicode="&#266;" /><glyph d="M233 108Q265 108 289 116Q313 124 329.5 142.5Q346 161 354 192Q362 223 362 269V361Q362 407 354 437.5Q346 468 329.5 487Q313 506 289 514Q265 522 233 522H177V108ZM42 630H245Q377 630 438 554.5Q499 479 499 333V297Q499 151 438 75.5Q377 0 245 0H42Z" glyph-name="D" horiz-adv-x="523" unicode="D" /><glyph d="M182 666 104 802H188L245 738L302 802H386L308 666ZM233 108Q265 108 289 116Q313 124 329.5 142.5Q346 161 354 192Q362 223 362 269V361Q362 407 354 437.5Q346 468 329.5 487Q313 506 289 514Q265 522 233 522H177V108ZM42 630H245Q377 630 438 554.5Q499 479 499 333V297Q499 151 438 75.5Q377 0 245 0H42Z" glyph-name="Dcaron" horiz-adv-x="523" unicode="&#270;" /><glyph d="M11 372H51V630H253Q385 630 446.5 554Q508 478 508 333V297Q508 152 446.5 76Q385 0 253 0H51V270H11ZM242 108Q274 108 298 116Q322 124 338.5 142.5Q355 161 363 192Q371 223 371 269V361Q371 407 363 437.5Q355 468 338.5 487Q322 506 298 514Q274 522 242 522H186V372H253V270H186V108Z" glyph-name="Dcroat" horiz-adv-x="531" unicode="&#272;" /><glyph d="M420 0H42V630H418V519H174V375H360V266H174V111H420Z" glyph-name="E" horiz-adv-x="444" unicode="E" /><glyph d="M186 666 233 802H364L275 666ZM420 0H42V630H418V519H174V375H360V266H174V111H420Z" glyph-name="Eacute" horiz-adv-x="444" unicode="&#201;" /><glyph d="M232 661Q172 661 140 698Q108 735 108 801H184Q184 741 232 741Q279 741 279 801H356Q356 735 324 698Q292 661 232 661ZM420 0H42V630H418V519H174V375H360V266H174V111H420Z" glyph-name="Ebreve" horiz-adv-x="444" unicode="&#276;" /><glyph d="M169 666 91 802H175L232 738L289 802H373L295 666ZM420 0H42V630H418V519H174V375H360V266H174V111H420Z" glyph-name="Ecaron" horiz-adv-x="444" unicode="&#282;" /><glyph d="M420 0H42V630H418V519H174V375H360V266H174V111H420ZM295 801 373 663H289L232 729L175 663H91L169 801Z" glyph-name="Ecircumflex" horiz-adv-x="444" unicode="&#202;" /><glyph d="M106 782H216V669H106ZM248 782H357V669H248ZM420 0H42V630H418V519H174V375H360V266H174V111H420Z" glyph-name="Edieresis" horiz-adv-x="444" unicode="&#203;" /><glyph d="M168 796H297V673H168ZM420 0H42V630H418V519H174V375H360V266H174V111H420Z" glyph-name="Edotaccent" horiz-adv-x="444" unicode="&#278;" /><glyph d="M188 666 98 802H230L276 666ZM420 0H42V630H418V519H174V375H360V266H174V111H420Z" glyph-name="Egrave" horiz-adv-x="444" unicode="&#200;" /><glyph d="M117 759H347V671H117ZM420 0H42V630H418V519H174V375H360V266H174V111H420Z" glyph-name="Emacron" horiz-adv-x="444" unicode="&#274;" /><glyph d="M170 397H166V0H42V630H169L364 257H368V630H491V21Q491 -72 445.5 -119Q400 -166 324 -166Q279 -166 242.5 -147.5Q206 -129 186 -101L243 -20Q255 -37 272.5 -47.5Q290 -58 312 -58Q343 -58 357 -39.5Q371 -21 371 29Z" glyph-name="Eng" horiz-adv-x="533" unicode="&#330;" /><glyph d="M420 0H383Q358 -25 349 -39Q340 -53 340 -69Q340 -94 366 -94Q381 -94 399 -87V-153Q388 -161 373.5 -165.5Q359 -170 339 -170Q307 -170 283.5 -151.5Q260 -133 260 -95Q260 -67 273.5 -43.5Q287 -20 309 0H42V630H418V519H174V375H360V266H174V111H420Z" glyph-name="Eogonek" horiz-adv-x="444" unicode="&#280;" /><glyph d="M11 372H51V630H253Q385 630 446.5 554Q508 478 508 333V297Q508 152 446.5 76Q385 0 253 0H51V270H11ZM242 108Q274 108 298 116Q322 124 338.5 142.5Q355 161 363 192Q371 223 371 269V361Q371 407 363 437.5Q355 468 338.5 487Q322 506 298 514Q274 522 242 522H186V372H253V270H186V108Z" glyph-name="Eth" horiz-adv-x="531" unicode="&#208;" /><glyph d="M20 287H70V294V336V339H20V410H74Q87 517 144 579Q201 641 303 641Q362 641 404.5 621.5Q447 602 474.5 567Q502 532 515 483Q528 434 528 375V359H400V374Q400 451 377.5 490Q355 529 305 529Q218 529 206 410H329L319 339H204V287H312L302 216H206Q219 101 305 101Q355 101 377.5 140Q400 179 400 256V271H528V255Q528 196 515 147Q502 98 474.5 63Q447 28 404.5 8.5Q362 -11 303 -11Q201 -11 145 49Q89 109 75 216H20Z" glyph-name="Euro" horiz-adv-x="551" unicode="&#8364;" /><glyph d="M14 287H57V294V336V339H14V410H61Q73 518 125 579.5Q177 641 271 641Q325 641 363.5 621.5Q402 602 427 567Q452 532 464 483Q476 434 476 375V359H355V374Q355 451 337.5 490Q320 529 272 529Q231 529 210.5 499.5Q190 470 185 410H289L279 339H184V287H272L262 216H186Q191 157 211.5 129Q232 101 272 101Q320 101 337.5 140Q355 179 355 256V271H476V255Q476 196 464 147Q452 98 427 63Q402 28 363.5 8.5Q325 -11 271 -11Q177 -11 126 49Q75 109 61 216H14Z" glyph-name="Euro.lt" horiz-adv-x="500" /><glyph d="M42 0V630H409V519H176V360H360V251H176V0Z" glyph-name="F" horiz-adv-x="427" unicode="F" /><glyph d="M247 -11Q193 -11 151.5 10Q110 31 81.5 70Q53 109 38.5 165Q24 221 24 291V336Q24 406 39 462.5Q54 519 84 558.5Q114 598 158.5 619.5Q203 641 263 641Q321 641 364 622.5Q407 604 434.5 570Q462 536 475.5 488.5Q489 441 489 383V376H361V383Q361 455 338 492Q315 529 264 529Q162 529 162 363V267Q162 100 272 100Q316 100 339.5 129Q363 158 363 212V220H282V318H491V0H392L381 64Q367 28 332.5 8.5Q298 -11 247 -11Z" glyph-name="G" horiz-adv-x="527" unicode="G" /><glyph d="M267 661Q207 661 175 698Q143 735 143 801H219Q219 741 267 741Q314 741 314 801H391Q391 735 359 698Q327 661 267 661ZM247 -11Q193 -11 151.5 10Q110 31 81.5 70Q53 109 38.5 165Q24 221 24 291V336Q24 406 39 462.5Q54 519 84 558.5Q114 598 158.5 619.5Q203 641 263 641Q321 641 364 622.5Q407 604 434.5 570Q462 536 475.5 488.5Q489 441 489 383V376H361V383Q361 455 338 492Q315 529 264 529Q162 529 162 363V267Q162 100 272 100Q316 100 339.5 129Q363 158 363 212V220H282V318H491V0H392L381 64Q367 28 332.5 8.5Q298 -11 247 -11Z" glyph-name="Gbreve" horiz-adv-x="527" unicode="&#286;" /><glyph d="M247 -11Q193 -11 151.5 10Q110 31 81.5 70Q53 109 38.5 165Q24 221 24 291V336Q24 406 39 462.5Q54 519 84 558.5Q114 598 158.5 619.5Q203 641 263 641Q321 641 364 622.5Q407 604 434.5 570Q462 536 475.5 488.5Q489 441 489 383V376H361V383Q361 455 338 492Q315 529 264 529Q162 529 162 363V267Q162 100 272 100Q316 100 339.5 129Q363 158 363 212V220H282V318H491V0H392L381 64Q367 28 332.5 8.5Q298 -11 247 -11ZM330 801 408 663H324L267 729L210 663H126L204 801Z" glyph-name="Gcircumflex" horiz-adv-x="527" unicode="&#284;" /><glyph d="M208 -35H326V-102Q326 -201 207 -201V-156Q232 -156 243 -149Q254 -142 255 -122H208ZM247 -11Q193 -11 151.5 10Q110 31 81.5 70Q53 109 38.5 165Q24 221 24 291V336Q24 406 39 462.5Q54 519 84 558.5Q114 598 158.5 619.5Q203 641 263 641Q321 641 364 622.5Q407 604 434.5 570Q462 536 475.5 488.5Q489 441 489 383V376H361V383Q361 455 338 492Q315 529 264 529Q162 529 162 363V267Q162 100 272 100Q316 100 339.5 129Q363 158 363 212V220H282V318H491V0H392L381 64Q367 28 332.5 8.5Q298 -11 247 -11Z" glyph-name="Gcommaaccent" horiz-adv-x="527" unicode="&#290;" /><glyph d="M203 796H332V673H203ZM247 -11Q193 -11 151.5 10Q110 31 81.5 70Q53 109 38.5 165Q24 221 24 291V336Q24 406 39 462.5Q54 519 84 558.5Q114 598 158.5 619.5Q203 641 263 641Q321 641 364 622.5Q407 604 434.5 570Q462 536 475.5 488.5Q489 441 489 383V376H361V383Q361 455 338 492Q315 529 264 529Q162 529 162 363V267Q162 100 272 100Q316 100 339.5 129Q363 158 363 212V220H282V318H491V0H392L381 64Q367 28 332.5 8.5Q298 -11 247 -11Z" glyph-name="Gdotaccent" horiz-adv-x="527" unicode="&#288;" /><glyph d="M42 0V630H177V375H378V630H513V0H378V266H177V0Z" glyph-name="H" horiz-adv-x="555" unicode="H" /><glyph d="M11 527H51V630H186V527H387V630H522V527H562V426H522V0H387V229H186V0H51V426H11ZM387 330V426H186V330Z" glyph-name="Hbar" horiz-adv-x="573" unicode="&#294;" /><glyph d="M42 0V630H177V375H378V630H513V0H378V266H177V0ZM341 801 419 663H335L278 729L221 663H137L215 801Z" glyph-name="Hcircumflex" horiz-adv-x="555" unicode="&#292;" /><glyph d="M177 630V0H42V630Z" glyph-name="I" horiz-adv-x="219" unicode="I" /><glyph d="M177 630V0H42V630ZM621 630V215Q621 165 609.5 123.5Q598 82 573 52Q548 22 508.5 5.5Q469 -11 413 -11Q360 -11 321 5Q282 21 257 49.5Q232 78 220 117Q208 156 208 202V254H337V210Q337 155 354 127.5Q371 100 413 100Q453 100 469 127.5Q485 155 485 212V630Z" glyph-name="IJ" horiz-adv-x="658" unicode="&#306;" /><glyph d="M177 630V0H42V630ZM64 666 111 802H242L153 666Z" glyph-name="Iacute" horiz-adv-x="219" unicode="&#205;" /><glyph d="M177 630V0H42V630ZM111 661Q51 661 19 698Q-13 735 -13 801H63Q63 741 111 741Q158 741 158 801H235Q235 735 203 698Q171 661 111 661Z" glyph-name="Ibreve" horiz-adv-x="219" unicode="&#300;" /><glyph d="M177 630V0H42V630ZM174 801 252 663H168L111 729L54 663H-30L48 801Z" glyph-name="Icircumflex" horiz-adv-x="219" unicode="&#206;" /><glyph d="M177 630V0H42V630ZM-15 782H95V669H-15ZM127 782H236V669H127Z" glyph-name="Idieresis" horiz-adv-x="219" unicode="&#207;" /><glyph d="M177 630V0H42V630ZM47 796H176V673H47Z" glyph-name="Idotaccent" horiz-adv-x="219" unicode="&#304;" /><glyph d="M177 630V0H42V630ZM67 666 -23 802H109L155 666Z" glyph-name="Igrave" horiz-adv-x="219" unicode="&#204;" /><glyph d="M177 630V0H42V630ZM-5 759H225V671H-5Z" glyph-name="Imacron" horiz-adv-x="219" unicode="&#298;" /><glyph d="M177 630V0Q145 -21 132.5 -37Q120 -53 120 -69Q120 -94 145 -94Q159 -94 177 -87V-153Q166 -161 152 -165.5Q138 -170 118 -170Q86 -170 63 -151.5Q40 -133 40 -95Q40 -67 54 -43.5Q68 -20 92 0H42V630Z" glyph-name="Iogonek" horiz-adv-x="219" unicode="&#302;" /><glyph d="M177 630V0H42V630ZM-25 666Q-25 726 -4.5 762.5Q16 799 57 799Q74 799 86.5 792Q99 785 109.5 777Q120 769 130 762Q140 755 152 755Q164 755 172 764.5Q180 774 182 796H246Q246 736 225.5 700Q205 664 164 664Q146 664 134 671Q122 678 111.5 686Q101 694 91 701Q81 708 69 708Q55 708 48 698.5Q41 689 39 666Z" glyph-name="Itilde" horiz-adv-x="219" unicode="&#296;" /><glyph d="M424 630V215Q424 165 412.5 123.5Q401 82 376 52Q351 22 311.5 5.5Q272 -11 216 -11Q163 -11 124 5Q85 21 60 49.5Q35 78 23 117Q11 156 11 202V254H140V210Q140 155 157 127.5Q174 100 216 100Q256 100 272 127.5Q288 155 288 212V630Z" glyph-name="J" horiz-adv-x="460" unicode="J" /><glyph d="M424 630V215Q424 165 412.5 123.5Q401 82 376 52Q351 22 311.5 5.5Q272 -11 216 -11Q163 -11 124 5Q85 21 60 49.5Q35 78 23 117Q11 156 11 202V254H140V210Q140 155 157 127.5Q174 100 216 100Q256 100 272 127.5Q288 155 288 212V630ZM420 801 498 663H414L357 729L300 663H216L294 801Z" glyph-name="Jcircumflex" horiz-adv-x="460" unicode="&#308;" /><glyph d="M367 0 224 258 177 183V0H42V630H177V336L363 630H506L326 353L518 0Z" glyph-name="K" horiz-adv-x="518" unicode="K" /><glyph d="M204 -35H322V-102Q322 -201 203 -201V-156Q228 -156 239 -149Q250 -142 251 -122H204ZM367 0 224 258 177 183V0H42V630H177V336L363 630H506L326 353L518 0Z" glyph-name="Kcommaaccent" horiz-adv-x="518" unicode="&#310;" /><glyph d="M177 630V111H417V0H42V630Z" glyph-name="L" horiz-adv-x="435" unicode="L" /><glyph d="M68 666 115 802H246L157 666ZM177 630V111H417V0H42V630Z" glyph-name="Lacute" horiz-adv-x="435" unicode="&#313;" /><glyph d="M238 489 252 630H380L316 489ZM177 630V111H417V0H42V630Z" glyph-name="Lcaron" horiz-adv-x="435" unicode="&#317;" /><glyph d="M171 -35H289V-102Q289 -201 170 -201V-156Q195 -156 206 -149Q217 -142 218 -122H171ZM177 630V111H417V0H42V630Z" glyph-name="Lcommaaccent" horiz-adv-x="435" unicode="&#315;" /><glyph d="M177 630V111H417V0H42V630ZM259.5109 367H381.4168V244H259.5109Z" glyph-name="Ldot" horiz-adv-x="435" unicode="&#319;" /><glyph d="M11 315 51 332V630H186V385L294 431V324L186 277V116L426 111V0H51V225L11 208Z" glyph-name="Lslash" horiz-adv-x="445" unicode="&#321;" /><glyph d="M277 0 165 446H161V0H42V630H230L325 245H329L423 630H602V0H476V446H472L359 0Z" glyph-name="M" horiz-adv-x="644" unicode="M" /><glyph d="M364 257H368V630H491V0H386L170 397H166V0H42V630H169Z" glyph-name="N" horiz-adv-x="533" unicode="N" /><glyph glyph-name="NULL" horiz-adv-x="0" /><glyph d="M221 666 268 802H399L310 666ZM364 257H368V630H491V0H386L170 397H166V0H42V630H169Z" glyph-name="Nacute" horiz-adv-x="533" unicode="&#323;" /><glyph d="M205 666 127 802H211L268 738L325 802H409L331 666ZM364 257H368V630H491V0H386L170 397H166V0H42V630H169Z" glyph-name="Ncaron" horiz-adv-x="533" unicode="&#327;" /><glyph d="M209 -35H327V-102Q327 -201 208 -201V-156Q233 -156 244 -149Q255 -142 256 -122H209ZM364 257H368V630H491V0H386L170 397H166V0H42V630H169Z" glyph-name="Ncommaaccent" horiz-adv-x="533" unicode="&#325;" /><glyph d="M132 666Q132 726 152.5 762.5Q173 799 214 799Q231 799 243.5 792Q256 785 266.5 777Q277 769 287 762Q297 755 309 755Q321 755 329 764.5Q337 774 339 796H403Q403 736 382.5 700Q362 664 321 664Q303 664 291 671Q279 678 268.5 686Q258 694 248 701Q238 708 226 708Q212 708 205 698.5Q198 689 196 666ZM364 257H368V630H491V0H386L170 397H166V0H42V630H169Z" glyph-name="Ntilde" horiz-adv-x="533" unicode="&#209;" /><glyph d="M504 295Q504 225 489 168.5Q474 112 444 72Q414 32 369 10.5Q324 -11 264 -11Q204 -11 159 10.5Q114 32 84 72Q54 112 39 168.5Q24 225 24 295V335Q24 405 39 461.5Q54 518 84 558Q114 598 159 619.5Q204 641 264 641Q324 641 369 619.5Q414 598 444 558Q474 518 489 461.5Q504 405 504 335ZM366 362Q366 529 264 529Q162 529 162 362V268Q162 101 264 101Q366 101 366 268Z" glyph-name="O" horiz-adv-x="528" unicode="O" /><glyph d="M283 0Q150 0 87 75.5Q24 151 24 297V333Q24 479 87 554.5Q150 630 283 630H691V519H465V375H633V266H465V111H694V0ZM331 522H295Q263 522 238 514Q213 506 196 487Q179 468 170 437.5Q161 407 161 361V269Q161 223 170 192Q179 161 196 142.5Q213 124 238 116Q263 108 295 108H331Z" glyph-name="OE" horiz-adv-x="717" unicode="&#338;" /><glyph d="M218 666 265 802H396L307 666ZM504 295Q504 225 489 168.5Q474 112 444 72Q414 32 369 10.5Q324 -11 264 -11Q204 -11 159 10.5Q114 32 84 72Q54 112 39 168.5Q24 225 24 295V335Q24 405 39 461.5Q54 518 84 558Q114 598 159 619.5Q204 641 264 641Q324 641 369 619.5Q414 598 444 558Q474 518 489 461.5Q504 405 504 335ZM366 362Q366 529 264 529Q162 529 162 362V268Q162 101 264 101Q366 101 366 268Z" glyph-name="Oacute" horiz-adv-x="528" unicode="&#211;" /><glyph d="M265 661Q205 661 173 698Q141 735 141 801H217Q217 741 265 741Q312 741 312 801H389Q389 735 357 698Q325 661 265 661ZM504 295Q504 225 489 168.5Q474 112 444 72Q414 32 369 10.5Q324 -11 264 -11Q204 -11 159 10.5Q114 32 84 72Q54 112 39 168.5Q24 225 24 295V335Q24 405 39 461.5Q54 518 84 558Q114 598 159 619.5Q204 641 264 641Q324 641 369 619.5Q414 598 444 558Q474 518 489 461.5Q504 405 504 335ZM366 362Q366 529 264 529Q162 529 162 362V268Q162 101 264 101Q366 101 366 268Z" glyph-name="Obreve" horiz-adv-x="528" unicode="&#334;" /><glyph d="M504 295Q504 225 489 168.5Q474 112 444 72Q414 32 369 10.5Q324 -11 264 -11Q204 -11 159 10.5Q114 32 84 72Q54 112 39 168.5Q24 225 24 295V335Q24 405 39 461.5Q54 518 84 558Q114 598 159 619.5Q204 641 264 641Q324 641 369 619.5Q414 598 444 558Q474 518 489 461.5Q504 405 504 335ZM366 362Q366 529 264 529Q162 529 162 362V268Q162 101 264 101Q366 101 366 268ZM328 801 406 663H322L265 729L208 663H124L202 801Z" glyph-name="Ocircumflex" horiz-adv-x="528" unicode="&#212;" /><glyph d="M139 782H249V669H139ZM281 782H390V669H281ZM504 295Q504 225 489 168.5Q474 112 444 72Q414 32 369 10.5Q324 -11 264 -11Q204 -11 159 10.5Q114 32 84 72Q54 112 39 168.5Q24 225 24 295V335Q24 405 39 461.5Q54 518 84 558Q114 598 159 619.5Q204 641 264 641Q324 641 369 619.5Q414 598 444 558Q474 518 489 461.5Q504 405 504 335ZM366 362Q366 529 264 529Q162 529 162 362V268Q162 101 264 101Q366 101 366 268Z" glyph-name="Odieresis" horiz-adv-x="528" unicode="&#214;" /><glyph d="M220 666 130 802H262L308 666ZM504 295Q504 225 489 168.5Q474 112 444 72Q414 32 369 10.5Q324 -11 264 -11Q204 -11 159 10.5Q114 32 84 72Q54 112 39 168.5Q24 225 24 295V335Q24 405 39 461.5Q54 518 84 558Q114 598 159 619.5Q204 641 264 641Q324 641 369 619.5Q414 598 444 558Q474 518 489 461.5Q504 405 504 335ZM366 362Q366 529 264 529Q162 529 162 362V268Q162 101 264 101Q366 101 366 268Z" glyph-name="Ograve" horiz-adv-x="528" unicode="&#210;" /><glyph d="M504 295Q504 225 489 168.5Q474 112 444 72Q414 32 369 10.5Q324 -11 264 -11Q204 -11 159 10.5Q114 32 84 72Q54 112 39 168.5Q24 225 24 295V335Q24 405 39 461.5Q54 518 84 558Q114 598 159 619.5Q204 641 264 641Q324 641 369 619.5Q414 598 444 558Q474 518 489 461.5Q504 405 504 335ZM366 362Q366 529 264 529Q162 529 162 362V268Q162 101 264 101Q366 101 366 268ZM151 666 191 802H310L229 666ZM288 666 328 802H449L367 666Z" glyph-name="Ohungarumlaut" horiz-adv-x="528" unicode="&#336;" /><glyph d="M149 759H379V671H149ZM504 295Q504 225 489 168.5Q474 112 444 72Q414 32 369 10.5Q324 -11 264 -11Q204 -11 159 10.5Q114 32 84 72Q54 112 39 168.5Q24 225 24 295V335Q24 405 39 461.5Q54 518 84 558Q114 598 159 619.5Q204 641 264 641Q324 641 369 619.5Q414 598 444 558Q474 518 489 461.5Q504 405 504 335ZM366 362Q366 529 264 529Q162 529 162 362V268Q162 101 264 101Q366 101 366 268Z" glyph-name="Omacron" horiz-adv-x="528" unicode="&#332;" /><glyph d="M78 79Q51 118 37.5 172.5Q24 227 24 295V335Q24 405 39 461.5Q54 518 84 558Q114 598 159 619.5Q204 641 264 641Q303 641 336 631.5Q369 622 395 605L423 652L486 609L450 549Q477 510 490.5 455.5Q504 401 504 335V295Q504 225 489 168.5Q474 112 444 72Q414 32 369 10.5Q324 -11 264 -11Q187 -11 134 24L105 -25L42 18ZM158 254Q158 243 158.5 233.5Q159 224 160 215L332 501Q306 529 264 529Q213 529 185.5 488Q158 447 158 362ZM370 376Q370 386 369.5 395Q369 404 368 412L196 127Q222 101 264 101Q315 101 342.5 142Q370 183 370 268Z" glyph-name="Oslash" horiz-adv-x="528" unicode="&#216;" /><glyph d="M78 79Q51 118 37.5 172.5Q24 227 24 295V335Q24 405 39 461.5Q54 518 84 558Q114 598 159 619.5Q204 641 264 641Q303 641 336 631.5Q369 622 395 605L423 652L486 609L450 549Q477 510 490.5 455.5Q504 401 504 335V295Q504 225 489 168.5Q474 112 444 72Q414 32 369 10.5Q324 -11 264 -11Q187 -11 134 24L105 -25L42 18ZM158 254Q158 243 158.5 233.5Q159 224 160 215L332 501Q306 529 264 529Q213 529 185.5 488Q158 447 158 362ZM370 376Q370 386 369.5 395Q369 404 368 412L196 127Q222 101 264 101Q315 101 342.5 142Q370 183 370 268ZM218 666 265 802H396L307 666Z" glyph-name="Oslashacute" horiz-adv-x="528" unicode="&#510;" /><glyph d="M129 666Q129 726 149.5 762.5Q170 799 211 799Q228 799 240.5 792Q253 785 263.5 777Q274 769 284 762Q294 755 306 755Q318 755 326 764.5Q334 774 336 796H400Q400 736 379.5 700Q359 664 318 664Q300 664 288 671Q276 678 265.5 686Q255 694 245 701Q235 708 223 708Q209 708 202 698.5Q195 689 193 666ZM504 295Q504 225 489 168.5Q474 112 444 72Q414 32 369 10.5Q324 -11 264 -11Q204 -11 159 10.5Q114 32 84 72Q54 112 39 168.5Q24 225 24 295V335Q24 405 39 461.5Q54 518 84 558Q114 598 159 619.5Q204 641 264 641Q324 641 369 619.5Q414 598 444 558Q474 518 489 461.5Q504 405 504 335ZM366 362Q366 529 264 529Q162 529 162 362V268Q162 101 264 101Q366 101 366 268Z" glyph-name="Otilde" horiz-adv-x="528" unicode="&#213;" /><glyph d="M236 322Q286 322 311 344Q336 366 336 422Q336 477 311 499.5Q286 522 236 522H176V322ZM176 0H42V630H247Q359 630 412.5 576Q466 522 466 423Q466 322 412.5 268.5Q359 215 247 215H176Z" glyph-name="P" horiz-adv-x="478" unicode="P" /><glyph d="M504 295Q504 181 465.5 104.5Q427 28 348 2L404 -77H269L222 -8Q172 -1 135 23.5Q98 48 73 87Q48 126 36 178.5Q24 231 24 295V335Q24 405 39 461.5Q54 518 84 558Q114 598 159 619.5Q204 641 264 641Q324 641 369 619.5Q414 598 444 558Q474 518 489 461.5Q504 405 504 335ZM366 362Q366 529 264 529Q162 529 162 362V268Q162 101 264 101Q366 101 366 268Z" glyph-name="Q" horiz-adv-x="528" unicode="Q" /><glyph d="M352 0Q342 20 336.5 50.5Q331 81 328 140Q325 188 308.5 210.5Q292 233 247 233H174V0H42V630H257Q372 630 427 578Q482 526 482 437Q482 404 473 377.5Q464 351 449 331.5Q434 312 414 299Q394 286 372 281Q417 267 435.5 235.5Q454 204 459 146Q461 114 463.5 91.5Q466 69 469 52.5Q472 36 476.5 23.5Q481 11 488 0ZM252 338Q303 338 326.5 360Q350 382 350 429Q350 473 326.5 497.5Q303 522 252 522H174V338Z" glyph-name="R" horiz-adv-x="503" unicode="R" /><glyph d="M352 0Q342 20 336.5 50.5Q331 81 328 140Q325 188 308.5 210.5Q292 233 247 233H174V0H42V630H257Q372 630 427 578Q482 526 482 437Q482 404 473 377.5Q464 351 449 331.5Q434 312 414 299Q394 286 372 281Q417 267 435.5 235.5Q454 204 459 146Q461 114 463.5 91.5Q466 69 469 52.5Q472 36 476.5 23.5Q481 11 488 0ZM252 338Q303 338 326.5 360Q350 382 350 429Q350 473 326.5 497.5Q303 522 252 522H174V338ZM198 666 245 802H376L287 666Z" glyph-name="Racute" horiz-adv-x="503" unicode="&#340;" /><glyph d="M182 666 104 802H188L245 738L302 802H386L308 666ZM352 0Q342 20 336.5 50.5Q331 81 328 140Q325 188 308.5 210.5Q292 233 247 233H174V0H42V630H257Q372 630 427 578Q482 526 482 437Q482 404 473 377.5Q464 351 449 331.5Q434 312 414 299Q394 286 372 281Q417 267 435.5 235.5Q454 204 459 146Q461 114 463.5 91.5Q466 69 469 52.5Q472 36 476.5 23.5Q481 11 488 0ZM252 338Q303 338 326.5 360Q350 382 350 429Q350 473 326.5 497.5Q303 522 252 522H174V338Z" glyph-name="Rcaron" horiz-adv-x="503" unicode="&#344;" /><glyph d="M197 -35H315V-102Q315 -201 196 -201V-156Q221 -156 232 -149Q243 -142 244 -122H197ZM352 0Q342 20 336.5 50.5Q331 81 328 140Q325 188 308.5 210.5Q292 233 247 233H174V0H42V630H257Q372 630 427 578Q482 526 482 437Q482 404 473 377.5Q464 351 449 331.5Q434 312 414 299Q394 286 372 281Q417 267 435.5 235.5Q454 204 459 146Q461 114 463.5 91.5Q466 69 469 52.5Q472 36 476.5 23.5Q481 11 488 0ZM252 338Q303 338 326.5 360Q350 382 350 429Q350 473 326.5 497.5Q303 522 252 522H174V338Z" glyph-name="Rcommaaccent" horiz-adv-x="503" unicode="&#342;" /><glyph d="M20 451Q20 493 34.5 528Q49 563 75.5 588Q102 613 139.5 627Q177 641 224 641Q278 641 318.5 625.5Q359 610 386.5 582.5Q414 555 427.5 517Q441 479 441 434V415H321V429Q321 478 297.5 508Q274 538 224 538Q188 538 167.5 518Q147 498 147 465Q147 438 162 421.5Q177 405 206 394L296 362Q369 336 409.5 294.5Q450 253 450 179Q450 134 434.5 98.5Q419 63 391 39Q363 15 325 2Q287 -11 241 -11Q131 -11 72.5 46Q14 103 14 200V216H134V204Q134 150 161.5 121Q189 92 240 92Q277 92 298.5 111Q320 130 320 164Q320 195 303.5 212Q287 229 254 240L163 270Q132 280 105.5 295Q79 310 60 331.5Q41 353 30.5 382.5Q20 412 20 451Z" glyph-name="S" horiz-adv-x="468" unicode="S" /><glyph d="M20 451Q20 493 34.5 528Q49 563 75.5 588Q102 613 139.5 627Q177 641 224 641Q278 641 318.5 625.5Q359 610 386.5 582.5Q414 555 427.5 517Q441 479 441 434V415H321V429Q321 478 297.5 508Q274 538 224 538Q188 538 167.5 518Q147 498 147 465Q147 438 162 421.5Q177 405 206 394L296 362Q369 336 409.5 294.5Q450 253 450 179Q450 134 434.5 98.5Q419 63 391 39Q363 15 325 2Q287 -11 241 -11Q131 -11 72.5 46Q14 103 14 200V216H134V204Q134 150 161.5 121Q189 92 240 92Q277 92 298.5 111Q320 130 320 164Q320 195 303.5 212Q287 229 254 240L163 270Q132 280 105.5 295Q79 310 60 331.5Q41 353 30.5 382.5Q20 412 20 451ZM186 666 233 802H364L275 666Z" glyph-name="Sacute" horiz-adv-x="468" unicode="&#346;" /><glyph d="M20 451Q20 493 34.5 528Q49 563 75.5 588Q102 613 139.5 627Q177 641 224 641Q278 641 318.5 625.5Q359 610 386.5 582.5Q414 555 427.5 517Q441 479 441 434V415H321V429Q321 478 297.5 508Q274 538 224 538Q188 538 167.5 518Q147 498 147 465Q147 438 162 421.5Q177 405 206 394L296 362Q369 336 409.5 294.5Q450 253 450 179Q450 134 434.5 98.5Q419 63 391 39Q363 15 325 2Q287 -11 241 -11Q131 -11 72.5 46Q14 103 14 200V216H134V204Q134 150 161.5 121Q189 92 240 92Q277 92 298.5 111Q320 130 320 164Q320 195 303.5 212Q287 229 254 240L163 270Q132 280 105.5 295Q79 310 60 331.5Q41 353 30.5 382.5Q20 412 20 451ZM170 666 92 802H176L233 738L290 802H374L296 666Z" glyph-name="Scaron" horiz-adv-x="468" unicode="&#352;" /><glyph d="M326 -99Q326 -139 297.5 -157Q269 -175 231 -175Q202 -175 176.5 -166.5Q151 -158 135 -144L152 -94Q166 -105 184.5 -113Q203 -121 222 -121Q252 -121 252 -99Q252 -83 231 -77.5Q210 -72 176 -72L205 -9Q112 0 63 55.5Q14 111 14 200V216H134V204Q134 150 161.5 121Q189 92 240 92Q277 92 298.5 111Q320 130 320 164Q320 195 303.5 212Q287 229 254 240L163 270Q132 280 105.5 295Q79 310 60 331.5Q41 353 30.5 382.5Q20 412 20 451Q20 493 34.5 528Q49 563 75.5 588Q102 613 139.5 627Q177 641 224 641Q278 641 318.5 625.5Q359 610 386.5 582.5Q414 555 427.5 517Q441 479 441 434V415H321V429Q321 478 297.5 508Q274 538 224 538Q188 538 167.5 518Q147 498 147 465Q147 438 162 421.5Q177 405 206 394L296 362Q369 336 409.5 294.5Q450 253 450 179Q450 135 435 100.5Q420 66 393.5 41.5Q367 17 330.5 3.5Q294 -10 250 -11L243 -28Q276 -30 301 -46Q326 -62 326 -99Z" glyph-name="Scedilla" horiz-adv-x="468" unicode="&#350;" /><glyph d="M20 451Q20 493 34.5 528Q49 563 75.5 588Q102 613 139.5 627Q177 641 224 641Q278 641 318.5 625.5Q359 610 386.5 582.5Q414 555 427.5 517Q441 479 441 434V415H321V429Q321 478 297.5 508Q274 538 224 538Q188 538 167.5 518Q147 498 147 465Q147 438 162 421.5Q177 405 206 394L296 362Q369 336 409.5 294.5Q450 253 450 179Q450 134 434.5 98.5Q419 63 391 39Q363 15 325 2Q287 -11 241 -11Q131 -11 72.5 46Q14 103 14 200V216H134V204Q134 150 161.5 121Q189 92 240 92Q277 92 298.5 111Q320 130 320 164Q320 195 303.5 212Q287 229 254 240L163 270Q132 280 105.5 295Q79 310 60 331.5Q41 353 30.5 382.5Q20 412 20 451ZM296 801 374 663H290L233 729L176 663H92L170 801Z" glyph-name="Scircumflex" horiz-adv-x="468" unicode="&#348;" /><glyph d="M174 -35H292V-102Q292 -201 173 -201V-156Q198 -156 209 -149Q220 -142 221 -122H174ZM20 451Q20 493 34.5 528Q49 563 75.5 588Q102 613 139.5 627Q177 641 224 641Q278 641 318.5 625.5Q359 610 386.5 582.5Q414 555 427.5 517Q441 479 441 434V415H321V429Q321 478 297.5 508Q274 538 224 538Q188 538 167.5 518Q147 498 147 465Q147 438 162 421.5Q177 405 206 394L296 362Q369 336 409.5 294.5Q450 253 450 179Q450 134 434.5 98.5Q419 63 391 39Q363 15 325 2Q287 -11 241 -11Q131 -11 72.5 46Q14 103 14 200V216H134V204Q134 150 161.5 121Q189 92 240 92Q277 92 298.5 111Q320 130 320 164Q320 195 303.5 212Q287 229 254 240L163 270Q132 280 105.5 295Q79 310 60 331.5Q41 353 30.5 382.5Q20 412 20 451Z" glyph-name="Scommaaccent" horiz-adv-x="468" unicode="&#536;" /><glyph d="M178 0V519H18V630H475V519H312V0Z" glyph-name="T" horiz-adv-x="493" unicode="T" /><glyph d="M94 361H178V519H18V630H475V519H312V361H397V259H312V0H178V259H94Z" glyph-name="Tbar" horiz-adv-x="493" unicode="&#358;" /><glyph d="M184 666 106 802H190L247 738L304 802H388L310 666ZM178 0V519H18V630H475V519H312V0Z" glyph-name="Tcaron" horiz-adv-x="493" unicode="&#356;" /><glyph d="M188 -35H306V-102Q306 -201 187 -201V-156Q212 -156 223 -149Q234 -142 235 -122H188ZM178 0V519H18V630H475V519H312V0Z" glyph-name="Tcommaaccent" horiz-adv-x="493" unicode="&#354;" /><glyph d="M236 218Q286 218 311 240Q336 262 336 318Q336 374 311 396Q286 418 236 418H176V218ZM176 0H42V630H176V526H247Q359 526 412.5 472Q466 418 466 319Q466 218 412.5 164.5Q359 111 247 111H176Z" glyph-name="Thorn" horiz-adv-x="479" unicode="&#222;" /><glyph d="M264 -11Q212 -11 170 3.5Q128 18 98 48Q68 78 52 122.5Q36 167 36 227V630H169V236Q169 170 189 136Q209 102 264 102Q318 102 338 136Q358 170 358 236V630H492V227Q492 167 475.5 122.5Q459 78 429 48Q399 18 357 3.5Q315 -11 264 -11Z" glyph-name="U" horiz-adv-x="528" unicode="U" /><glyph d="M218 666 265 802H396L307 666ZM264 -11Q212 -11 170 3.5Q128 18 98 48Q68 78 52 122.5Q36 167 36 227V630H169V236Q169 170 189 136Q209 102 264 102Q318 102 338 136Q358 170 358 236V630H492V227Q492 167 475.5 122.5Q459 78 429 48Q399 18 357 3.5Q315 -11 264 -11Z" glyph-name="Uacute" horiz-adv-x="528" unicode="&#218;" /><glyph d="M264 661Q204 661 172 698Q140 735 140 801H216Q216 741 264 741Q311 741 311 801H388Q388 735 356 698Q324 661 264 661ZM264 -11Q212 -11 170 3.5Q128 18 98 48Q68 78 52 122.5Q36 167 36 227V630H169V236Q169 170 189 136Q209 102 264 102Q318 102 338 136Q358 170 358 236V630H492V227Q492 167 475.5 122.5Q459 78 429 48Q399 18 357 3.5Q315 -11 264 -11Z" glyph-name="Ubreve" horiz-adv-x="528" unicode="&#364;" /><glyph d="M264 -11Q212 -11 170 3.5Q128 18 98 48Q68 78 52 122.5Q36 167 36 227V630H169V236Q169 170 189 136Q209 102 264 102Q318 102 338 136Q358 170 358 236V630H492V227Q492 167 475.5 122.5Q459 78 429 48Q399 18 357 3.5Q315 -11 264 -11ZM327 801 405 663H321L264 729L207 663H123L201 801Z" glyph-name="Ucircumflex" horiz-adv-x="528" unicode="&#219;" /><glyph d="M138 782H248V669H138ZM280 782H389V669H280ZM264 -11Q212 -11 170 3.5Q128 18 98 48Q68 78 52 122.5Q36 167 36 227V630H169V236Q169 170 189 136Q209 102 264 102Q318 102 338 136Q358 170 358 236V630H492V227Q492 167 475.5 122.5Q459 78 429 48Q399 18 357 3.5Q315 -11 264 -11Z" glyph-name="Udieresis" horiz-adv-x="528" unicode="&#220;" /><glyph d="M220 666 130 802H262L308 666ZM264 -11Q212 -11 170 3.5Q128 18 98 48Q68 78 52 122.5Q36 167 36 227V630H169V236Q169 170 189 136Q209 102 264 102Q318 102 338 136Q358 170 358 236V630H492V227Q492 167 475.5 122.5Q459 78 429 48Q399 18 357 3.5Q315 -11 264 -11Z" glyph-name="Ugrave" horiz-adv-x="528" unicode="&#217;" /><glyph d="M264 -11Q212 -11 170 3.5Q128 18 98 48Q68 78 52 122.5Q36 167 36 227V630H169V236Q169 170 189 136Q209 102 264 102Q318 102 338 136Q358 170 358 236V630H492V227Q492 167 475.5 122.5Q459 78 429 48Q399 18 357 3.5Q315 -11 264 -11ZM151 666 191 802H310L229 666ZM288 666 328 802H449L367 666Z" glyph-name="Uhungarumlaut" horiz-adv-x="528" unicode="&#368;" /><glyph d="M149 759H379V671H149ZM264 -11Q212 -11 170 3.5Q128 18 98 48Q68 78 52 122.5Q36 167 36 227V630H169V236Q169 170 189 136Q209 102 264 102Q318 102 338 136Q358 170 358 236V630H492V227Q492 167 475.5 122.5Q459 78 429 48Q399 18 357 3.5Q315 -11 264 -11Z" glyph-name="Umacron" horiz-adv-x="528" unicode="&#362;" /><glyph d="M264 -11Q212 -11 170 3.5Q128 18 98 48Q68 78 52 122.5Q36 167 36 227V630H169V236Q169 170 189 136Q209 102 264 102Q318 102 338 136Q358 170 358 236V630H492V227Q492 144 460.5 94Q429 44 377 12Q348 -6 338 -26Q328 -46 328 -64Q328 -94 353 -94Q368 -94 386 -87V-153Q375 -161 360.5 -165.5Q346 -170 326 -170Q294 -170 270.5 -151.5Q247 -133 247 -95Q247 -70 258 -49.5Q269 -29 286 -10Q284 -11 275 -11Q266 -11 264 -11Z" glyph-name="Uogonek" horiz-adv-x="528" unicode="&#370;" /><glyph d="M264 -11Q212 -11 170 3.5Q128 18 98 48Q68 78 52 122.5Q36 167 36 227V630H169V236Q169 170 189 136Q209 102 264 102Q318 102 338 136Q358 170 358 236V630H492V227Q492 167 475.5 122.5Q459 78 429 48Q399 18 357 3.5Q315 -11 264 -11ZM228 740Q228 724 237 714Q246 704 264 704Q282 704 291 714Q300 724 300 740Q300 756 291 766.5Q282 777 264 777Q246 777 237 766.5Q228 756 228 740ZM172 740Q172 778 197 803.5Q222 829 264 829Q306 829 331 803.5Q356 778 356 740Q356 702 331 677Q306 652 264 652Q222 652 197 677Q172 702 172 740Z" glyph-name="Uring" horiz-adv-x="528" unicode="&#366;" /><glyph d="M129 666Q129 726 149.5 762.5Q170 799 211 799Q228 799 240.5 792Q253 785 263.5 777Q274 769 284 762Q294 755 306 755Q318 755 326 764.5Q334 774 336 796H400Q400 736 379.5 700Q359 664 318 664Q300 664 288 671Q276 678 265.5 686Q255 694 245 701Q235 708 223 708Q209 708 202 698.5Q195 689 193 666ZM264 -11Q212 -11 170 3.5Q128 18 98 48Q68 78 52 122.5Q36 167 36 227V630H169V236Q169 170 189 136Q209 102 264 102Q318 102 338 136Q358 170 358 236V630H492V227Q492 167 475.5 122.5Q459 78 429 48Q399 18 357 3.5Q315 -11 264 -11Z" glyph-name="Utilde" horiz-adv-x="528" unicode="&#360;" /><glyph d="M184 0 2 630H140L255 205H259L375 630H502L320 0Z" glyph-name="V" horiz-adv-x="504" unicode="V" /><glyph d="M406 630 475 224H479L552 630H678L551 0H417L342 433H338L263 0H129L2 630H136L207 224H211L282 630Z" glyph-name="W" horiz-adv-x="680" unicode="W" /><glyph d="M294 666 341 802H472L383 666ZM406 630 475 224H479L552 630H678L551 0H417L342 433H338L263 0H129L2 630H136L207 224H211L282 630Z" glyph-name="Wacute" horiz-adv-x="680" unicode="&#7810;" /><glyph d="M406 630 475 224H479L552 630H678L551 0H417L342 433H338L263 0H129L2 630H136L207 224H211L282 630ZM404 801 482 663H398L341 729L284 663H200L278 801Z" glyph-name="Wcircumflex" horiz-adv-x="680" unicode="&#372;" /><glyph d="M215 782H325V669H215ZM357 782H466V669H357ZM406 630 475 224H479L552 630H678L551 0H417L342 433H338L263 0H129L2 630H136L207 224H211L282 630Z" glyph-name="Wdieresis" horiz-adv-x="680" unicode="&#7812;" /><glyph d="M296 666 206 802H338L384 666ZM406 630 475 224H479L552 630H678L551 0H417L342 433H338L263 0H129L2 630H136L207 224H211L282 630Z" glyph-name="Wgrave" horiz-adv-x="680" unicode="&#7808;" /><glyph d="M322 327 505 0H361L247 212L134 0H-4L180 322L8 630H153L254 434L357 630H494Z" glyph-name="X" horiz-adv-x="502" unicode="X" /><glyph d="M368 630H503L317 226V0H187V226L1 630H141L257 371Z" glyph-name="Y" horiz-adv-x="504" unicode="Y" /><glyph d="M368 630H503L317 226V0H187V226L1 630H141L257 371ZM206 666 253 802H384L295 666Z" glyph-name="Yacute" horiz-adv-x="504" unicode="&#221;" /><glyph d="M368 630H503L317 226V0H187V226L1 630H141L257 371ZM315 801 393 663H309L252 729L195 663H111L189 801Z" glyph-name="Ycircumflex" horiz-adv-x="504" unicode="&#374;" /><glyph d="M368 630H503L317 226V0H187V226L1 630H141L257 371ZM126 782H236V669H126ZM268 782H377V669H268Z" glyph-name="Ydieresis" horiz-adv-x="504" unicode="&#376;" /><glyph d="M368 630H503L317 226V0H187V226L1 630H141L257 371ZM208 666 118 802H250L296 666Z" glyph-name="Ygrave" horiz-adv-x="504" unicode="&#7922;" /><glyph d="M440 111V0H22V100L278 519H25V630H434V527L177 111Z" glyph-name="Z" horiz-adv-x="462" unicode="Z" /><glyph d="M440 111V0H22V100L278 519H25V630H434V527L177 111ZM185 666 232 802H363L274 666Z" glyph-name="Zacute" horiz-adv-x="462" unicode="&#377;" /><glyph d="M168 666 90 802H174L231 738L288 802H372L294 666ZM440 111V0H22V100L278 519H25V630H434V527L177 111Z" glyph-name="Zcaron" horiz-adv-x="462" unicode="&#381;" /><glyph d="M167 796H296V673H167ZM440 111V0H22V100L278 519H25V630H434V527L177 111Z" glyph-name="Zdotaccent" horiz-adv-x="462" unicode="&#379;" /><glyph d="M252 208 181 176Q161 168 148.5 156.5Q136 145 136 124Q136 85 179 85Q213 85 232.5 108Q252 131 252 169ZM375 108Q375 87 394 87Q405 87 418 91V14Q404 5 387.5 -0.5Q371 -6 349 -6Q316 -6 290.5 10Q265 26 257 62Q243 33 212 13.5Q181 -6 137 -6Q78 -6 46 25.5Q14 57 14 108Q14 138 24 159Q34 180 50 194.5Q66 209 86 218.5Q106 228 125 236L252 283V293Q252 321 240 337.5Q228 354 199 354Q171 354 157.5 338Q144 322 144 293V280H30V293Q30 362 73.5 407Q117 452 204 452Q292 452 333.5 410.5Q375 369 375 287Z" glyph-name="a" horiz-adv-x="422" unicode="a" /><glyph d="M252 208 181 176Q161 168 148.5 156.5Q136 145 136 124Q136 85 179 85Q213 85 232.5 108Q252 131 252 169ZM375 108Q375 87 394 87Q405 87 418 91V14Q404 5 387.5 -0.5Q371 -6 349 -6Q316 -6 290.5 10Q265 26 257 62Q243 33 212 13.5Q181 -6 137 -6Q78 -6 46 25.5Q14 57 14 108Q14 138 24 159Q34 180 50 194.5Q66 209 86 218.5Q106 228 125 236L252 283V293Q252 321 240 337.5Q228 354 199 354Q171 354 157.5 338Q144 322 144 293V280H30V293Q30 362 73.5 407Q117 452 204 452Q292 452 333.5 410.5Q375 369 375 287ZM164 490 211 626H342L253 490Z" glyph-name="aacute" horiz-adv-x="422" unicode="&#225;" /><glyph d="M252 208 181 176Q161 168 148.5 156.5Q136 145 136 124Q136 85 179 85Q213 85 232.5 108Q252 131 252 169ZM375 108Q375 87 394 87Q405 87 418 91V14Q404 5 387.5 -0.5Q371 -6 349 -6Q316 -6 290.5 10Q265 26 257 62Q243 33 212 13.5Q181 -6 137 -6Q78 -6 46 25.5Q14 57 14 108Q14 138 24 159Q34 180 50 194.5Q66 209 86 218.5Q106 228 125 236L252 283V293Q252 321 240 337.5Q228 354 199 354Q171 354 157.5 338Q144 322 144 293V280H30V293Q30 362 73.5 407Q117 452 204 452Q292 452 333.5 410.5Q375 369 375 287ZM206 486Q146 486 114 522.5Q82 559 82 625H158Q158 565 206 565Q253 565 253 625H330Q330 559 298 522.5Q266 486 206 486Z" glyph-name="abreve" horiz-adv-x="422" unicode="&#259;" /><glyph d="M252 208 181 176Q161 168 148.5 156.5Q136 145 136 124Q136 85 179 85Q213 85 232.5 108Q252 131 252 169ZM375 108Q375 87 394 87Q405 87 418 91V14Q404 5 387.5 -0.5Q371 -6 349 -6Q316 -6 290.5 10Q265 26 257 62Q243 33 212 13.5Q181 -6 137 -6Q78 -6 46 25.5Q14 57 14 108Q14 138 24 159Q34 180 50 194.5Q66 209 86 218.5Q106 228 125 236L252 283V293Q252 321 240 337.5Q228 354 199 354Q171 354 157.5 338Q144 322 144 293V280H30V293Q30 362 73.5 407Q117 452 204 452Q292 452 333.5 410.5Q375 369 375 287ZM270 621 348 483H265L208 549L151 483H67L146 621Z" glyph-name="acircumflex" horiz-adv-x="422" unicode="&#226;" /><glyph d="M93 490 140 626H271L182 490Z" glyph-name="acute" horiz-adv-x="365" unicode="&#180;" /><glyph d="M93 666 140 802H271L182 666Z" glyph-name="acute.cap" horiz-adv-x="365" /><glyph d="M252 208 181 176Q161 168 148.5 156.5Q136 145 136 124Q136 85 179 85Q213 85 232.5 108Q252 131 252 169ZM375 108Q375 87 394 87Q405 87 418 91V14Q404 5 387.5 -0.5Q371 -6 349 -6Q316 -6 290.5 10Q265 26 257 62Q243 33 212 13.5Q181 -6 137 -6Q78 -6 46 25.5Q14 57 14 108Q14 138 24 159Q34 180 50 194.5Q66 209 86 218.5Q106 228 125 236L252 283V293Q252 321 240 337.5Q228 354 199 354Q171 354 157.5 338Q144 322 144 293V280H30V293Q30 362 73.5 407Q117 452 204 452Q292 452 333.5 410.5Q375 369 375 287ZM85 607H195V494H85ZM227 607H336V494H227Z" glyph-name="adieresis" horiz-adv-x="422" unicode="&#228;" /><glyph d="M376 194Q376 91 449 91Q512 91 514 160H628Q622 81 577 36Q532 -9 449 -9Q399 -9 362.5 11Q326 31 307 66Q291 34 253 12.5Q215 -9 164 -9Q95 -9 54.5 26Q14 61 14 122Q14 187 62 225Q110 263 210 263H252V293Q252 321 240 337.5Q228 354 199 354Q171 354 157.5 338.5Q144 323 144 294V286H30V295Q30 329 41 358Q52 387 73 408Q94 429 125 440.5Q156 452 197 452Q245 452 275 436Q305 420 324 395Q344 418 376 435Q408 452 453 452Q542 452 586.5 392.5Q631 333 631 230V194ZM511 263Q511 305 494 328.5Q477 352 444 352Q412 352 394 330Q376 308 376 263ZM183 87Q217 87 234.5 109.5Q252 132 252 171V194H212Q178 194 156.5 180Q135 166 135 136Q135 111 148 99Q161 87 183 87Z" glyph-name="ae" horiz-adv-x="649" unicode="&#230;" /><glyph d="M276 490 323 626H454L365 490ZM376 194Q376 91 449 91Q512 91 514 160H628Q622 81 577 36Q532 -9 449 -9Q399 -9 362.5 11Q326 31 307 66Q291 34 253 12.5Q215 -9 164 -9Q95 -9 54.5 26Q14 61 14 122Q14 187 62 225Q110 263 210 263H252V293Q252 321 240 337.5Q228 354 199 354Q171 354 157.5 338.5Q144 323 144 294V286H30V295Q30 329 41 358Q52 387 73 408Q94 429 125 440.5Q156 452 197 452Q245 452 275 436Q305 420 324 395Q344 418 376 435Q408 452 453 452Q542 452 586.5 392.5Q631 333 631 230V194ZM511 263Q511 305 494 328.5Q477 352 444 352Q412 352 394 330Q376 308 376 263ZM183 87Q217 87 234.5 109.5Q252 132 252 171V194H212Q178 194 156.5 180Q135 166 135 136Q135 111 148 99Q161 87 183 87Z" glyph-name="aeacute" horiz-adv-x="649" unicode="&#509;" /><glyph d="M252 208 181 176Q161 168 148.5 156.5Q136 145 136 124Q136 85 179 85Q213 85 232.5 108Q252 131 252 169ZM375 108Q375 87 394 87Q405 87 418 91V14Q404 5 387.5 -0.5Q371 -6 349 -6Q316 -6 290.5 10Q265 26 257 62Q243 33 212 13.5Q181 -6 137 -6Q78 -6 46 25.5Q14 57 14 108Q14 138 24 159Q34 180 50 194.5Q66 209 86 218.5Q106 228 125 236L252 283V293Q252 321 240 337.5Q228 354 199 354Q171 354 157.5 338Q144 322 144 293V280H30V293Q30 362 73.5 407Q117 452 204 452Q292 452 333.5 410.5Q375 369 375 287ZM171 490 81 626H213L259 490Z" glyph-name="agrave" horiz-adv-x="422" unicode="&#224;" /><glyph d="M252 208 181 176Q161 168 148.5 156.5Q136 145 136 124Q136 85 179 85Q213 85 232.5 108Q252 131 252 169ZM375 108Q375 87 394 87Q405 87 418 91V14Q404 5 387.5 -0.5Q371 -6 349 -6Q316 -6 290.5 10Q265 26 257 62Q243 33 212 13.5Q181 -6 137 -6Q78 -6 46 25.5Q14 57 14 108Q14 138 24 159Q34 180 50 194.5Q66 209 86 218.5Q106 228 125 236L252 283V293Q252 321 240 337.5Q228 354 199 354Q171 354 157.5 338Q144 322 144 293V280H30V293Q30 362 73.5 407Q117 452 204 452Q292 452 333.5 410.5Q375 369 375 287ZM91 583H321V495H91Z" glyph-name="amacron" horiz-adv-x="422" unicode="&#257;" /><glyph d="M535 320Q524 269 503 220.5Q482 172 453 130Q469 112 482.5 103Q496 94 516 94Q536 94 561 101V16Q549 6 528.5 -0.5Q508 -7 485 -7Q457 -7 430 3Q403 13 370 44Q335 18 293.5 3.5Q252 -11 204 -11Q162 -11 126 0.5Q90 12 63 34Q36 56 21 89Q6 122 6 165Q6 225 35 264.5Q64 304 120 337Q96 369 81.5 400Q67 431 67 476Q67 515 81 545.5Q95 576 118.5 597Q142 618 173.5 629.5Q205 641 240 641Q279 641 309.5 629.5Q340 618 360.5 597.5Q381 577 392 549Q403 521 403 489Q403 459 396 435.5Q389 412 374.5 392.5Q360 373 338.5 356Q317 339 287 321L382 211Q396 236 407.5 264.5Q419 293 427 325ZM212 95Q261 95 301 121L183 262Q159 245 145 224.5Q131 204 131 172Q131 134 154 114.5Q177 95 212 95ZM183 480Q183 454 196.5 433Q210 412 227 392Q264 412 279 432.5Q294 453 294 484Q294 507 280.5 525Q267 543 240 543Q215 543 199 525.5Q183 508 183 480Z" glyph-name="ampersand" horiz-adv-x="566" unicode="&amp;" /><glyph d="M375 108Q375 87 394 87Q405 87 418 91V14Q385 -14 372.5 -33Q360 -52 360 -69Q360 -94 386 -94Q400 -94 418 -87V-153Q407 -161 393 -165.5Q379 -170 359 -170Q327 -170 303.5 -151.5Q280 -133 280 -95Q280 -68 292.5 -45.5Q305 -23 325 -3Q299 1 280.5 17Q262 33 257 62Q243 33 212 13.5Q181 -6 137 -6Q78 -6 46 25.5Q14 57 14 108Q14 138 24 159Q34 180 50 194.5Q66 209 86 218.5Q106 228 125 236L252 283V293Q252 321 240 337.5Q228 354 199 354Q171 354 157.5 338Q144 322 144 293V280H30V293Q30 362 73.5 407Q117 452 204 452Q292 452 333.5 410.5Q375 369 375 287ZM252 208 181 176Q161 168 148.5 156.5Q136 145 136 124Q136 85 179 85Q213 85 232.5 108Q252 131 252 169Z" glyph-name="aogonek" horiz-adv-x="422" unicode="&#261;" /><glyph d="M44 409Q75 429 103.5 438.5Q132 448 157 448Q184 448 207.5 442Q231 436 253.5 429.5Q276 423 299.5 417Q323 411 350 411Q376 411 405.5 419Q435 427 468 449V357Q435 337 405.5 328.5Q376 320 350 320Q323 320 299.5 325.5Q276 331 253.5 338Q231 345 207.5 350.5Q184 356 157 356Q132 356 103.5 347.5Q75 339 44 319ZM44 255Q75 276 103.5 285Q132 294 157 294Q184 294 207.5 288Q231 282 253.5 275Q276 268 299.5 262Q323 256 350 256Q376 256 405.5 265Q435 274 468 295V203Q435 183 405.5 174.5Q376 166 350 166Q323 166 299.5 172Q276 178 253.5 184.5Q231 191 207.5 197Q184 203 157 203Q132 203 103.5 194Q75 185 44 165Z" glyph-name="approxequal" horiz-adv-x="511" unicode="&#8776;" /><glyph d="M38 409Q69 429 97.5 438.5Q126 448 151 448Q178 448 201.5 442Q225 436 247.5 429.5Q270 423 293.5 417Q317 411 344 411Q370 411 399.5 419Q429 427 461 449V357Q429 337 399.5 328.5Q370 320 344 320Q317 320 293.5 325.5Q270 331 247.5 338Q225 345 201.5 350.5Q178 356 151 356Q126 356 97.5 347.5Q69 339 38 319ZM38 255Q69 276 97.5 285Q126 294 151 294Q178 294 201.5 288Q225 282 247.5 275Q270 268 293.5 262Q317 256 344 256Q370 256 399.5 265Q429 274 461 295V203Q429 183 399.5 174.5Q370 166 344 166Q317 166 293.5 172Q270 178 247.5 184.5Q225 191 201.5 197Q178 203 151 203Q126 203 97.5 194Q69 185 38 165Z" glyph-name="approxequal.lt" horiz-adv-x="500" /><glyph d="M252 208 181 176Q161 168 148.5 156.5Q136 145 136 124Q136 85 179 85Q213 85 232.5 108Q252 131 252 169ZM375 108Q375 87 394 87Q405 87 418 91V14Q404 5 387.5 -0.5Q371 -6 349 -6Q316 -6 290.5 10Q265 26 257 62Q243 33 212 13.5Q181 -6 137 -6Q78 -6 46 25.5Q14 57 14 108Q14 138 24 159Q34 180 50 194.5Q66 209 86 218.5Q106 228 125 236L252 283V293Q252 321 240 337.5Q228 354 199 354Q171 354 157.5 338Q144 322 144 293V280H30V293Q30 362 73.5 407Q117 452 204 452Q292 452 333.5 410.5Q375 369 375 287ZM172 564Q172 548 181 538.5Q190 529 208 529Q226 529 235 538.5Q244 548 244 564Q244 581 235 591Q226 601 208 601Q190 601 181 591Q172 581 172 564ZM116 564Q116 602 141 627.5Q166 653 208 653Q250 653 275 627.5Q300 602 300 564Q300 526 275 501Q250 476 208 476Q166 476 141 501Q116 526 116 564Z" glyph-name="aring" horiz-adv-x="422" unicode="&#229;" /><glyph d="M173 547Q173 516 206 516Q240 516 240 547Q240 578 206 578Q173 578 173 547ZM118 547Q118 580 141.5 603Q165 626 206 626Q248 626 272 603Q296 580 296 547Q296 513 272 490.5Q248 468 206 468Q165 468 141.5 490.5Q118 513 118 547ZM161 641 196 748H333L256 641ZM252 208 181 176Q161 168 148.5 156.5Q136 145 136 124Q136 85 179 85Q213 85 232.5 108Q252 131 252 169ZM375 108Q375 87 394 87Q405 87 418 91V14Q404 5 387.5 -0.5Q371 -6 349 -6Q316 -6 290.5 10Q265 26 257 62Q243 33 212 13.5Q181 -6 137 -6Q78 -6 46 25.5Q14 57 14 108Q14 138 24 159Q34 180 50 194.5Q66 209 86 218.5Q106 228 125 236L252 283V293Q252 321 240 337.5Q228 354 199 354Q171 354 157.5 338Q144 322 144 293V280H30V293Q30 362 73.5 407Q117 452 204 452Q292 452 333.5 410.5Q375 369 375 287Z" glyph-name="aringacute" horiz-adv-x="422" unicode="&#507;" /><glyph d="M247 630 356 422H235L179 541L124 422H2L111 630Z" glyph-name="asciicircum" horiz-adv-x="359" unicode="^" /><glyph d="M19 205Q19 271 42.5 312Q66 353 114 353Q133 353 148.5 346Q164 339 178 330Q192 321 205.5 314Q219 307 233 307Q248 307 258 317Q268 327 270 350H342Q342 284 318.5 242.5Q295 201 248 201Q228 201 212.5 208.5Q197 216 183 224.5Q169 233 155.5 240.5Q142 248 128 248Q96 248 92 205Z" glyph-name="asciitilde" horiz-adv-x="361" unicode="~" /><glyph d="M33 571 115 544V631H186V545L268 571L290 504L208 477L259 408L201 365L151 434L101 365L42 407L93 476L11 503Z" glyph-name="asterisk" horiz-adv-x="301" unicode="*" /><glyph d="M497 101Q533 101 554.5 144Q576 187 576 271Q576 371 524.5 430.5Q473 490 371 490Q310 490 260.5 467.5Q211 445 176.5 403.5Q142 362 123.5 304.5Q105 247 105 177Q105 116 123 70.5Q141 25 172 -5.5Q203 -36 245.5 -51.5Q288 -67 336 -67Q384 -67 426.5 -57Q469 -47 512 -22L532 -82Q488 -112 439 -125.5Q390 -139 335 -139Q269 -139 212.5 -118.5Q156 -98 114 -58Q72 -18 48 41Q24 100 24 177Q24 262 49 332.5Q74 403 120 454Q166 505 230 533.5Q294 562 371 562Q438 562 490.5 540Q543 518 579.5 479.5Q616 441 635 387.5Q654 334 654 271Q654 209 639.5 164Q625 119 601 89.5Q577 60 545.5 45.5Q514 31 480 31Q441 31 417.5 47.5Q394 64 384 93Q352 31 285 31Q233 31 202 68.5Q171 106 171 172Q171 212 182 251Q193 290 213 320.5Q233 351 261.5 369.5Q290 388 326 388Q361 388 381.5 372Q402 356 411 331L423 380H516L466 153Q456 101 497 101ZM385 219Q393 262 384 286Q375 310 349 310Q331 310 317.5 298Q304 286 294 266.5Q284 247 279 222.5Q274 198 274 172Q274 144 283.5 127.5Q293 111 315 111Q337 111 355 131.5Q373 152 382 200Z" glyph-name="at" horiz-adv-x="678" unicode="@" /><glyph d="M497 207Q533 207 554.5 250Q576 293 576 377Q576 477 524.5 536.5Q473 596 371 596Q310 596 260.5 573.5Q211 551 176.5 509.5Q142 468 123.5 410.5Q105 353 105 283Q105 222 123 176.5Q141 131 172 100.5Q203 70 245.5 54.5Q288 39 336 39Q384 39 426.5 49Q469 59 512 84L532 24Q488 -6 439 -19.5Q390 -33 335 -33Q269 -33 212.5 -12.5Q156 8 114 48Q72 88 48 147Q24 206 24 283Q24 368 49 438.5Q74 509 120 560Q166 611 230 639.5Q294 668 371 668Q438 668 490.5 646Q543 624 579.5 585.5Q616 547 635 493.5Q654 440 654 377Q654 315 639.5 270Q625 225 601 195.5Q577 166 545.5 151.5Q514 137 480 137Q441 137 417.5 153.5Q394 170 384 199Q352 137 285 137Q233 137 202 174.5Q171 212 171 278Q171 318 182 357Q193 396 213 426.5Q233 457 261.5 475.5Q290 494 326 494Q361 494 381.5 478Q402 462 411 437L423 486H516L466 259Q456 207 497 207ZM385 325Q393 368 384 392Q375 416 349 416Q331 416 317.5 404Q304 392 294 372.5Q284 353 279 328.5Q274 304 274 278Q274 250 283.5 233.5Q293 217 315 217Q337 217 355 237.5Q373 258 382 306Z" glyph-name="at.cap" horiz-adv-x="678" /><glyph d="M252 208 181 176Q161 168 148.5 156.5Q136 145 136 124Q136 85 179 85Q213 85 232.5 108Q252 131 252 169ZM375 108Q375 87 394 87Q405 87 418 91V14Q404 5 387.5 -0.5Q371 -6 349 -6Q316 -6 290.5 10Q265 26 257 62Q243 33 212 13.5Q181 -6 137 -6Q78 -6 46 25.5Q14 57 14 108Q14 138 24 159Q34 180 50 194.5Q66 209 86 218.5Q106 228 125 236L252 283V293Q252 321 240 337.5Q228 354 199 354Q171 354 157.5 338Q144 322 144 293V280H30V293Q30 362 73.5 407Q117 452 204 452Q292 452 333.5 410.5Q375 369 375 287ZM73 491Q73 551 93.5 587Q114 623 155 623Q172 623 184.5 616Q197 609 207.5 601Q218 593 228 586Q238 579 250 579Q262 579 270 588.5Q278 598 280 621H344Q344 561 323.5 524.5Q303 488 262 488Q244 488 232 495Q220 502 209.5 510Q199 518 189 525Q179 532 167 532Q140 532 137 491Z" glyph-name="atilde" horiz-adv-x="422" unicode="&#227;" /><glyph d="M311 242Q311 351 238 351Q203 351 184.5 325.5Q166 300 166 258V185Q166 143 184.5 118Q203 93 238 93Q311 93 311 201ZM152 0H38V630H166V388Q182 416 210.5 434Q239 452 283 452Q359 452 398.5 396Q438 340 438 237V206Q438 103 398.5 47Q359 -9 283 -9Q239 -9 210.5 9Q182 27 166 55Z" glyph-name="b" horiz-adv-x="456" unicode="b" /><glyph d="M306 -83H191L0 659H115Z" glyph-name="backslash" horiz-adv-x="296" unicode="\" /><glyph d="M306 0H190L0 630H116Z" glyph-name="backslash.cap" horiz-adv-x="306" /><glyph d="M42 659H151V-83H42Z" glyph-name="bar" horiz-adv-x="193" unicode="|" /><glyph d="M42 630H151V0H42Z" glyph-name="bar.cap" horiz-adv-x="193" /><glyph d="M11 332H29Q60 332 68 348Q76 364 76 405V537Q76 599 105.5 629.5Q135 660 191 660H254V570H221Q201 570 196 560Q191 550 191 533V400Q191 350 174.5 323Q158 296 113 288Q158 280 174.5 253Q191 226 191 176V43Q191 26 196 16Q201 6 221 6H254V-84H191Q135 -84 105.5 -53.5Q76 -23 76 39V171Q76 212 68 228Q60 244 29 244H11Z" glyph-name="braceleft" horiz-adv-x="259" unicode="{" /><glyph d="M11 351H29Q60 351 68 367Q76 383 76 424V556Q76 618 105.5 648.5Q135 679 191 679H254V589H221Q201 589 196 578.5Q191 568 191 552V418Q191 369 174.5 342Q158 315 113 307Q158 299 174.5 272Q191 245 191 195V61Q191 45 196 34.5Q201 24 221 24H254V-65H191Q135 -65 105.5 -34.5Q76 -4 76 57V189Q76 230 68 246Q60 262 29 262H11Z" glyph-name="braceleft.cap" horiz-adv-x="259" /><glyph d="M248 244H230Q199 244 191 228Q183 212 183 171V39Q183 -23 153.5 -53.5Q124 -84 68 -84H5V6H38Q58 6 63 16Q68 26 68 43V176Q68 226 84.5 253Q101 280 146 288Q101 296 84.5 323Q68 350 68 400V533Q68 550 63 560Q58 570 38 570H5V660H68Q124 660 153.5 629.5Q183 599 183 537V405Q183 364 191 348Q199 332 230 332H248Z" glyph-name="braceright" horiz-adv-x="259" unicode="}" /><glyph d="M248 262H230Q199 262 191 246Q183 230 183 189V57Q183 -4 153.5 -34.5Q124 -65 68 -65H5V24H38Q58 24 63 34.5Q68 45 68 61V195Q68 245 84.5 272Q101 299 146 307Q101 315 84.5 342Q68 369 68 418V552Q68 568 63 578.5Q58 589 38 589H5V679H68Q124 679 153.5 648.5Q183 618 183 556V424Q183 383 191 367Q199 351 230 351H248Z" glyph-name="braceright.cap" horiz-adv-x="259" /><glyph d="M157 6H237V-84H43V660H237V570H157Z" glyph-name="bracketleft" horiz-adv-x="242" unicode="[" /><glyph d="M157 25H237V-65H43V679H237V589H157Z" glyph-name="bracketleft.cap" horiz-adv-x="242" /><glyph d="M85 570H5V660H199V-84H5V6H85Z" glyph-name="bracketright" horiz-adv-x="242" unicode="]" /><glyph d="M85 589H5V679H199V-65H5V25H85Z" glyph-name="bracketright.cap" horiz-adv-x="242" /><glyph d="M182 486Q122 486 90 522.5Q58 559 58 625H134Q134 565 182 565Q229 565 229 625H306Q306 559 274 522.5Q242 486 182 486Z" glyph-name="breve" horiz-adv-x="365" unicode="&#728;" /><glyph d="M182 661Q122 661 90 698Q58 735 58 801H134Q134 741 182 741Q229 741 229 801H306Q306 735 274 698Q242 661 182 661Z" glyph-name="breve.cap" horiz-adv-x="365" /><glyph d="M341 258Q341 223 329 194.5Q317 166 296 146Q275 126 246.5 114.5Q218 103 186 103Q154 103 125.5 114.5Q97 126 76 146Q55 166 42.5 194.5Q30 223 30 258Q30 292 42.5 321Q55 350 76 370Q97 390 125.5 401.5Q154 413 186 413Q218 413 246.5 401.5Q275 390 296 370Q317 350 329 321Q341 292 341 258Z" glyph-name="bullet" horiz-adv-x="372" unicode="&#8226;" /><glyph d="M341 319Q341 284 329 255.5Q317 227 296 207Q275 187 246.5 175.5Q218 164 186 164Q154 164 125.5 175.5Q97 187 76 207Q55 227 42.5 255.5Q30 284 30 319Q30 353 42.5 382Q55 411 76 431Q97 451 125.5 462.5Q154 474 186 474Q218 474 246.5 462.5Q275 451 296 431Q317 411 329 382Q341 353 341 319Z" glyph-name="bullet.cap" horiz-adv-x="372" /><glyph d="M18 230Q18 332 69 392Q120 452 211 452Q255 452 288.5 437.5Q322 423 344.5 397.5Q367 372 378.5 337Q390 302 390 261V251H273V259Q273 301 259.5 327Q246 353 211 353Q176 353 160.5 325Q145 297 145 249V194Q145 146 160.5 118.5Q176 91 211 91Q246 91 259.5 116.5Q273 142 273 184V193H390V182Q390 141 378.5 106Q367 71 344.5 45.5Q322 20 288.5 5.5Q255 -9 211 -9Q120 -9 69 51Q18 111 18 213Z" glyph-name="c" horiz-adv-x="408" unicode="c" /><glyph d="M166 490 213 626H344L255 490ZM18 230Q18 332 69 392Q120 452 211 452Q255 452 288.5 437.5Q322 423 344.5 397.5Q367 372 378.5 337Q390 302 390 261V251H273V259Q273 301 259.5 327Q246 353 211 353Q176 353 160.5 325Q145 297 145 249V194Q145 146 160.5 118.5Q176 91 211 91Q246 91 259.5 116.5Q273 142 273 184V193H390V182Q390 141 378.5 106Q367 71 344.5 45.5Q322 20 288.5 5.5Q255 -9 211 -9Q120 -9 69 51Q18 111 18 213Z" glyph-name="cacute" horiz-adv-x="408" unicode="&#263;" /><glyph d="M120 490 41 626H125L182 562L239 626H322L244 490Z" glyph-name="caron" horiz-adv-x="365" unicode="&#711;" /><glyph d="M111 489 125 630H253L189 489Z" glyph-name="caron.Slovak" horiz-adv-x="365" /><glyph d="M119 666 41 802H125L182 738L239 802H323L245 666Z" glyph-name="caron.cap" horiz-adv-x="365" /><glyph d="M150 490 71 626H155L212 562L269 626H352L274 490ZM18 230Q18 332 69 392Q120 452 211 452Q255 452 288.5 437.5Q322 423 344.5 397.5Q367 372 378.5 337Q390 302 390 261V251H273V259Q273 301 259.5 327Q246 353 211 353Q176 353 160.5 325Q145 297 145 249V194Q145 146 160.5 118.5Q176 91 211 91Q246 91 259.5 116.5Q273 142 273 184V193H390V182Q390 141 378.5 106Q367 71 344.5 45.5Q322 20 288.5 5.5Q255 -9 211 -9Q120 -9 69 51Q18 111 18 213Z" glyph-name="ccaron" horiz-adv-x="408" unicode="&#269;" /><glyph d="M306 -99Q306 -139 277.5 -157Q249 -175 211 -175Q182 -175 156.5 -166.5Q131 -158 115 -144L132 -94Q146 -105 164.5 -113Q183 -121 202 -121Q232 -121 232 -99Q232 -83 211 -77.5Q190 -72 156 -72L186 -7Q106 1 62 59Q18 117 18 213V230Q18 332 69 392Q120 452 211 452Q255 452 288.5 437.5Q322 423 344.5 397.5Q367 372 378.5 337Q390 302 390 261V251H273V259Q273 301 259.5 327Q246 353 211 353Q176 353 160.5 325Q145 297 145 249V194Q145 146 160.5 118.5Q176 91 211 91Q246 91 259.5 116.5Q273 142 273 184V193H390V182Q390 104 349.5 51.5Q309 -1 231 -8L223 -28Q256 -30 281 -46Q306 -62 306 -99Z" glyph-name="ccedilla" horiz-adv-x="408" unicode="&#231;" /><glyph d="M276 621 354 483H271L214 549L157 483H73L152 621ZM18 230Q18 332 69 392Q120 452 211 452Q255 452 288.5 437.5Q322 423 344.5 397.5Q367 372 378.5 337Q390 302 390 261V251H273V259Q273 301 259.5 327Q246 353 211 353Q176 353 160.5 325Q145 297 145 249V194Q145 146 160.5 118.5Q176 91 211 91Q246 91 259.5 116.5Q273 142 273 184V193H390V182Q390 141 378.5 106Q367 71 344.5 45.5Q322 20 288.5 5.5Q255 -9 211 -9Q120 -9 69 51Q18 111 18 213Z" glyph-name="ccircumflex" horiz-adv-x="408" unicode="&#265;" /><glyph d="M18 230Q18 332 69 392Q120 452 211 452Q255 452 288.5 437.5Q322 423 344.5 397.5Q367 372 378.5 337Q390 302 390 261V251H273V259Q273 301 259.5 327Q246 353 211 353Q176 353 160.5 325Q145 297 145 249V194Q145 146 160.5 118.5Q176 91 211 91Q246 91 259.5 116.5Q273 142 273 184V193H390V182Q390 141 378.5 106Q367 71 344.5 45.5Q322 20 288.5 5.5Q255 -9 211 -9Q120 -9 69 51Q18 111 18 213ZM148 620H277V497H148Z" glyph-name="cdotaccent" horiz-adv-x="408" unicode="&#267;" /><glyph d="M275 -99Q275 -139 246.5 -157Q218 -175 180 -175Q151 -175 125.5 -166.5Q100 -158 84 -144L101 -94Q115 -105 133.5 -113Q152 -121 171 -121Q201 -121 201 -99Q201 -83 180 -77.5Q159 -72 125 -72L164 11H209L192 -28Q225 -30 250 -46Q275 -62 275 -99Z" glyph-name="cedilla" horiz-adv-x="365" unicode="&#184;" /><glyph d="M275 -99Q275 -139 246.5 -157Q218 -175 180 -175Q151 -175 125.5 -166.5Q100 -158 84 -144L101 -94Q115 -105 133.5 -113Q152 -121 171 -121Q201 -121 201 -99Q201 -83 180 -77.5Q159 -72 125 -72L164 11H209L192 -28Q225 -30 250 -46Q275 -62 275 -99Z" glyph-name="cedilla.alt" horiz-adv-x="365" /><glyph d="M18 230Q18 323 61 381Q104 439 182 450V524H243V450Q317 440 356 388Q395 336 395 261V251H296V263Q296 298 283.5 323Q271 348 243 356V88Q271 96 283.5 121Q296 146 296 181V193H395V182Q395 106 356 54Q317 2 243 -7V-85H182V-7Q104 4 61 61.5Q18 119 18 213ZM132 200Q132 157 144 129.5Q156 102 182 91V354Q156 343 144 316Q132 289 132 248Z" glyph-name="cent" horiz-adv-x="412" unicode="&#162;" /><glyph d="M53 230Q53 324 98 381.5Q143 439 222 450V524H283V450Q358 441 398.5 388.5Q439 336 439 261V251H340V263Q340 298 326 323.5Q312 349 283 357V88Q312 96 326 120.5Q340 145 340 181V192H439V182Q439 105 398.5 53.5Q358 2 283 -7V-85H222V-7Q143 3 98 61Q53 119 53 213ZM168 200Q168 157 181 129.5Q194 102 222 91V354Q194 343 181 316.5Q168 290 168 248Z" glyph-name="cent.lt" horiz-adv-x="500" /><glyph d="M244 621 322 483H239L182 549L125 483H41L120 621Z" glyph-name="circumflex" horiz-adv-x="365" unicode="&#710;" /><glyph d="M245 801 323 663H239L182 729L125 663H41L119 801Z" glyph-name="circumflex.cap" horiz-adv-x="365" /><glyph d="M30 141H170V0H30ZM30 428H170V287H30Z" glyph-name="colon" horiz-adv-x="200" unicode=":" /><glyph d="M54 141H195V0H54ZM54 428H195V287H54Z" glyph-name="colon.tab" horiz-adv-x="250" /><glyph d="M30 141H170V6Q170 -121 30 -125V-60Q62 -59 77 -45.5Q92 -32 92 0H30Z" glyph-name="comma" horiz-adv-x="200" unicode="," /><glyph d="M54 141H195V6Q195 -58 160.5 -90.5Q126 -123 54 -125V-60Q86 -59 101.5 -45.5Q117 -32 117 0H54Z" glyph-name="comma.tab" horiz-adv-x="250" /><glyph d="M123 -35H241V-102Q241 -201 122 -201V-156Q147 -156 158 -149Q169 -142 170 -122H123Z" glyph-name="commaaccent" horiz-adv-x="365" /><glyph d="M241 494H123V557Q123 656 242 656V612Q217 612 206 604.5Q195 597 194 578H241Z" glyph-name="commaturn" horiz-adv-x="365" /><glyph d="M319 641Q383 641 437 616.5Q491 592 530 548.5Q569 505 591 445.5Q613 386 613 315Q613 244 591 184.5Q569 125 530 81.5Q491 38 437 13.5Q383 -11 319 -11Q255 -11 201 13.5Q147 38 108 81.5Q69 125 47 184.5Q25 244 25 315Q25 386 47 445.5Q69 505 108 548.5Q147 592 201 616.5Q255 641 319 641ZM319 594Q264 594 219 573Q174 552 142.5 515Q111 478 93.5 426.5Q76 375 76 315Q76 255 93.5 203.5Q111 152 142.5 115Q174 78 219 57Q264 36 319 36Q374 36 419 57Q464 78 495.5 115Q527 152 544.5 203.5Q562 255 562 315Q562 375 544.5 426.5Q527 478 495.5 515Q464 552 419 573Q374 594 319 594ZM171 328Q171 416 208 466.5Q245 517 320 517Q357 517 383.5 505Q410 493 427 471Q444 449 452 418.5Q460 388 460 351V341H373V351Q373 396 361.5 419Q350 442 321 442Q264 442 264 345V285Q264 188 321 188Q350 188 361.5 211Q373 234 373 279V289H460V279Q460 205 426.5 159Q393 113 320 113Q245 113 208 163.5Q171 214 171 302Z" glyph-name="copyright" horiz-adv-x="638" unicode="&#169;" /><glyph d="M145 201Q145 93 218 93Q253 93 271.5 118Q290 143 290 185V258Q290 300 271.5 325.5Q253 351 218 351Q145 351 145 242ZM290 55Q273 27 245 9Q217 -9 173 -9Q97 -9 57.5 47Q18 103 18 206V237Q18 340 57.5 396Q97 452 173 452Q217 452 245 434Q273 416 290 388V630H418V0H290Z" glyph-name="d" horiz-adv-x="456" unicode="d" /><glyph d="M10 562H86V632H157V562H233V493H157V339H86V493H10Z" glyph-name="dagger" horiz-adv-x="243" unicode="&#8224;" /><glyph d="M15 460H93V511H15V573H93V632H160V573H238V511H160V460H238V398H160V339H93V398H15Z" glyph-name="daggerdbl" horiz-adv-x="253" unicode="&#8225;" /><glyph d="M440 489 454 630H582L518 489ZM145 201Q145 93 218 93Q253 93 271.5 118Q290 143 290 185V258Q290 300 271.5 325.5Q253 351 218 351Q145 351 145 242ZM290 55Q273 27 245 9Q217 -9 173 -9Q97 -9 57.5 47Q18 103 18 206V237Q18 340 57.5 396Q97 452 173 452Q217 452 245 434Q273 416 290 388V630H418V0H290Z" glyph-name="dcaron" horiz-adv-x="456" unicode="&#271;" /><glyph d="M210 565H290V630H418V565H454V486H418V0H290V55Q273 27 245 9Q217 -9 173 -9Q97 -9 57.5 47Q18 103 18 206V237Q18 340 57.5 396Q97 452 173 452Q217 452 245 434Q273 416 290 388V486H210ZM145 201Q145 93 218 93Q253 93 271.5 118Q290 143 290 185V258Q290 300 271.5 325.5Q253 351 218 351Q145 351 145 242Z" glyph-name="dcroat" horiz-adv-x="463" unicode="&#273;" /><glyph d="M84 527Q84 507 95.5 493Q107 479 129 479Q152 479 164 493Q176 507 176 527Q176 547 164 560.5Q152 574 129 574Q107 574 95.5 560.5Q84 547 84 527ZM247 527Q247 503 238 482.5Q229 462 213 446.5Q197 431 175.5 422.5Q154 414 129 414Q104 414 82.5 422.5Q61 431 45.5 446.5Q30 462 21 482.5Q12 503 12 527Q12 551 21 571.5Q30 592 45.5 607.5Q61 623 82.5 631.5Q104 640 129 640Q154 640 175.5 631.5Q197 623 213 607.5Q229 592 238 571.5Q247 551 247 527Z" glyph-name="degree" horiz-adv-x="259" unicode="&#176;" /><glyph d="M56 607H166V494H56ZM198 607H307V494H198Z" glyph-name="dieresis" horiz-adv-x="365" unicode="&#168;" /><glyph d="M56 782H166V669H56ZM198 782H307V669H198Z" glyph-name="dieresis.cap" horiz-adv-x="365" /><glyph d="M36 354H459V256H36ZM183 537H313V415H183ZM183 194H313V73H183Z" glyph-name="divide" horiz-adv-x="495" unicode="&#247;" /><glyph d="M39 354H461V256H39ZM186 537H315V415H186ZM186 194H315V73H186Z" glyph-name="divide.lt" horiz-adv-x="500" /><glyph d="M23 451Q23 530 71.5 581Q120 632 204 639V715H269V637Q356 626 399.5 570Q443 514 443 434V415H329V430Q329 467 314 494Q299 521 269 532V368L298 359Q371 335 412 294Q453 253 453 179Q453 137 439.5 103.5Q426 70 401.5 46Q377 22 343 8Q309 -6 269 -9V-88H204V-8Q113 2 64.5 57Q16 112 16 200V216H134V203Q134 115 204 95V262L167 274Q135 284 109 298.5Q83 313 63.5 334.5Q44 356 33.5 384.5Q23 413 23 451ZM332 167Q332 195 317.5 213Q303 231 269 243V93Q298 99 315 117Q332 135 332 167ZM143 465Q143 439 157 420.5Q171 402 204 390V537Q176 532 159.5 514Q143 496 143 465Z" glyph-name="dollar" horiz-adv-x="470" unicode="$" /><glyph d="M35 451Q35 530 84 581Q133 632 220 639V715H285V637Q374 626 418 570.5Q462 515 462 433V414H348V429Q348 467 332.5 494Q317 521 285 532V369L315 359Q391 335 431.5 294Q472 253 472 179Q472 137 458.5 103.5Q445 70 420 46Q395 22 361 8Q327 -6 285 -9V-88H220V-8Q126 2 77.5 57Q29 112 29 200V216H147V203Q147 113 220 95V262L182 274Q150 283 123.5 298Q97 313 77 334Q57 355 46 384Q35 413 35 451ZM351 167Q351 195 335.5 213Q320 231 285 243V93Q315 99 333 117Q351 135 351 167ZM156 465Q156 439 170.5 420.5Q185 402 220 390V537Q191 532 173.5 514Q156 496 156 465Z" glyph-name="dollar.lt" horiz-adv-x="500" /><glyph d="M118 620H247V497H118Z" glyph-name="dotaccent" horiz-adv-x="365" unicode="&#729;" /><glyph d="M118 796H247V673H118Z" glyph-name="dotaccent.cap" horiz-adv-x="365" /><glyph d="M116 -44H248V-164H116Z" glyph-name="dotbelow" horiz-adv-x="365" /><glyph d="M166 443V0H38V443Z" glyph-name="dotlessi" horiz-adv-x="204" unicode="&#305;" /><glyph d="M166 -43Q166 -109 133 -141.5Q100 -174 41 -174Q11 -174 -13 -167Q-37 -160 -54 -147L-39 -63Q-28 -71 -15 -75Q-2 -79 9 -79Q26 -79 32 -69.5Q38 -60 38 -43V443H166Z" glyph-name="dotlessj" horiz-adv-x="204" unicode="&#567;" /><glyph d="M214 -9Q168 -9 132 6.5Q96 22 70.5 51Q45 80 31.5 121Q18 162 18 213V230Q18 281 31.5 322Q45 363 69.5 392Q94 421 129.5 436.5Q165 452 209 452Q304 452 350 392Q396 332 396 230V195H141Q141 91 215 91Q277 91 279 160H393Q387 81 342 36Q297 -9 214 -9ZM276 266Q276 352 209 352Q177 352 159 330Q141 308 141 266Z" glyph-name="e" horiz-adv-x="414" unicode="e" /><glyph d="M166 490 213 626H344L255 490ZM214 -9Q168 -9 132 6.5Q96 22 70.5 51Q45 80 31.5 121Q18 162 18 213V230Q18 281 31.5 322Q45 363 69.5 392Q94 421 129.5 436.5Q165 452 209 452Q304 452 350 392Q396 332 396 230V195H141Q141 91 215 91Q277 91 279 160H393Q387 81 342 36Q297 -9 214 -9ZM276 266Q276 352 209 352Q177 352 159 330Q141 308 141 266Z" glyph-name="eacute" horiz-adv-x="414" unicode="&#233;" /><glyph d="M214 -9Q168 -9 132 6.5Q96 22 70.5 51Q45 80 31.5 121Q18 162 18 213V230Q18 281 31.5 322Q45 363 69.5 392Q94 421 129.5 436.5Q165 452 209 452Q304 452 350 392Q396 332 396 230V195H141Q141 91 215 91Q277 91 279 160H393Q387 81 342 36Q297 -9 214 -9ZM276 266Q276 352 209 352Q177 352 159 330Q141 308 141 266ZM213 486Q153 486 121 522.5Q89 559 89 625H165Q165 565 213 565Q260 565 260 625H337Q337 559 305 522.5Q273 486 213 486Z" glyph-name="ebreve" horiz-adv-x="414" unicode="&#277;" /><glyph d="M151 490 72 626H156L213 562L270 626H353L275 490ZM214 -9Q168 -9 132 6.5Q96 22 70.5 51Q45 80 31.5 121Q18 162 18 213V230Q18 281 31.5 322Q45 363 69.5 392Q94 421 129.5 436.5Q165 452 209 452Q304 452 350 392Q396 332 396 230V195H141Q141 91 215 91Q277 91 279 160H393Q387 81 342 36Q297 -9 214 -9ZM276 266Q276 352 209 352Q177 352 159 330Q141 308 141 266Z" glyph-name="ecaron" horiz-adv-x="414" unicode="&#283;" /><glyph d="M275 621 353 483H270L213 549L156 483H72L151 621ZM214 -9Q168 -9 132 6.5Q96 22 70.5 51Q45 80 31.5 121Q18 162 18 213V230Q18 281 31.5 322Q45 363 69.5 392Q94 421 129.5 436.5Q165 452 209 452Q304 452 350 392Q396 332 396 230V195H141Q141 91 215 91Q277 91 279 160H393Q387 81 342 36Q297 -9 214 -9ZM276 266Q276 352 209 352Q177 352 159 330Q141 308 141 266Z" glyph-name="ecircumflex" horiz-adv-x="414" unicode="&#234;" /><glyph d="M87 607H197V494H87ZM229 607H338V494H229ZM214 -9Q168 -9 132 6.5Q96 22 70.5 51Q45 80 31.5 121Q18 162 18 213V230Q18 281 31.5 322Q45 363 69.5 392Q94 421 129.5 436.5Q165 452 209 452Q304 452 350 392Q396 332 396 230V195H141Q141 91 215 91Q277 91 279 160H393Q387 81 342 36Q297 -9 214 -9ZM276 266Q276 352 209 352Q177 352 159 330Q141 308 141 266Z" glyph-name="edieresis" horiz-adv-x="414" unicode="&#235;" /><glyph d="M214 -9Q168 -9 132 6.5Q96 22 70.5 51Q45 80 31.5 121Q18 162 18 213V230Q18 281 31.5 322Q45 363 69.5 392Q94 421 129.5 436.5Q165 452 209 452Q304 452 350 392Q396 332 396 230V195H141Q141 91 215 91Q277 91 279 160H393Q387 81 342 36Q297 -9 214 -9ZM276 266Q276 352 209 352Q177 352 159 330Q141 308 141 266ZM149 620H278V497H149Z" glyph-name="edotaccent" horiz-adv-x="414" unicode="&#279;" /><glyph d="M214 -9Q168 -9 132 6.5Q96 22 70.5 51Q45 80 31.5 121Q18 162 18 213V230Q18 281 31.5 322Q45 363 69.5 392Q94 421 129.5 436.5Q165 452 209 452Q304 452 350 392Q396 332 396 230V195H141Q141 91 215 91Q277 91 279 160H393Q387 81 342 36Q297 -9 214 -9ZM276 266Q276 352 209 352Q177 352 159 330Q141 308 141 266ZM173 490 83 626H215L261 490Z" glyph-name="egrave" horiz-adv-x="414" unicode="&#232;" /><glyph d="M239 535Q201 535 179 513Q157 491 157 450Q157 409 179 387Q201 365 239 365Q278 365 300 387Q322 409 322 450Q322 491 300 513Q278 535 239 535ZM239 -11Q190 -11 149.5 2Q109 15 79.5 39Q50 63 34 97Q18 131 18 173Q18 231 46.5 267.5Q75 304 119 318Q78 329 52 366.5Q26 404 26 458Q26 542 82.5 591.5Q139 641 239 641Q339 641 395.5 591.5Q452 542 452 458Q452 404 426.5 366.5Q401 329 360 318Q404 304 432 267.5Q460 231 460 173Q460 131 444 97Q428 63 398.5 39Q369 15 328.5 2Q288 -11 239 -11ZM239 268Q196 268 172 245.5Q148 223 148 181Q148 139 172 116.5Q196 94 239 94Q283 94 307 116.5Q331 139 331 181Q331 223 307 245.5Q283 268 239 268Z" glyph-name="eight" horiz-adv-x="479" unicode="8" /><glyph d="M250 365Q290 365 312.5 387Q335 409 335 450Q335 491 312.5 513Q290 535 250 535Q210 535 187.5 513Q165 491 165 450Q165 409 187.5 387Q210 365 250 365ZM250 94Q295 94 320 116.5Q345 139 345 181Q345 223 320 245.5Q295 268 250 268Q205 268 180 245.5Q155 223 155 181Q155 139 180 116.5Q205 94 250 94ZM250 -11Q200 -11 159 2Q118 15 88.5 39Q59 63 42.5 97Q26 131 26 173Q26 231 54.5 267.5Q83 304 128 318Q86 329 60 366.5Q34 404 34 458Q34 542 91.5 591.5Q149 641 250 641Q351 641 408.5 591.5Q466 542 466 458Q466 404 440 366.5Q414 329 372 318Q417 304 445.5 267.5Q474 231 474 173Q474 131 457.5 97Q441 63 411.5 39Q382 15 340.5 2Q299 -11 250 -11Z" glyph-name="eight.lt" horiz-adv-x="500" /><glyph d="M30 141H170V0H30ZM213 141H354V0H213ZM397 141H538V0H397Z" glyph-name="ellipsis" horiz-adv-x="568" unicode="&#8230;" /><glyph d="M214 -9Q168 -9 132 6.5Q96 22 70.5 51Q45 80 31.5 121Q18 162 18 213V230Q18 281 31.5 322Q45 363 69.5 392Q94 421 129.5 436.5Q165 452 209 452Q304 452 350 392Q396 332 396 230V195H141Q141 91 215 91Q277 91 279 160H393Q387 81 342 36Q297 -9 214 -9ZM276 266Q276 352 209 352Q177 352 159 330Q141 308 141 266ZM97 583H327V495H97Z" glyph-name="emacron" horiz-adv-x="414" unicode="&#275;" /><glyph d="M27 299H497V212H27Z" glyph-name="emdash" horiz-adv-x="524" unicode="&#8212;" /><glyph d="M27 359H497V272H27Z" glyph-name="emdash.cap" horiz-adv-x="524" /><glyph d="M27 299H356V212H27Z" glyph-name="endash" horiz-adv-x="383" unicode="&#8211;" /><glyph d="M27 359H356V272H27Z" glyph-name="endash.cap" horiz-adv-x="383" /><glyph d="M166 0H38V443H166V389Q180 415 210.5 433.5Q241 452 285 452Q355 452 388 410.5Q421 369 421 304V-43Q421 -109 388.5 -141.5Q356 -174 297 -174Q267 -174 243 -167Q219 -160 202 -147L217 -63Q228 -71 241 -75Q254 -79 265 -79Q282 -79 287.5 -69.5Q293 -60 293 -43V263Q293 301 281.5 324Q270 347 235 347Q197 347 181.5 319Q166 291 166 249Z" glyph-name="eng" horiz-adv-x="457" unicode="&#331;" /><glyph d="M227 -8Q224 -9 216 -9Q170 -9 133 6.5Q96 22 70.5 51Q45 80 31.5 121Q18 162 18 213V230Q18 281 31.5 322Q45 363 69.5 392Q94 421 129.5 436.5Q165 452 209 452Q304 452 350 392Q396 332 396 230V195H141Q141 91 215 91Q277 91 279 160H393Q389 115 373.5 83.5Q358 52 330 26Q295 -6 281 -26.5Q267 -47 267 -69Q267 -94 293 -94Q308 -94 326 -87V-153Q314 -161 300 -165.5Q286 -170 266 -170Q234 -170 210.5 -151.5Q187 -133 187 -95Q187 -69 198 -48Q209 -27 227 -8ZM276 266Q276 352 209 352Q177 352 159 330Q141 308 141 266Z" glyph-name="eogonek" horiz-adv-x="414" unicode="&#281;" /><glyph d="M44 268H468V179H44ZM44 435H468V344H44Z" glyph-name="equal" horiz-adv-x="511" unicode="=" /><glyph d="M38 268H461V179H38ZM38 435H461V344H38Z" glyph-name="equal.lt" horiz-adv-x="500" /><glyph d="M95 514 168 540Q132 571 95 595L196 642Q238 614 274 577L361 608L383 548L318 525Q363 462 386.5 389.5Q410 317 410 238V213Q410 162 396.5 121Q383 80 357.5 51Q332 22 296 6.5Q260 -9 214 -9Q122 -9 70 50Q18 109 18 212V227Q18 276 31 315Q44 354 68 381.5Q92 409 125.5 423.5Q159 438 200 438Q219 438 236 433Q253 428 264 417Q248 453 217 489L117 454ZM214 90Q250 90 266.5 118Q283 146 283 194V237Q283 285 266.5 313Q250 341 214 341Q178 341 161.5 313Q145 285 145 237V194Q145 146 161.5 118Q178 90 214 90Z" glyph-name="eth" horiz-adv-x="428" unicode="&#240;" /><glyph d="M30 141H171V0H30ZM169 630V462L139 190H63L32 462V630Z" glyph-name="exclam" horiz-adv-x="201" unicode="!" /><glyph d="M30 518H171V377H30ZM32 -112V56L63 328H139L169 56V-112Z" glyph-name="exclamdown" horiz-adv-x="201" unicode="&#161;" /><glyph d="M30 489.0086H171V630H30ZM169 0.0385V168.0282L139 440.0116H63L32 168.0282V0.0385Z" glyph-name="exclamdown.cap" horiz-adv-x="201" /><glyph d="M273 532Q261 537 250.5 539.5Q240 542 226 542Q183 542 183 492V443H260V353H183V0H56V353H3V443H56V491Q56 562 92 601.5Q128 641 204 641Q230 641 250 637Q270 633 284 627Z" glyph-name="f" horiz-adv-x="264" unicode="f" /><glyph d="M273 533Q261 538 250.5 540Q240 542 226 542Q183 542 183 492V443H260V353H183V0H56V353H3V443H56V491Q56 562 91.5 601.5Q127 641 199 641Q222 641 240.5 637.5Q259 634 273 629ZM577 242Q577 351 504 351Q469 351 450.5 325.5Q432 300 432 258V185Q432 143 450.5 118Q469 93 504 93Q577 93 577 201ZM418 0H304V630H432V388Q448 416 476.5 434Q505 452 549 452Q625 452 664.5 396Q704 340 704 237V206Q704 103 664.5 47Q625 -9 549 -9Q505 -9 476.5 9Q448 27 432 55Z" glyph-name="f_b" horiz-adv-x="722" /><glyph d="M521 533Q498 542 475 542Q431 542 431 492V443H509V353H431V0H304V353H183V0H56V353H3V443H56V482Q56 553 92 592.5Q128 632 204 632Q230 632 250 628Q270 624 284 618L273 523Q261 528 250.5 531Q240 534 226 534Q183 534 183 483V443H304V491Q304 562 339.5 601.5Q375 641 448 641Q471 641 490.5 637.5Q510 634 524 629ZM826 242Q826 351 753 351Q718 351 699.5 325.5Q681 300 681 258V185Q681 143 699.5 118Q718 93 753 93Q826 93 826 201ZM667 0H553V630H681V388Q697 416 725.5 434Q754 452 798 452Q874 452 913.5 396Q953 340 953 237V206Q953 103 913.5 47Q874 -9 798 -9Q754 -9 725.5 9Q697 27 681 55Z" glyph-name="f_f_b" horiz-adv-x="970" /><glyph d="M521 533Q498 542 475 542Q431 542 431 492V443H509V353H431V0H304V353H183V0H56V353H3V443H56V482Q56 553 92 592.5Q128 632 204 632Q230 632 250 628Q270 624 284 618L273 523Q261 528 250.5 531Q240 534 226 534Q183 534 183 483V443H304V491Q304 562 339.5 601.5Q375 641 448 641Q471 641 490.5 637.5Q510 634 524 629ZM681 389Q695 415 725.5 433.5Q756 452 800 452Q870 452 903 410.5Q936 369 936 304V0H808V263Q808 301 796.5 324Q785 347 750 347Q712 347 696.5 319Q681 291 681 249V0H553V630H681Z" glyph-name="f_f_h" horiz-adv-x="972" /><glyph d="M304 491Q304 562 339.5 601.5Q375 641 448 641Q470 641 488.5 637.5Q507 634 521 629V533Q498 542 475 542Q431 542 431 492V443H509V353H431V0H304V353H183V0H56V353H3V443H56V482Q56 553 92 592.5Q128 632 204 632Q230 632 250 628Q270 624 284 618L273 523Q261 528 250.5 531Q240 534 226 534Q183 534 183 483V443H304ZM681 -43Q681 -109 648 -141.5Q615 -174 556 -174Q526 -174 502 -167Q478 -160 461 -147L476 -63Q487 -71 500 -75Q513 -79 524 -79Q541 -79 547 -69.5Q553 -60 553 -43V443H681ZM553 620H681V497H553Z" glyph-name="f_f_j" horiz-adv-x="719" /><glyph d="M431 353V0H304V353H183V0H56V353H3V443H56V482Q56 553 92 592.5Q128 632 204 632Q230 632 250 628Q270 624 284 618L273 523Q261 528 250.5 531Q240 534 226 534Q183 534 183 483V443H304V491Q304 562 339.5 601.5Q375 641 448 641Q470 641 488.5 637.5Q507 634 521 629V533Q498 542 475 542Q431 542 431 492V443H509V353ZM681 0H553V630H681V258L813 443H943L807 258L949 0H810L717 167L681 117Z" glyph-name="f_f_k" horiz-adv-x="950" /><glyph d="M273 533Q261 538 250.5 540Q240 542 226 542Q183 542 183 492V443H260V353H183V0H56V353H3V443H56V491Q56 562 91.5 601.5Q127 641 199 641Q222 641 240.5 637.5Q259 634 273 629ZM432 389Q446 415 476.5 433.5Q507 452 551 452Q621 452 654 410.5Q687 369 687 304V0H559V263Q559 301 547.5 324Q536 347 501 347Q463 347 447.5 319Q432 291 432 249V0H304V630H432Z" glyph-name="f_h" horiz-adv-x="723" /><glyph d="M273 533Q261 538 250.5 540Q240 542 226 542Q183 542 183 492V443H260V353H183V0H56V353H3V443H56V491Q56 562 91.5 601.5Q127 641 199 641Q222 641 240.5 637.5Q259 634 273 629ZM432 -43Q432 -109 399 -141.5Q366 -174 307 -174Q277 -174 253 -167Q229 -160 212 -147L227 -63Q238 -71 251 -75Q264 -79 275 -79Q292 -79 298 -69.5Q304 -60 304 -43V443H432ZM304 620H432V497H304Z" glyph-name="f_j" horiz-adv-x="470" /><glyph d="M273 533Q261 538 250.5 540Q240 542 226 542Q183 542 183 492V443H260V353H183V0H56V353H3V443H56V491Q56 562 91.5 601.5Q127 641 199 641Q222 641 240.5 637.5Q259 634 273 629ZM432 0H304V630H432V258L564 443H694L558 258L700 0H561L468 167L432 117Z" glyph-name="f_k" horiz-adv-x="702" /><glyph d="M521 532Q510 537 499 539.5Q488 542 475 542Q431 542 431 492V443H509V353H431V0H304V353H183V0H56V353H3V443H56V482Q56 553 92 592.5Q128 632 204 632Q230 632 250 628Q270 624 284 618L273 523Q261 528 250.5 531Q240 534 226 534Q183 534 183 483V443H304V491Q304 562 340 601.5Q376 641 453 641Q479 641 498.5 637Q518 633 532 627Z" glyph-name="ff" horiz-adv-x="513" unicode="&#64256;" /><glyph d="M304 491Q304 562 339.5 601.5Q375 641 448 641Q470 641 488.5 637.5Q507 634 521 629V533Q498 542 475 542Q431 542 431 492V443H509V353H431V0H304V353H183V0H56V353H3V443H56V482Q56 553 92 592.5Q128 632 204 632Q230 632 250 628Q270 624 284 618L273 523Q261 528 250.5 531Q240 534 226 534Q183 534 183 483V443H304ZM681 443V0H553V443ZM553 620H681V497H553Z" glyph-name="ffi" horiz-adv-x="719" unicode="&#64259;" /><glyph d="M431 353V0H304V353H183V0H56V353H3V443H56V482Q56 553 92 592.5Q128 632 204 632Q230 632 250 628Q270 624 284 618L273 523Q261 528 250.5 531Q240 534 226 534Q183 534 183 483V443H304V491Q304 562 339.5 601.5Q375 641 448 641Q470 641 488.5 637.5Q507 634 521 629V533Q498 542 475 542Q431 542 431 492V443H509V353ZM681 630V0H553V630Z" glyph-name="ffl" horiz-adv-x="719" unicode="&#64260;" /><glyph d="M273 533Q261 538 250.5 540Q240 542 226 542Q183 542 183 492V443H260V353H183V0H56V353H3V443H56V491Q56 562 91.5 601.5Q127 641 199 641Q222 641 240.5 637.5Q259 634 273 629ZM432 443V0H304V443ZM304 620H432V497H304Z" glyph-name="fi" horiz-adv-x="470" unicode="&#64257;" /><glyph d="M233 321Q201 321 180 304.5Q159 288 151 266L26 275Q31 310 36 355Q41 400 45 448Q49 496 52 543.5Q55 591 56 630H411V512H156Q156 500 155 481.5Q154 463 152.5 443Q151 423 149.5 405Q148 387 146 377Q160 397 190.5 410.5Q221 424 263 424Q303 424 337 411Q371 398 396 371.5Q421 345 435 305Q449 265 449 211Q449 107 391.5 48Q334 -11 233 -11Q127 -11 73 47Q19 105 19 203V222H145V206Q145 154 167.5 125Q190 96 233 96Q321 96 321 208Q321 263 298.5 292Q276 321 233 321Z" glyph-name="five" horiz-adv-x="463" unicode="5" /><glyph d="M249 321Q215 321 193.5 304.5Q172 288 163 266L39 275Q44 310 49 355Q54 400 58 448Q62 496 65 543.5Q68 591 69 630H429V512H169Q169 500 168 481.5Q167 463 165.5 443Q164 423 162.5 405Q161 387 159 377Q173 397 204 410.5Q235 424 278 424Q319 424 353.5 411Q388 398 413.5 371.5Q439 345 453 305Q467 265 467 211Q467 107 409 48Q351 -11 248 -11Q141 -11 86 47Q31 105 31 203V222H157V206Q157 154 180.5 125Q204 96 249 96Q292 96 316 124.5Q340 153 340 208Q340 263 316 292Q292 321 249 321Z" glyph-name="five.lt" horiz-adv-x="500" /><glyph d="M273 533Q261 538 250.5 540Q240 542 226 542Q183 542 183 492V443H260V353H183V0H56V353H3V443H56V491Q56 562 91.5 601.5Q127 641 199 641Q222 641 240.5 637.5Q259 634 273 629ZM432 630V0H304V630Z" glyph-name="fl" horiz-adv-x="470" unicode="&#64258;" /><glyph d="M273 375H354V276H254L206 26Q192 -50 150.5 -87.5Q109 -125 44 -125Q33 -125 21.5 -123.5Q10 -122 -2 -120V-20Q4 -22 9.5 -22Q15 -22 20 -22Q54 -22 66.5 1Q79 24 87 66L127 276H59V375H146L168 488Q182 563 225 602Q268 641 329 641Q353 641 383 633V534Q376 535 370 535.5Q364 536 359 536Q324 536 309.5 512.5Q295 489 287 448Z" glyph-name="florin" horiz-adv-x="401" unicode="&#402;" /><glyph d="M332 375H413V276H313L266 26Q252 -50 210 -87.5Q168 -125 103 -125Q92 -125 80.5 -123.5Q69 -122 57 -120V-20Q64 -22 69 -22Q74 -22 79 -22Q113 -22 125.5 1Q138 24 146 66L187 276H118V375H206L228 488Q242 563 285 602Q328 641 388 641Q413 641 443 633V534Q435 535 429 535.5Q423 536 418 536Q384 536 369 512.5Q354 489 346 448Z" glyph-name="florin.lt" horiz-adv-x="500" /><glyph d="M421 244H493V140H421V0H293V140H10V241L295 630H421ZM131 244H293V472Z" glyph-name="four" horiz-adv-x="503" unicode="4" /><glyph d="M415 244H484V140H415V0H290V140H17V241L292 630H415ZM134 244H290V467Z" glyph-name="four.lt" horiz-adv-x="500" /><glyph d="M345 630H427L82 0H0Z" glyph-name="fraction" horiz-adv-x="427" unicode="&#8260;" /><glyph d="M378 294Q378 260 364.5 233Q351 206 327.5 187Q304 168 271.5 158Q239 148 201 148Q181 148 162.5 150.5Q144 153 127 159Q121 150 121 139Q121 126 129.5 118Q138 110 156 110H279Q351 110 386 77.5Q421 45 421 -15Q421 -56 403.5 -85Q386 -114 355.5 -133.5Q325 -153 284 -162Q243 -171 196 -171Q154 -171 117.5 -165Q81 -159 54.5 -145.5Q28 -132 12.5 -111Q-3 -90 -3 -60Q-3 -28 17 -6Q37 16 72 21Q49 29 35 49.5Q21 70 21 99Q21 128 36 148Q51 168 80 184Q54 203 39.5 231Q25 259 25 294V306Q25 340 38.5 367Q52 394 75.5 413Q99 432 131 442Q163 452 201 452Q272 452 320 418Q337 444 364 459.5Q391 475 420 475V375Q393 375 364 367Q378 339 378 306ZM106 -41Q106 -90 196 -90Q247 -90 277 -77.5Q307 -65 307 -38Q307 -18 294 -8.5Q281 1 259 1H156Q130 1 118 -10Q106 -21 106 -41ZM148 295Q148 266 161 248Q174 230 201 230Q229 230 242 248Q255 266 255 295V305Q255 334 242 352Q229 370 201 370Q174 370 161 352Q148 334 148 305Z" glyph-name="g" horiz-adv-x="420" unicode="g" /><glyph d="M378 294Q378 260 364.5 233Q351 206 327.5 187Q304 168 271.5 158Q239 148 201 148Q181 148 162.5 150.5Q144 153 127 159Q121 150 121 139Q121 126 129.5 118Q138 110 156 110H279Q351 110 386 77.5Q421 45 421 -15Q421 -56 403.5 -85Q386 -114 355.5 -133.5Q325 -153 284 -162Q243 -171 196 -171Q154 -171 117.5 -165Q81 -159 54.5 -145.5Q28 -132 12.5 -111Q-3 -90 -3 -60Q-3 -28 17 -6Q37 16 72 21Q49 29 35 49.5Q21 70 21 99Q21 128 36 148Q51 168 80 184Q54 203 39.5 231Q25 259 25 294V306Q25 340 38.5 367Q52 394 75.5 413Q99 432 131 442Q163 452 201 452Q272 452 320 418Q337 444 364 459.5Q391 475 420 475V375Q393 375 364 367Q378 339 378 306ZM106 -41Q106 -90 196 -90Q247 -90 277 -77.5Q307 -65 307 -38Q307 -18 294 -8.5Q281 1 259 1H156Q130 1 118 -10Q106 -21 106 -41ZM148 295Q148 266 161 248Q174 230 201 230Q229 230 242 248Q255 266 255 295V305Q255 334 242 352Q229 370 201 370Q174 370 161 352Q148 334 148 305ZM210 486Q150 486 118 522.5Q86 559 86 625H162Q162 565 210 565Q257 565 257 625H334Q334 559 302 522.5Q270 486 210 486Z" glyph-name="gbreve" horiz-adv-x="420" unicode="&#287;" /><glyph d="M272 621 350 483H267L210 549L153 483H69L148 621ZM378 294Q378 260 364.5 233Q351 206 327.5 187Q304 168 271.5 158Q239 148 201 148Q181 148 162.5 150.5Q144 153 127 159Q121 150 121 139Q121 126 129.5 118Q138 110 156 110H279Q351 110 386 77.5Q421 45 421 -15Q421 -56 403.5 -85Q386 -114 355.5 -133.5Q325 -153 284 -162Q243 -171 196 -171Q154 -171 117.5 -165Q81 -159 54.5 -145.5Q28 -132 12.5 -111Q-3 -90 -3 -60Q-3 -28 17 -6Q37 16 72 21Q49 29 35 49.5Q21 70 21 99Q21 128 36 148Q51 168 80 184Q54 203 39.5 231Q25 259 25 294V306Q25 340 38.5 367Q52 394 75.5 413Q99 432 131 442Q163 452 201 452Q272 452 320 418Q337 444 364 459.5Q391 475 420 475V375Q393 375 364 367Q378 339 378 306ZM106 -41Q106 -90 196 -90Q247 -90 277 -77.5Q307 -65 307 -38Q307 -18 294 -8.5Q281 1 259 1H156Q130 1 118 -10Q106 -21 106 -41ZM148 295Q148 266 161 248Q174 230 201 230Q229 230 242 248Q255 266 255 295V305Q255 334 242 352Q229 370 201 370Q174 370 161 352Q148 334 148 305Z" glyph-name="gcircumflex" horiz-adv-x="420" unicode="&#285;" /><glyph d="M269 494H151V557Q151 656 270 656V612Q245 612 234 604.5Q223 597 222 578H269ZM378 294Q378 260 364.5 233Q351 206 327.5 187Q304 168 271.5 158Q239 148 201 148Q181 148 162.5 150.5Q144 153 127 159Q121 150 121 139Q121 126 129.5 118Q138 110 156 110H279Q351 110 386 77.5Q421 45 421 -15Q421 -56 403.5 -85Q386 -114 355.5 -133.5Q325 -153 284 -162Q243 -171 196 -171Q154 -171 117.5 -165Q81 -159 54.5 -145.5Q28 -132 12.5 -111Q-3 -90 -3 -60Q-3 -28 17 -6Q37 16 72 21Q49 29 35 49.5Q21 70 21 99Q21 128 36 148Q51 168 80 184Q54 203 39.5 231Q25 259 25 294V306Q25 340 38.5 367Q52 394 75.5 413Q99 432 131 442Q163 452 201 452Q272 452 320 418Q337 444 364 459.5Q391 475 420 475V375Q393 375 364 367Q378 339 378 306ZM106 -41Q106 -90 196 -90Q247 -90 277 -77.5Q307 -65 307 -38Q307 -18 294 -8.5Q281 1 259 1H156Q130 1 118 -10Q106 -21 106 -41ZM148 295Q148 266 161 248Q174 230 201 230Q229 230 242 248Q255 266 255 295V305Q255 334 242 352Q229 370 201 370Q174 370 161 352Q148 334 148 305Z" glyph-name="gcommaaccent" horiz-adv-x="420" unicode="&#291;" /><glyph d="M378 294Q378 260 364.5 233Q351 206 327.5 187Q304 168 271.5 158Q239 148 201 148Q181 148 162.5 150.5Q144 153 127 159Q121 150 121 139Q121 126 129.5 118Q138 110 156 110H279Q351 110 386 77.5Q421 45 421 -15Q421 -56 403.5 -85Q386 -114 355.5 -133.5Q325 -153 284 -162Q243 -171 196 -171Q154 -171 117.5 -165Q81 -159 54.5 -145.5Q28 -132 12.5 -111Q-3 -90 -3 -60Q-3 -28 17 -6Q37 16 72 21Q49 29 35 49.5Q21 70 21 99Q21 128 36 148Q51 168 80 184Q54 203 39.5 231Q25 259 25 294V306Q25 340 38.5 367Q52 394 75.5 413Q99 432 131 442Q163 452 201 452Q272 452 320 418Q337 444 364 459.5Q391 475 420 475V375Q393 375 364 367Q378 339 378 306ZM106 -41Q106 -90 196 -90Q247 -90 277 -77.5Q307 -65 307 -38Q307 -18 294 -8.5Q281 1 259 1H156Q130 1 118 -10Q106 -21 106 -41ZM148 295Q148 266 161 248Q174 230 201 230Q229 230 242 248Q255 266 255 295V305Q255 334 242 352Q229 370 201 370Q174 370 161 352Q148 334 148 305ZM145 620H274V497H145Z" glyph-name="gdotaccent" horiz-adv-x="420" unicode="&#289;" /><glyph d="M422 477Q422 429 401.5 394.5Q381 360 349 346Q390 331 418.5 290Q447 249 447 182Q447 137 433.5 102.5Q420 68 396.5 44.5Q373 21 341 8.5Q309 -4 271 -4Q251 -4 236 -1.5Q221 1 208 6V104Q218 101 228 99.5Q238 98 245 98Q283 98 305 122.5Q327 147 327 194Q327 239 304 263Q281 287 244 287Q234 287 227 286.5Q220 286 211 285V393Q218 392 224 392Q230 392 239 392Q269 392 285.5 410.5Q302 429 302 465Q302 499 285.5 519Q269 539 239 539Q199 539 182.5 510.5Q166 482 166 437V0H38V428Q38 527 90 584Q142 641 236 641Q321 641 371.5 597Q422 553 422 477Z" glyph-name="germandbls" horiz-adv-x="465" unicode="&#223;" /><glyph d="M183 490 93 626H225L271 490Z" glyph-name="grave" horiz-adv-x="365" unicode="`" /><glyph d="M183 666 93 802H225L271 666Z" glyph-name="grave.cap" horiz-adv-x="365" /><glyph d="M353 236 31 93V206L263 303L31 400V513L353 370Z" glyph-name="greater" horiz-adv-x="380" unicode="&gt;" /><glyph d="M411 236 89 93V206L321 303L89 400V513L411 370Z" glyph-name="greater.lt" horiz-adv-x="500" /><glyph d="M355 71H33V168H355ZM355 304 33 190V297L256 369L33 439V546L355 433Z" glyph-name="greaterequal" horiz-adv-x="388" unicode="&#8805;" /><glyph d="M411 71H89V168H411ZM411 304 89 190V297L311 369L89 439V546L411 433Z" glyph-name="greaterequal.lt" horiz-adv-x="500" /><glyph d="M25 284 206 410V291L110 224L206 157V37L25 163ZM228 284 409 410V291L313 224L409 157V37L228 163Z" glyph-name="guillemotleft" horiz-adv-x="434" unicode="&#171;" /><glyph d="M25 377 206 503V383L110 316L206 250V130L25 256ZM228 377 409 503V383L313 316L409 250V130L228 256Z" glyph-name="guillemotleft.cap" horiz-adv-x="434" /><glyph d="M206 163 25 37V157L121 224L25 291V410L206 284ZM409 163 228 37V157L324 224L228 291V410L409 284Z" glyph-name="guillemotright" horiz-adv-x="434" unicode="&#187;" /><glyph d="M206 256 25 130V250L121 316L25 383V503L206 377ZM409 256 228 130V250L324 316L228 383V503L409 377Z" glyph-name="guillemotright.cap" horiz-adv-x="434" /><glyph d="M25 284 206 410V291L110 224L206 157V37L25 163Z" glyph-name="guilsinglleft" horiz-adv-x="231" unicode="&#8249;" /><glyph d="M25 377 206 503V383L110 316L206 250V130L25 256Z" glyph-name="guilsinglleft.cap" horiz-adv-x="231" /><glyph d="M206 163 25 37V157L121 224L25 291V410L206 284Z" glyph-name="guilsinglright" horiz-adv-x="231" unicode="&#8250;" /><glyph d="M206 256 25 130V250L121 316L25 383V503L206 377Z" glyph-name="guilsinglright.cap" horiz-adv-x="231" /><glyph d="M166 389Q180 415 210.5 433.5Q241 452 285 452Q355 452 388 410.5Q421 369 421 304V0H293V263Q293 301 281.5 324Q270 347 235 347Q197 347 181.5 319Q166 291 166 249V0H38V630H166Z" glyph-name="h" horiz-adv-x="457" unicode="h" /><glyph d="M8 565H45V630H173V565H253V486H173V389Q187 415 217.5 433.5Q248 452 292 452Q362 452 395 410.5Q428 369 428 304V0H300V263Q300 301 288 324Q276 347 241 347Q204 347 188.5 319Q173 291 173 249V0H45V486H8Z" glyph-name="hbar" horiz-adv-x="464" unicode="&#295;" /><glyph d="M166 389Q180 415 210.5 433.5Q241 452 285 452Q355 452 388 410.5Q421 369 421 304V0H293V263Q293 301 281.5 324Q270 347 235 347Q197 347 181.5 319Q166 291 166 249V0H38V630H166ZM292 801 370 663H286L229 729L172 663H88L166 801Z" glyph-name="hcircumflex" horiz-adv-x="457" unicode="&#293;" /><glyph d="M33 490 73 626H192L111 490ZM170 490 210 626H331L249 490Z" glyph-name="hungarumlaut" horiz-adv-x="365" unicode="&#733;" /><glyph d="M33 666 73 802H192L111 666ZM170 666 210 802H331L249 666Z" glyph-name="hungarumlaut.cap" horiz-adv-x="365" /><glyph d="M27 312H239V200H27Z" glyph-name="hyphen" horiz-adv-x="266" unicode="-" /><glyph d="M27 373H239V261H27Z" glyph-name="hyphen.cap" horiz-adv-x="266" /><glyph d="M166 443V0H38V443ZM38 620H166V497H38Z" glyph-name="i" horiz-adv-x="204" unicode="i" /><glyph d="M56 490 103 626H234L145 490ZM166 443V0H38V443Z" glyph-name="iacute" horiz-adv-x="204" unicode="&#237;" /><glyph d="M102 486Q44 486 17.5 522.5Q-9 559 -9 625H66Q66 596 74 580.5Q82 565 102 565Q122 565 130 580.5Q138 596 138 625H214Q214 559 187.5 522.5Q161 486 102 486ZM166 443V0H38V443Z" glyph-name="ibreve" horiz-adv-x="204" unicode="&#301;" /><glyph d="M165 625 231 487H147L102 553L57 487H-26L40 625ZM166 443V0H38V443Z" glyph-name="icircumflex" horiz-adv-x="204" unicode="&#238;" /><glyph d="M-17 607H87V494H-17ZM118 607H222V494H118ZM166 443V0H38V443Z" glyph-name="idieresis" horiz-adv-x="204" unicode="&#239;" /><glyph d="M166 443V0H38V443ZM39 620H168V497H39Z" glyph-name="idotaccent" horiz-adv-x="204" /><glyph d="M166 443V0H38V443ZM62 490 -28 626H104L150 490Z" glyph-name="igrave" horiz-adv-x="204" unicode="&#236;" /><glyph d="M166 443V0H38V443ZM38 620H166V497H38ZM360 -43Q360 -109 327 -141.5Q294 -174 235 -174Q205 -174 181 -167Q157 -160 140 -147L155 -63Q166 -71 179 -75Q192 -79 203 -79Q220 -79 226 -69.5Q232 -60 232 -43V443H360ZM232 620H360V497H232Z" glyph-name="ij" horiz-adv-x="398" unicode="&#307;" /><glyph d="M166 443V0H38V443ZM3.0525 583H202.3372V495H3.0525Z" glyph-name="imacron" horiz-adv-x="204" unicode="&#299;" /><glyph d="M38 620H166V497H38ZM38 0V443H166V0Q134 -21 121.5 -37Q109 -53 109 -69Q109 -94 134 -94Q148 -94 166 -87V-153Q155 -161 141.5 -165.5Q128 -170 108 -170Q76 -170 52.5 -151.5Q29 -133 29 -95Q29 -67 43 -43.5Q57 -20 81 0Z" glyph-name="iogonek" horiz-adv-x="204" unicode="&#303;" /><glyph d="M-24 491Q-24 551 -4.5 587Q15 623 59 623Q76 623 86.5 616Q97 609 104.5 601Q112 593 119 586Q126 579 137 579Q148 579 155 588.5Q162 598 164 620H228Q228 560 208.5 524Q189 488 146 488Q128 488 117.5 495Q107 502 99.5 510Q92 518 85 525Q78 532 67 532Q56 532 49 522.5Q42 513 40 491ZM166 443V0H38V443Z" glyph-name="itilde" horiz-adv-x="204" unicode="&#297;" /><glyph d="M166 -43Q166 -109 133 -141.5Q100 -174 41 -174Q11 -174 -13 -167Q-37 -160 -54 -147L-39 -63Q-28 -71 -15 -75Q-2 -79 9 -79Q26 -79 32 -69.5Q38 -60 38 -43V443H166ZM38 620H166V497H38Z" glyph-name="j" horiz-adv-x="204" unicode="j" /><glyph d="M165 625 231 487H147L102 553L57 487H-26L40 625ZM166 -43Q166 -109 133 -141.5Q100 -174 41 -174Q11 -174 -13 -167Q-37 -160 -54 -147L-39 -63Q-28 -71 -15 -75Q-2 -79 9 -79Q26 -79 32 -69.5Q38 -60 38 -43V443H166Z" glyph-name="jcircumflex" horiz-adv-x="204" unicode="&#309;" /><glyph d="M166 0H38V630H166V258L298 443H428L292 258L434 0H295L202 167L166 117Z" glyph-name="k" horiz-adv-x="435" unicode="k" /><glyph d="M166 -35H284V-102Q284 -201 165 -201V-156Q190 -156 201 -149Q212 -142 213 -122H166ZM166 0H38V630H166V258L298 443H428L292 258L434 0H295L202 167L166 117Z" glyph-name="kcommaaccent" horiz-adv-x="435" unicode="&#311;" /><glyph d="M166 0H38V443H166V258L298 443H428L292 258L434 0H295L202 167L166 117Z" glyph-name="kgreenlandic" horiz-adv-x="435" unicode="&#312;" /><glyph d="M166 630V0H38V630Z" glyph-name="l" horiz-adv-x="204" unicode="l" /><glyph d="M57 666 104 802H235L146 666ZM166 630V0H38V630Z" glyph-name="lacute" horiz-adv-x="204" unicode="&#314;" /><glyph d="M189 489 203 630H331L267 489ZM166 630V0H38V630Z" glyph-name="lcaron" horiz-adv-x="204" unicode="&#318;" /><glyph d="M45 -35H163V-102Q163 -201 44 -201V-156Q69 -156 80 -149Q91 -142 92 -122H45ZM166 630V0H38V630Z" glyph-name="lcommaaccent" horiz-adv-x="204" unicode="&#316;" /><glyph d="M166 630V0H38V630ZM202.5109 367H324.4168V244H202.5109Z" glyph-name="ldot" horiz-adv-x="324" unicode="&#320;" /><glyph d="M26 370 349 513V400L116 303L349 206V93L26 236Z" glyph-name="less" horiz-adv-x="380" unicode="&lt;" /><glyph d="M88 370 411 513V400L178 303L411 206V93L88 236Z" glyph-name="less.lt" horiz-adv-x="500" /><glyph d="M33 168H355V71H33ZM33 433 355 546V439L131 369L355 297V190L33 304Z" glyph-name="lessequal" horiz-adv-x="388" unicode="&#8804;" /><glyph d="M89 168H411V71H89ZM89 433 411 546V439L187 369L411 297V190L89 304Z" glyph-name="lessequal.lt" horiz-adv-x="500" /><glyph d="M9 322 60 349V630H188V410L239 438V343L188 316V0H60V254L9 227Z" glyph-name="lslash" horiz-adv-x="248" unicode="&#322;" /><glyph d="M413 0H285V265Q285 302 274.5 324.5Q264 347 230 347Q211 347 199 338.5Q187 330 179.5 316.5Q172 303 169 286Q166 269 166 251V0H38V443H166V389Q180 417 210.5 434.5Q241 452 281 452Q329 452 357 433Q385 414 399 388Q417 414 447.5 433Q478 452 524 452Q561 452 587 440.5Q613 429 629 409.5Q645 390 652 363.5Q659 337 659 307V0H531V265Q531 302 520.5 324.5Q510 347 476 347Q457 347 445 338.5Q433 330 426 316.5Q419 303 416 286Q413 269 413 251Z" glyph-name="m" horiz-adv-x="695" unicode="m" /><glyph d="M67 583H297V495H67Z" glyph-name="macron" horiz-adv-x="365" unicode="&#175;" /><glyph d="M67 759H297V671H67Z" glyph-name="macron.cap" horiz-adv-x="365" /><glyph d="M36 354H459V256H36Z" glyph-name="minus" horiz-adv-x="495" unicode="&#8722;" /><glyph d="M39 354H461V256H39Z" glyph-name="minus.lt" horiz-adv-x="500" /><glyph d="M29 420 97 488 213 370 330 488 398 420 281 304 398 186 330 119 213 236 97 119 29 186 148 304Z" glyph-name="multiply" horiz-adv-x="428" unicode="&#215;" /><glyph d="M65 420 133 488 249 370 366 488 434 420 316 304 434 186 366 119 249 236 133 119 65 186 184 304Z" glyph-name="multiply.lt" horiz-adv-x="500" /><glyph d="M166 0H38V443H166V389Q180 415 210.5 433.5Q241 452 285 452Q355 452 388 410.5Q421 369 421 304V0H293V263Q293 301 281.5 324Q270 347 235 347Q197 347 181.5 319Q166 291 166 249Z" glyph-name="n" horiz-adv-x="457" unicode="n" /><glyph d="M187 490 234 626H365L276 490ZM166 0H38V443H166V389Q180 415 210.5 433.5Q241 452 285 452Q355 452 388 410.5Q421 369 421 304V0H293V263Q293 301 281.5 324Q270 347 235 347Q197 347 181.5 319Q166 291 166 249Z" glyph-name="nacute" horiz-adv-x="457" unicode="&#324;" /><glyph d="M172 490 93 626H177L234 562L291 626H374L296 490ZM166 0H38V443H166V389Q180 415 210.5 433.5Q241 452 285 452Q355 452 388 410.5Q421 369 421 304V0H293V263Q293 301 281.5 324Q270 347 235 347Q197 347 181.5 319Q166 291 166 249Z" glyph-name="ncaron" horiz-adv-x="457" unicode="&#328;" /><glyph d="M175 -35H293V-102Q293 -201 174 -201V-156Q199 -156 210 -149Q221 -142 222 -122H175ZM166 0H38V443H166V389Q180 415 210.5 433.5Q241 452 285 452Q355 452 388 410.5Q421 369 421 304V0H293V263Q293 301 281.5 324Q270 347 235 347Q197 347 181.5 319Q166 291 166 249Z" glyph-name="ncommaaccent" horiz-adv-x="457" unicode="&#326;" /><glyph d="M232 641Q292 641 335.5 618.5Q379 596 407.5 555.5Q436 515 450 458.5Q464 402 464 334V307Q464 234 448.5 175Q433 116 403.5 75Q374 34 330 11.5Q286 -11 229 -11Q179 -11 141.5 4.5Q104 20 78.5 47.5Q53 75 39.5 112.5Q26 150 25 195H148Q150 151 169 124Q188 97 229 97Q286 97 310.5 151Q335 205 335 296Q318 265 282.5 246.5Q247 228 203 228Q161 228 126.5 242Q92 256 67.5 281.5Q43 307 29.5 343.5Q16 380 16 425Q16 474 32 514Q48 554 76.5 582.5Q105 611 144.5 626Q184 641 232 641ZM325 431Q325 477 301 505Q277 533 233 533Q191 533 167 505Q143 477 143 431Q143 383 167 355Q191 327 233 327Q278 327 301.5 355Q325 383 325 431Z" glyph-name="nine" horiz-adv-x="486" unicode="9" /><glyph d="M241 641Q301 641 345.5 618.5Q390 596 419 555.5Q448 515 462 458.5Q476 402 476 334V307Q476 235 460.5 176.5Q445 118 415 76Q385 34 340.5 11.5Q296 -11 238 -11Q187 -11 149 4.5Q111 20 85.5 47.5Q60 75 46.5 112.5Q33 150 32 195H155Q157 151 177 124Q197 97 238 97Q267 97 288 111.5Q309 126 322 152.5Q335 179 341 215.5Q347 252 347 297Q330 265 293.5 246.5Q257 228 212 228Q169 228 134 242Q99 256 74 281.5Q49 307 35.5 343.5Q22 380 22 425Q22 474 38 514Q54 554 83 582.5Q112 611 152.5 626Q193 641 241 641ZM336 431Q336 477 311.5 505Q287 533 242 533Q199 533 174 505Q149 477 149 431Q149 383 174 355Q199 327 242 327Q287 327 311.5 355Q336 383 336 431Z" glyph-name="nine.lt" horiz-adv-x="500" /><glyph glyph-name="nonmarkingreturn" horiz-adv-x="221" unicode="" /><glyph d="M44 433H296L357 526H441L380 433H468V346H323L271 267H468V180H214L153 87H70L131 180H44V267H188L239 346H44Z" glyph-name="notequal" horiz-adv-x="511" unicode="&#8800;" /><glyph d="M38 433H290L351 526H435L374 433H461V346H317L265 267H461V180H208L147 87H64L125 180H38V267H182L233 346H38Z" glyph-name="notequal.lt" horiz-adv-x="500" /><glyph d="M166 0H38V443H166V389Q180 415 210.5 433.5Q241 452 285 452Q355 452 388 410.5Q421 369 421 304V0H293V263Q293 301 281.5 324Q270 347 235 347Q197 347 181.5 319Q166 291 166 249ZM99 491Q99 551 119.5 587Q140 623 181 623Q198 623 210.5 616Q223 609 233.5 601Q244 593 254 586Q264 579 276 579Q288 579 296 588.5Q304 598 306 621H370Q370 561 349.5 524.5Q329 488 288 488Q270 488 258 495Q246 502 235.5 510Q225 518 215 525Q205 532 193 532Q166 532 163 491Z" glyph-name="ntilde" horiz-adv-x="457" unicode="&#241;" /><glyph d="M485 166H389L353 0H257L293 166H199L163 0H67L103 166H18L35 254H122L148 377H54L71 465H167L203 630H299L263 465H357L393 630H489L453 465H538L521 377H434L408 254H502ZM218 254H312L338 377H244Z" glyph-name="numbersign" horiz-adv-x="556" unicode="#" /><glyph d="M214 90Q250 90 266.5 118Q283 146 283 194V249Q283 297 266.5 325Q250 353 214 353Q178 353 161.5 325Q145 297 145 249V194Q145 146 161.5 118Q178 90 214 90ZM214 -9Q168 -9 132 6.5Q96 22 70.5 51Q45 80 31.5 121Q18 162 18 213V230Q18 281 31.5 322Q45 363 70.5 392Q96 421 132 436.5Q168 452 214 452Q260 452 296 436.5Q332 421 357.5 392Q383 363 396.5 322Q410 281 410 230V213Q410 162 396.5 121Q383 80 357.5 51Q332 22 296 6.5Q260 -9 214 -9Z" glyph-name="o" horiz-adv-x="428" unicode="o" /><glyph d="M168 490 215 626H346L257 490ZM214 90Q250 90 266.5 118Q283 146 283 194V249Q283 297 266.5 325Q250 353 214 353Q178 353 161.5 325Q145 297 145 249V194Q145 146 161.5 118Q178 90 214 90ZM214 -9Q168 -9 132 6.5Q96 22 70.5 51Q45 80 31.5 121Q18 162 18 213V230Q18 281 31.5 322Q45 363 70.5 392Q96 421 132 436.5Q168 452 214 452Q260 452 296 436.5Q332 421 357.5 392Q383 363 396.5 322Q410 281 410 230V213Q410 162 396.5 121Q383 80 357.5 51Q332 22 296 6.5Q260 -9 214 -9Z" glyph-name="oacute" horiz-adv-x="428" unicode="&#243;" /><glyph d="M214 90Q250 90 266.5 118Q283 146 283 194V249Q283 297 266.5 325Q250 353 214 353Q178 353 161.5 325Q145 297 145 249V194Q145 146 161.5 118Q178 90 214 90ZM214 -9Q168 -9 132 6.5Q96 22 70.5 51Q45 80 31.5 121Q18 162 18 213V230Q18 281 31.5 322Q45 363 70.5 392Q96 421 132 436.5Q168 452 214 452Q260 452 296 436.5Q332 421 357.5 392Q383 363 396.5 322Q410 281 410 230V213Q410 162 396.5 121Q383 80 357.5 51Q332 22 296 6.5Q260 -9 214 -9ZM215 486Q155 486 123 522.5Q91 559 91 625H167Q167 565 215 565Q262 565 262 625H339Q339 559 307 522.5Q275 486 215 486Z" glyph-name="obreve" horiz-adv-x="428" unicode="&#335;" /><glyph d="M277 621 355 483H272L215 549L158 483H74L153 621ZM214 90Q250 90 266.5 118Q283 146 283 194V249Q283 297 266.5 325Q250 353 214 353Q178 353 161.5 325Q145 297 145 249V194Q145 146 161.5 118Q178 90 214 90ZM214 -9Q168 -9 132 6.5Q96 22 70.5 51Q45 80 31.5 121Q18 162 18 213V230Q18 281 31.5 322Q45 363 70.5 392Q96 421 132 436.5Q168 452 214 452Q260 452 296 436.5Q332 421 357.5 392Q383 363 396.5 322Q410 281 410 230V213Q410 162 396.5 121Q383 80 357.5 51Q332 22 296 6.5Q260 -9 214 -9Z" glyph-name="ocircumflex" horiz-adv-x="428" unicode="&#244;" /><glyph d="M89 607H199V494H89ZM231 607H340V494H231ZM214 90Q250 90 266.5 118Q283 146 283 194V249Q283 297 266.5 325Q250 353 214 353Q178 353 161.5 325Q145 297 145 249V194Q145 146 161.5 118Q178 90 214 90ZM214 -9Q168 -9 132 6.5Q96 22 70.5 51Q45 80 31.5 121Q18 162 18 213V230Q18 281 31.5 322Q45 363 70.5 392Q96 421 132 436.5Q168 452 214 452Q260 452 296 436.5Q332 421 357.5 392Q383 363 396.5 322Q410 281 410 230V213Q410 162 396.5 121Q383 80 357.5 51Q332 22 296 6.5Q260 -9 214 -9Z" glyph-name="odieresis" horiz-adv-x="428" unicode="&#246;" /><glyph d="M214 452Q256 452 288 437.5Q320 423 344 399Q367 423 398 437.5Q429 452 470 452Q565 452 610.5 392Q656 332 656 230V195H401Q401 91 475 91Q537 91 539 160H653Q647 81 602.5 36Q558 -9 474 -9Q431 -9 398.5 5.5Q366 20 343 46Q319 21 287.5 6Q256 -9 214 -9Q168 -9 132 6.5Q96 22 70.5 51Q45 80 31.5 121Q18 162 18 213V230Q18 281 31.5 322Q45 363 70.5 392Q96 421 132 436.5Q168 452 214 452ZM214 90Q250 90 266.5 118Q283 146 283 194V249Q283 297 266.5 325Q250 353 214 353Q178 353 161.5 325Q145 297 145 249V194Q145 146 161.5 118Q178 90 214 90ZM537 266Q535 352 470 352Q403 352 401 266Z" glyph-name="oe" horiz-adv-x="674" unicode="&#339;" /><glyph d="M249 12Q232 -4 221.5 -15.5Q211 -27 204.5 -36Q198 -45 195.5 -52.5Q193 -60 193 -69Q193 -94 219 -94Q234 -94 252 -87V-153Q241 -161 226.5 -165.5Q212 -170 192 -170Q160 -170 136.5 -151.5Q113 -133 113 -95Q113 -63 131 -37Q149 -11 175 12Z" glyph-name="ogonek" horiz-adv-x="365" unicode="&#731;" /><glyph d="M214 90Q250 90 266.5 118Q283 146 283 194V249Q283 297 266.5 325Q250 353 214 353Q178 353 161.5 325Q145 297 145 249V194Q145 146 161.5 118Q178 90 214 90ZM214 -9Q168 -9 132 6.5Q96 22 70.5 51Q45 80 31.5 121Q18 162 18 213V230Q18 281 31.5 322Q45 363 70.5 392Q96 421 132 436.5Q168 452 214 452Q260 452 296 436.5Q332 421 357.5 392Q383 363 396.5 322Q410 281 410 230V213Q410 162 396.5 121Q383 80 357.5 51Q332 22 296 6.5Q260 -9 214 -9ZM174 490 84 626H216L262 490Z" glyph-name="ograve" horiz-adv-x="428" unicode="&#242;" /><glyph d="M100 490 140 626H259L178 490ZM237 490 277 626H398L316 490ZM214 90Q250 90 266.5 118Q283 146 283 194V249Q283 297 266.5 325Q250 353 214 353Q178 353 161.5 325Q145 297 145 249V194Q145 146 161.5 118Q178 90 214 90ZM214 -9Q168 -9 132 6.5Q96 22 70.5 51Q45 80 31.5 121Q18 162 18 213V230Q18 281 31.5 322Q45 363 70.5 392Q96 421 132 436.5Q168 452 214 452Q260 452 296 436.5Q332 421 357.5 392Q383 363 396.5 322Q410 281 410 230V213Q410 162 396.5 121Q383 80 357.5 51Q332 22 296 6.5Q260 -9 214 -9Z" glyph-name="ohungarumlaut" horiz-adv-x="428" unicode="&#337;" /><glyph d="M99 583H329V495H99ZM214 90Q250 90 266.5 118Q283 146 283 194V249Q283 297 266.5 325Q250 353 214 353Q178 353 161.5 325Q145 297 145 249V194Q145 146 161.5 118Q178 90 214 90ZM214 -9Q168 -9 132 6.5Q96 22 70.5 51Q45 80 31.5 121Q18 162 18 213V230Q18 281 31.5 322Q45 363 70.5 392Q96 421 132 436.5Q168 452 214 452Q260 452 296 436.5Q332 421 357.5 392Q383 363 396.5 322Q410 281 410 230V213Q410 162 396.5 121Q383 80 357.5 51Q332 22 296 6.5Q260 -9 214 -9Z" glyph-name="omacron" horiz-adv-x="428" unicode="&#333;" /><glyph d="M7 536Q34 536 54.5 541Q75 546 90 557Q105 568 115 586.5Q125 605 132 632H231V0H98V448H7Z" glyph-name="one" horiz-adv-x="274" unicode="1" /><glyph d="M53 108H200V444H69V537H109Q138 537 158.5 541.5Q179 546 193.5 557Q208 568 217.5 586.5Q227 605 234 632H333V108H461V0H53Z" glyph-name="one.lt" horiz-adv-x="500" /><glyph d="M76 589Q99 589 113 598Q127 607 132 630H192V362H117V540H76ZM154 61H248V0H57V53L132 125Q153 146 163.5 158Q174 170 174 185Q174 211 153 211Q128 211 128 172V163H56V178Q56 219 79 246Q102 273 152 273Q200 273 224.5 251Q249 229 249 189Q249 146 205 106ZM30 336H288V296H30Z" glyph-name="onehalf" horiz-adv-x="318" unicode="&#189;" /><glyph d="M76 589Q99 589 113 598Q127 607 132 630H192V362H117V540H76ZM30 336H288V296H30ZM226 108H257V52H226V0H156V52H34V108L148 268H226ZM97 108H156V193Z" glyph-name="onequarter" horiz-adv-x="318" unicode="&#188;" /><glyph d="M11 589Q34 589 48 598Q62 607 67 630H127V362H52V540H11Z" glyph-name="onesuperior" horiz-adv-x="156" unicode="&#185;" /><glyph d="M157 484 117 467Q106 462 99.5 456Q93 450 93 438Q93 417 116 417Q136 417 146.5 429.5Q157 442 157 463ZM237 429Q237 417 248 417Q252 417 262 419V369Q253 364 242.5 360.5Q232 357 218 357Q198 357 181.5 366.5Q165 376 160 399Q152 381 133 369Q114 357 87 357Q52 357 32.5 376.5Q13 396 13 427Q13 445 19 458Q25 471 35 479.5Q45 488 56.5 493.5Q68 499 79 503L157 532V537Q157 553 150.5 562Q144 571 127 571Q96 571 96 538V529H22V538Q22 580 49 607.5Q76 635 131 635Q237 635 237 533Z" glyph-name="ordfeminine" horiz-adv-x="274" unicode="&#170;" /><glyph d="M256 492Q256 430 223.5 393.5Q191 357 134 357Q77 357 45 393.5Q13 430 13 492V500Q13 562 45 598.5Q77 635 134 635Q191 635 223.5 598.5Q256 562 256 500ZM173 514Q173 540 164 555.5Q155 571 134 571Q114 571 104.5 555.5Q95 540 95 514V478Q95 452 104.5 436.5Q114 421 134 421Q155 421 164 436.5Q173 452 173 478Z" glyph-name="ordmasculine" horiz-adv-x="268" unicode="&#186;" /><glyph d="M60 63Q40 91 29 129Q18 167 18 213V230Q18 281 31.5 322Q45 363 70.5 392Q96 421 132 436.5Q168 452 214 452Q275 452 320 424L351 467L402 429L367 380Q410 323 410 230V213Q410 162 396.5 121Q383 80 357.5 51Q332 22 296 6.5Q260 -9 214 -9Q151 -9 108 18L77 -25L26 15ZM138 171 260 341Q243 356 214 356Q178 356 158 328Q138 300 138 252V191ZM214 87Q250 87 270 115Q290 143 290 191V252Q290 257 290 261.5Q290 266 289 271L167 101Q186 87 214 87Z" glyph-name="oslash" horiz-adv-x="428" unicode="&#248;" /><glyph d="M60 63Q40 91 29 129Q18 167 18 213V230Q18 281 31.5 322Q45 363 70.5 392Q96 421 132 436.5Q168 452 214 452Q275 452 320 424L351 467L402 429L367 380Q410 323 410 230V213Q410 162 396.5 121Q383 80 357.5 51Q332 22 296 6.5Q260 -9 214 -9Q151 -9 108 18L77 -25L26 15ZM138 171 260 341Q243 356 214 356Q178 356 158 328Q138 300 138 252V191ZM214 87Q250 87 270 115Q290 143 290 191V252Q290 257 290 261.5Q290 266 289 271L167 101Q186 87 214 87ZM168 490 215 626H346L257 490Z" glyph-name="oslashacute" horiz-adv-x="428" unicode="&#511;" /><glyph d="M214 90Q250 90 266.5 118Q283 146 283 194V249Q283 297 266.5 325Q250 353 214 353Q178 353 161.5 325Q145 297 145 249V194Q145 146 161.5 118Q178 90 214 90ZM214 -9Q168 -9 132 6.5Q96 22 70.5 51Q45 80 31.5 121Q18 162 18 213V230Q18 281 31.5 322Q45 363 70.5 392Q96 421 132 436.5Q168 452 214 452Q260 452 296 436.5Q332 421 357.5 392Q383 363 396.5 322Q410 281 410 230V213Q410 162 396.5 121Q383 80 357.5 51Q332 22 296 6.5Q260 -9 214 -9ZM79 491Q79 551 99.5 587Q120 623 161 623Q178 623 190.5 616Q203 609 213.5 601Q224 593 234 586Q244 579 256 579Q268 579 276 588.5Q284 598 286 621H350Q350 561 329.5 524.5Q309 488 268 488Q250 488 238 495Q226 502 215.5 510Q205 518 195 525Q185 532 173 532Q146 532 143 491Z" glyph-name="otilde" horiz-adv-x="428" unicode="&#245;" /><glyph d="M311 242Q311 351 238 351Q203 351 184.5 325.5Q166 300 166 258V185Q166 143 184.5 118Q203 93 238 93Q311 93 311 201ZM166 -162H38V443H166V388Q182 416 210.5 434Q239 452 283 452Q359 452 398.5 396Q438 340 438 237V206Q438 103 398.5 47Q359 -9 283 -9Q239 -9 210.5 9Q182 27 166 55Z" glyph-name="p" horiz-adv-x="456" unicode="p" /><glyph d="M205 272Q120 272 68 319Q16 366 16 451Q16 536 68 583Q120 630 205 630H445V0H353V539H297V0H205Z" glyph-name="paragraph" horiz-adv-x="487" unicode="&#182;" /><glyph d="M21 288Q21 339 29.5 390Q38 441 53.5 489Q69 537 92 580.5Q115 624 145 660H262Q193 570 168 477Q143 384 143 288Q143 192 168 99Q193 6 262 -84H145Q115 -48 92 -4.5Q69 39 53.5 87Q38 135 29.5 186Q21 237 21 288Z" glyph-name="parenleft" horiz-adv-x="262" unicode="(" /><glyph d="M21 307Q21 358 29.5 409Q38 460 53.5 508Q69 556 92 599.5Q115 643 145 679H262Q193 589 168 496Q143 403 143 307Q143 211 168 118Q193 25 262 -65H145Q115 -29 92 14.5Q69 58 53.5 106Q38 154 29.5 205Q21 256 21 307Z" glyph-name="parenleft.cap" horiz-adv-x="262" /><glyph d="M241 288Q241 237 232.5 186Q224 135 208.5 87Q193 39 170 -4.5Q147 -48 117 -84H0Q69 6 94 99Q119 192 119 288Q119 384 94 477Q69 570 0 660H117Q147 624 170 580.5Q193 537 208.5 489Q224 441 232.5 390Q241 339 241 288Z" glyph-name="parenright" horiz-adv-x="262" unicode=")" /><glyph d="M241 307Q241 256 232.5 205Q224 154 208.5 106Q193 58 170 14.5Q147 -29 117 -65H0Q69 25 94 118Q119 211 119 307Q119 403 94 496Q69 589 0 679H117Q147 643 170 599.5Q193 556 208.5 508Q224 460 232.5 409Q241 358 241 307Z" glyph-name="parenright.cap" horiz-adv-x="262" /><glyph d="M101 493Q101 454 112 436.5Q123 419 143 419Q164 419 174 436.5Q184 454 184 493Q184 533 174 550.5Q164 568 143 568Q123 568 112 550.5Q101 533 101 493ZM411 630H493L148 0H66ZM19 493Q19 562 54 601Q89 640 143 640Q197 640 232 601Q267 562 267 493Q267 424 232 385.5Q197 347 143 347Q89 347 54 385.5Q19 424 19 493ZM374 137Q374 97 385 79.5Q396 62 416 62Q437 62 447 79.5Q457 97 457 137Q457 176 447 193.5Q437 211 416 211Q396 211 385 193.5Q374 176 374 137ZM291 137Q291 206 326.5 244.5Q362 283 416 283Q470 283 505 244.5Q540 206 540 137Q540 68 505 29Q470 -10 416 -10Q362 -10 326.5 29Q291 68 291 137Z" glyph-name="percent" horiz-adv-x="558" unicode="%" /><glyph d="M101 505Q101 435 137 435Q173 435 173 505Q173 574 137 574Q101 574 101 505ZM24 505Q24 568 55.5 604Q87 640 137 640Q187 640 219 604Q251 568 251 505Q251 442 219 406Q187 370 137 370Q87 370 55.5 406Q24 442 24 505ZM384 630H463L115 0H36ZM326 125Q326 56 363 56Q399 56 399 125Q399 195 363 195Q326 195 326 125ZM249 125Q249 188 281 224Q313 260 363 260Q412 260 444 224Q476 188 476 125Q476 62 444 26Q412 -10 363 -10Q313 -10 281 26Q249 62 249 125Z" glyph-name="percent.lt" horiz-adv-x="500" /><glyph d="M30 141H170V0H30Z" glyph-name="period" horiz-adv-x="200" unicode="." /><glyph d="M54 141H195V0H54Z" glyph-name="period.tab" horiz-adv-x="250" /><glyph d="M42 322H182V181H42Z" glyph-name="periodcentered" horiz-adv-x="224" unicode="&#183;" /><glyph d="M42 382H182V241H42Z" glyph-name="periodcentered.cap" horiz-adv-x="224" /><glyph d="M101 493Q101 454 112 436.5Q123 419 143 419Q164 419 174 436.5Q184 454 184 493Q184 533 174 550.5Q164 568 143 568Q123 568 112 550.5Q101 533 101 493ZM411 630H493L148 0H66ZM19 493Q19 562 54 601Q89 640 143 640Q197 640 232 601Q267 562 267 493Q267 424 232 385.5Q197 347 143 347Q89 347 54 385.5Q19 424 19 493ZM374 137Q374 97 385 79.5Q396 62 416 62Q437 62 447 79.5Q457 97 457 137Q457 176 447 193.5Q437 211 416 211Q396 211 385 193.5Q374 176 374 137ZM291 137Q291 206 326.5 244.5Q362 283 416 283Q470 283 505 244.5Q540 206 540 137Q540 68 505 29Q470 -10 416 -10Q362 -10 326.5 29Q291 68 291 137ZM637 137Q637 97 647.5 79.5Q658 62 678 62Q699 62 709.5 79.5Q720 97 720 137Q720 176 709.5 193.5Q699 211 678 211Q658 211 647.5 193.5Q637 176 637 137ZM554 137Q554 206 589 244.5Q624 283 678 283Q732 283 767 244.5Q802 206 802 137Q802 68 767 29Q732 -10 678 -10Q624 -10 589 29Q554 68 554 137Z" glyph-name="perthousand" horiz-adv-x="821" unicode="&#8240;" /><glyph d="M107 505Q107 435 143 435Q179 435 179 505Q179 574 143 574Q107 574 107 505ZM30 505Q30 568 61.5 604Q93 640 143 640Q193 640 224.5 604Q256 568 256 505Q256 442 224.5 406Q193 370 143 370Q93 370 61.5 406Q30 442 30 505ZM390 630H469L121 0H42ZM332 125Q332 56 368 56Q404 56 404 125Q404 195 368 195Q332 195 332 125ZM255 125Q255 188 286.5 224Q318 260 368 260Q418 260 450 224Q482 188 482 125Q482 62 450 26Q418 -10 368 -10Q318 -10 286.5 26Q255 62 255 125ZM581 125Q581 56 617 56Q653 56 653 125Q653 195 617 195Q581 195 581 125ZM504 125Q504 188 535.5 224Q567 260 617 260Q667 260 698.5 224Q730 188 730 125Q730 62 698.5 26Q667 -10 617 -10Q567 -10 535.5 26Q504 62 504 125Z" glyph-name="perthousand.lt" horiz-adv-x="760" /><glyph d="M296 520V357H459V259H296V97H198V259H36V357H198V520Z" glyph-name="plus" horiz-adv-x="495" unicode="+" /><glyph d="M299 520V357H461V259H299V97H201V259H39V357H201V520Z" glyph-name="plus.lt" horiz-adv-x="500" /><glyph d="M301 549V430H456V332H301V213H203V332H50V430H203V549ZM50 168H456V71H50Z" glyph-name="plusminus" horiz-adv-x="505" unicode="&#177;" /><glyph d="M298 549V430H453V332H298V213H201V332H47V430H201V549ZM47 168H453V71H47Z" glyph-name="plusminus.lt" horiz-adv-x="500" /><glyph d="M319 641Q383 641 437 616.5Q491 592 530 548.5Q569 505 591 445.5Q613 386 613 315Q613 244 591 184.5Q569 125 530 81.5Q491 38 437 13.5Q383 -11 319 -11Q255 -11 201 13.5Q147 38 108 81.5Q69 125 47 184.5Q25 244 25 315Q25 386 47 445.5Q69 505 108 548.5Q147 592 201 616.5Q255 641 319 641ZM319 594Q264 594 219 573Q174 552 142.5 515Q111 478 93.5 426.5Q76 375 76 315Q76 255 93.5 203.5Q111 152 142.5 115Q174 78 219 57Q264 36 319 36Q374 36 419 57Q464 78 495.5 115Q527 152 544.5 203.5Q562 255 562 315Q562 375 544.5 426.5Q527 478 495.5 515Q464 552 419 573Q374 594 319 594ZM328 315Q357 315 371.5 328Q386 341 386 374Q386 406 371.5 419Q357 432 328 432H300V315ZM300 124H213V502H339Q407 502 439.5 468Q472 434 472 374Q472 313 439.5 279Q407 245 339 245H300Z" glyph-name="published" horiz-adv-x="638" /><glyph d="M145 201Q145 93 218 93Q253 93 271.5 118Q290 143 290 185V258Q290 300 271.5 325.5Q253 351 218 351Q145 351 145 242ZM290 55Q274 27 245.5 9Q217 -9 173 -9Q97 -9 57.5 47Q18 103 18 206V237Q18 340 57.5 396Q97 452 173 452Q217 452 245.5 434Q274 416 290 388V443H418V-162H290Z" glyph-name="q" horiz-adv-x="456" unicode="q" /><glyph d="M228 329Q259 362 275 388Q291 414 291 447Q291 487 271 510Q251 533 214 533Q174 533 152.5 506Q131 479 131 424V391H6V431Q6 477 19 515.5Q32 554 58.5 582Q85 610 124 625.5Q163 641 215 641Q314 641 367.5 591Q421 541 421 453Q421 428 415.5 406Q410 384 399.5 364Q389 344 374.5 324Q360 304 341 283Q315 254 297 233Q279 212 277 192H156Q158 230 177 262.5Q196 295 228 329ZM144 141H285V0H144Z" glyph-name="question" horiz-adv-x="432" unicode="?" /><glyph d="M204 189Q173 156 157 130Q141 104 141 71Q141 31 161 8Q181 -15 218 -15Q258 -15 279.5 12Q301 39 301 94V127H426V87Q426 41 412.5 2.5Q399 -36 373 -64Q347 -92 308 -107.5Q269 -123 217 -123Q118 -123 64.5 -73Q11 -23 11 65Q11 115 32 153.5Q53 192 91 235Q117 264 135 285Q153 306 155 326H276Q274 288 255 255.5Q236 223 204 189ZM288 377H147V518H288Z" glyph-name="questiondown" horiz-adv-x="432" unicode="&#191;" /><glyph d="M204.0139 301.0201Q173.0158 268.0221 157.0168 242.0237Q141.0178 216.0253 141.0178 183.0273Q141.0178 143.0297 161.0165 120.0311Q181.0153 97.0325 218.0131 97.0325Q258.0106 97.0325 279.5093 124.0309Q301.008 151.0292 301.008 206.0259V239.0239H426.0004V199.0263Q426.0004 153.0291 413.0012 114.5315Q400.002 76.0338 373.5036 48.0355Q347.0052 20.0372 308.0076 4.5382Q269.0099 -10.9609 217.0131 -10.9609Q118.0192 -10.9609 64.5224 39.0361Q11.0257 89.033 11.0257 177.0276Q11.0257 202.0261 16.5254 224.0248Q22.025 246.0234 32.5244 266.0222Q43.0237 286.021 57.5229 306.0198Q72.022 326.0186 91.0208 347.0173Q117.0192 376.0155 135.0181 397.0142Q153.017 418.0129 155.0169 438.0117H276.0095Q274.0096 400.014 255.0108 367.516Q236.012 335.018 204.0139 301.0201ZM288.0088 489.0086H147.0174V630H288.0088Z" glyph-name="questiondown.cap" horiz-adv-x="432" /><glyph d="M29 630H136V381H29ZM179 630H286V381H179Z" glyph-name="quotedbl" horiz-adv-x="315" unicode="&quot;" /><glyph d="M200 126H337V6Q337 -57 304.5 -87Q272 -117 200 -119V-55Q232 -53 247 -42Q262 -31 263 0H200ZM28 126H166V6Q166 -57 133 -87Q100 -117 28 -119V-55Q60 -53 75 -42Q90 -31 91 0H28Z" glyph-name="quotedblbase" horiz-adv-x="363" unicode="&#8222;" /><glyph d="M165 387H27V507Q27 571 60 601Q93 631 165 632V569Q133 567 118 555.5Q103 544 102 513H165ZM337 387H199V507Q199 571 232 601Q265 631 337 632V569Q305 567 289.5 555.5Q274 544 274 513H337Z" glyph-name="quotedblleft" horiz-adv-x="363" unicode="&#8220;" /><glyph d="M200 630H337V510Q337 447 304.5 417Q272 387 200 385V449Q232 451 247 462Q262 473 263 504H200ZM28 630H166V510Q166 447 133 417Q100 387 28 385V449Q60 451 75 462Q90 473 91 504H28Z" glyph-name="quotedblright" horiz-adv-x="363" unicode="&#8221;" /><glyph d="M165 387H27V507Q27 571 60 601Q93 631 165 632V569Q133 567 118 555.5Q103 544 102 513H165Z" glyph-name="quoteleft" horiz-adv-x="192" unicode="&#8216;" /><glyph d="M28 630H166V510Q166 447 133 417Q100 387 28 385V449Q60 451 75 462Q90 473 91 504H28Z" glyph-name="quoteright" horiz-adv-x="192" unicode="&#8217;" /><glyph d="M28 126H166V6Q166 -57 133 -87Q100 -117 28 -119V-55Q60 -53 75 -42Q90 -31 91 0H28Z" glyph-name="quotesinglbase" horiz-adv-x="192" unicode="&#8218;" /><glyph d="M29 630H144V381H29Z" glyph-name="quotesingle" horiz-adv-x="173" unicode="&apos;" /><glyph d="M306 325Q281 332 256 332Q211 332 188.5 307Q166 282 166 226V0H38V443H166V373Q179 414 206 431.5Q233 449 270 449Q297 449 312 441Z" glyph-name="r" horiz-adv-x="313" unicode="r" /><glyph d="M128 490 175 626H306L217 490ZM306 325Q281 332 256 332Q211 332 188.5 307Q166 282 166 226V0H38V443H166V373Q179 414 206 431.5Q233 449 270 449Q297 449 312 441Z" glyph-name="racute" horiz-adv-x="313" unicode="&#341;" /><glyph d="M114 490 35 626H119L176 562L233 626H316L238 490ZM306 325Q281 332 256 332Q211 332 188.5 307Q166 282 166 226V0H38V443H166V373Q179 414 206 431.5Q233 449 270 449Q297 449 312 441Z" glyph-name="rcaron" horiz-adv-x="313" unicode="&#345;" /><glyph d="M45 -35H163V-102Q163 -201 44 -201V-156Q69 -156 80 -149Q91 -142 92 -122H45ZM306 325Q281 332 256 332Q211 332 188.5 307Q166 282 166 226V0H38V443H166V373Q179 414 206 431.5Q233 449 270 449Q297 449 312 441Z" glyph-name="rcommaaccent" horiz-adv-x="313" unicode="&#343;" /><glyph d="M204 387Q201 390 199 397Q197 404 196 418Q194 434 188.5 438.5Q183 443 171 443H148V387H104V562H184Q215 562 230.5 547.5Q246 533 246 507Q246 487 236 475.5Q226 464 212 462Q237 456 240 427Q242 407 243 399.5Q244 392 249 387ZM172 480Q200 480 200 502Q200 524 172 524H148V480ZM170 337Q224 337 257 374Q290 411 290 474Q290 537 257 574Q224 611 170 611Q116 611 83 574Q50 537 50 474Q50 411 83 374Q116 337 170 337ZM170 307Q137 307 109.5 319Q82 331 62 353Q42 375 30.5 405.5Q19 436 19 474Q19 511 30.5 542Q42 573 62 595Q82 617 109.5 629Q137 641 170 641Q203 641 230.5 629Q258 617 278 595Q298 573 309.5 542Q321 511 321 474Q321 436 309.5 405.5Q298 375 278 353Q258 331 230.5 319Q203 307 170 307Z" glyph-name="registered" horiz-adv-x="340" unicode="&#174;" /><glyph d="M146 564Q146 548 155 538.5Q164 529 182 529Q200 529 209 538.5Q218 548 218 564Q218 581 209 591Q200 601 182 601Q164 601 155 591Q146 581 146 564ZM90 564Q90 602 115 627.5Q140 653 182 653Q224 653 249 627.5Q274 602 274 564Q274 526 249 501Q224 476 182 476Q140 476 115 501Q90 526 90 564Z" glyph-name="ring" horiz-adv-x="365" unicode="&#730;" /><glyph d="M146 740Q146 724 155 714Q164 704 182 704Q200 704 209 714Q218 724 218 740Q218 756 209 766.5Q200 777 182 777Q164 777 155 766.5Q146 756 146 740ZM90 740Q90 778 115 803.5Q140 829 182 829Q224 829 249 803.5Q274 778 274 740Q274 702 249 677Q224 652 182 652Q140 652 115 677Q90 702 90 740Z" glyph-name="ring.cap" horiz-adv-x="365" /><glyph d="M120 146Q122 113 142 97Q162 81 194 81Q219 81 234 90.5Q249 100 249 120Q249 137 238.5 145.5Q228 154 205 160L137 177Q81 191 50 222Q19 253 19 312Q19 374 63.5 413Q108 452 183 452Q226 452 258.5 440Q291 428 313 407Q335 386 346 357Q357 328 357 294H249Q249 324 233.5 343Q218 362 184 362Q161 362 147.5 352Q134 342 134 323Q134 304 145.5 295.5Q157 287 178 280L241 263Q302 246 333.5 216Q365 186 365 130Q365 64 319.5 27.5Q274 -9 194 -9Q113 -9 63.5 31Q14 71 11 146Z" glyph-name="s" horiz-adv-x="382" unicode="s" /><glyph d="M145 490 192 626H323L234 490ZM120 146Q122 113 142 97Q162 81 194 81Q219 81 234 90.5Q249 100 249 120Q249 137 238.5 145.5Q228 154 205 160L137 177Q81 191 50 222Q19 253 19 312Q19 374 63.5 413Q108 452 183 452Q226 452 258.5 440Q291 428 313 407Q335 386 346 357Q357 328 357 294H249Q249 324 233.5 343Q218 362 184 362Q161 362 147.5 352Q134 342 134 323Q134 304 145.5 295.5Q157 287 178 280L241 263Q302 246 333.5 216Q365 186 365 130Q365 64 319.5 27.5Q274 -9 194 -9Q113 -9 63.5 31Q14 71 11 146Z" glyph-name="sacute" horiz-adv-x="382" unicode="&#347;" /><glyph d="M130 490 51 626H135L192 562L249 626H332L254 490ZM120 146Q122 113 142 97Q162 81 194 81Q219 81 234 90.5Q249 100 249 120Q249 137 238.5 145.5Q228 154 205 160L137 177Q81 191 50 222Q19 253 19 312Q19 374 63.5 413Q108 452 183 452Q226 452 258.5 440Q291 428 313 407Q335 386 346 357Q357 328 357 294H249Q249 324 233.5 343Q218 362 184 362Q161 362 147.5 352Q134 342 134 323Q134 304 145.5 295.5Q157 287 178 280L241 263Q302 246 333.5 216Q365 186 365 130Q365 64 319.5 27.5Q274 -9 194 -9Q113 -9 63.5 31Q14 71 11 146Z" glyph-name="scaron" horiz-adv-x="382" unicode="&#353;" /><glyph d="M285 -99Q285 -139 256.5 -157Q228 -175 190 -175Q161 -175 135.5 -166.5Q110 -158 94 -144L111 -94Q125 -105 143.5 -113Q162 -121 181 -121Q211 -121 211 -99Q211 -83 190 -77.5Q169 -72 135 -72L165 -7Q96 0 54.5 39Q13 78 11 146H120Q122 113 142 97Q162 81 194 81Q219 81 234 90.5Q249 100 249 120Q249 137 238.5 145.5Q228 154 205 160L137 177Q81 191 50 222Q19 253 19 312Q19 374 63.5 413Q108 452 183 452Q226 452 258.5 440Q291 428 313 407Q335 386 346 357Q357 328 357 294H249Q249 324 233.5 343Q218 362 184 362Q161 362 147.5 352Q134 342 134 323Q134 304 145.5 295.5Q157 287 178 280L241 263Q302 246 333.5 216Q365 186 365 130Q365 67 323.5 31.5Q282 -4 210 -8L202 -28Q235 -30 260 -46Q285 -62 285 -99Z" glyph-name="scedilla" horiz-adv-x="382" unicode="&#351;" /><glyph d="M254 621 332 483H249L192 549L135 483H51L130 621ZM120 146Q122 113 142 97Q162 81 194 81Q219 81 234 90.5Q249 100 249 120Q249 137 238.5 145.5Q228 154 205 160L137 177Q81 191 50 222Q19 253 19 312Q19 374 63.5 413Q108 452 183 452Q226 452 258.5 440Q291 428 313 407Q335 386 346 357Q357 328 357 294H249Q249 324 233.5 343Q218 362 184 362Q161 362 147.5 352Q134 342 134 323Q134 304 145.5 295.5Q157 287 178 280L241 263Q302 246 333.5 216Q365 186 365 130Q365 64 319.5 27.5Q274 -9 194 -9Q113 -9 63.5 31Q14 71 11 146Z" glyph-name="scircumflex" horiz-adv-x="382" unicode="&#349;" /><glyph d="M133 -35H251V-102Q251 -201 132 -201V-156Q157 -156 168 -149Q179 -142 180 -122H133ZM120 146Q122 113 142 97Q162 81 194 81Q219 81 234 90.5Q249 100 249 120Q249 137 238.5 145.5Q228 154 205 160L137 177Q81 191 50 222Q19 253 19 312Q19 374 63.5 413Q108 452 183 452Q226 452 258.5 440Q291 428 313 407Q335 386 346 357Q357 328 357 294H249Q249 324 233.5 343Q218 362 184 362Q161 362 147.5 352Q134 342 134 323Q134 304 145.5 295.5Q157 287 178 280L241 263Q302 246 333.5 216Q365 186 365 130Q365 64 319.5 27.5Q274 -9 194 -9Q113 -9 63.5 31Q14 71 11 146Z" glyph-name="scommaaccent" horiz-adv-x="382" unicode="&#537;" /><glyph d="M438 244Q438 209 421.5 179Q405 149 379 129Q391 114 398 94.5Q405 75 405 50Q405 -14 358 -54.5Q311 -95 229 -95Q146 -95 96.5 -55.5Q47 -16 41 56L144 60Q155 -7 231 -7Q254 -7 271 5.5Q288 18 288 43Q288 57 279 69Q270 81 247 92L147 137Q87 164 53.5 201.5Q20 239 20 302Q20 336 36.5 366Q53 396 78 416Q66 432 59.5 451Q53 470 53 495Q53 527 65.5 553.5Q78 580 100.5 599.5Q123 619 155.5 630Q188 641 229 641Q313 641 362.5 601Q412 561 417 489L314 485Q309 517 286.5 535Q264 553 227 553Q204 553 187 540Q170 527 170 503Q170 488 179 476Q188 464 211 453L312 408Q372 382 405 344.5Q438 307 438 244ZM153 359Q144 352 137.5 341Q131 330 131 314Q131 291 141.5 278.5Q152 266 178 252L291 194Q294 192 297.5 190Q301 188 305 186Q314 193 320.5 204Q327 215 327 231Q327 254 317 266.5Q307 279 281 293L167 352Z" glyph-name="section" horiz-adv-x="458" unicode="&#167;" /><glyph d="M30 141H170V6Q170 -121 30 -125V-60Q62 -59 77 -45.5Q92 -32 92 0H30ZM30 428H170V287H30Z" glyph-name="semicolon" horiz-adv-x="200" unicode=";" /><glyph d="M54 141H195V6Q195 -58 160.5 -90.5Q126 -123 54 -125V-60Q86 -59 101.5 -45.5Q117 -32 117 0H54ZM54 428H195V287H54Z" glyph-name="semicolon.tab" horiz-adv-x="250" /><glyph d="M9 510V630H417V527Q373 470 344 409.5Q315 349 297.5 284Q280 219 273 148.5Q266 78 266 0H120Q121 80 132 150Q143 220 163.5 282.5Q184 345 213.5 401Q243 457 282 510Z" glyph-name="seven" horiz-adv-x="426" unicode="7" /><glyph d="M39 510V630H474V527Q386 412 347 284Q308 156 308 0H163Q164 80 177 150Q190 220 213.5 282.5Q237 345 268.5 401Q300 457 339 510Z" glyph-name="seven.lt" horiz-adv-x="500" /><glyph d="M254 -11Q194 -11 150.5 11.5Q107 34 78.5 74.5Q50 115 36 171.5Q22 228 22 296V323Q22 396 37.5 455Q53 514 82.5 555Q112 596 156 618.5Q200 641 257 641Q307 641 344.5 625.5Q382 610 407.5 582.5Q433 555 446.5 517.5Q460 480 461 435H338Q336 479 317 506Q298 533 257 533Q200 533 175.5 479Q151 425 151 334Q168 365 203.5 383.5Q239 402 283 402Q325 402 359.5 388Q394 374 418.5 348.5Q443 323 456.5 286.5Q470 250 470 205Q470 155 454 115.5Q438 76 409.5 47.5Q381 19 341.5 4Q302 -11 254 -11ZM161 199Q161 153 185 125Q209 97 253 97Q295 97 319 125Q343 153 343 199Q343 247 319 275Q295 303 253 303Q208 303 184.5 275Q161 247 161 199Z" glyph-name="six" horiz-adv-x="486" unicode="6" /><glyph d="M259 -11Q199 -11 154.5 11.5Q110 34 81 74.5Q52 115 38 171.5Q24 228 24 296V323Q24 395 39.5 453.5Q55 512 85 554Q115 596 159.5 618.5Q204 641 262 641Q313 641 351 625.5Q389 610 414.5 582.5Q440 555 453.5 517.5Q467 480 468 435H345Q343 479 323 506Q303 533 262 533Q233 533 212 518.5Q191 504 178 477.5Q165 451 159 414.5Q153 378 153 333Q170 365 206.5 383.5Q243 402 288 402Q331 402 366 388Q401 374 426 348.5Q451 323 464.5 286.5Q478 250 478 205Q478 155 462 115.5Q446 76 417 47.5Q388 19 347.5 4Q307 -11 259 -11ZM164 199Q164 153 188.5 125Q213 97 258 97Q301 97 326 125Q351 153 351 199Q351 247 326 275Q301 303 258 303Q213 303 188.5 275Q164 247 164 199Z" glyph-name="six.lt" horiz-adv-x="500" /><glyph d="M181 659H296L105 -83H-10Z" glyph-name="slash" horiz-adv-x="296" unicode="/" /><glyph d="M190 630H306L116 0H0Z" glyph-name="slash.cap" horiz-adv-x="306" /><glyph glyph-name="space" horiz-adv-x="169" unicode=" " /><glyph glyph-name="space.tab" horiz-adv-x="250" /><glyph d="M214 447Q214 419 219.5 396.5Q225 374 233 352H341V273H261Q266 256 268.5 236Q271 216 271 193Q271 157 262 124Q278 114 295 108Q312 102 332 102Q367 102 381.5 124Q396 146 396 197H478Q488 141 481.5 101.5Q475 62 457.5 37Q440 12 413 0.5Q386 -11 354 -11Q310 -11 279 5.5Q248 22 223 44Q203 18 175.5 3.5Q148 -11 116 -11Q69 -11 37.5 16.5Q6 44 6 98Q6 146 37 173Q68 200 114 200Q128 200 140 197.5Q152 195 163 190Q162 215 157 235Q152 255 144 273H50V352H107Q97 374 91 399.5Q85 425 85 459Q85 498 98 531.5Q111 565 135 589.5Q159 614 192.5 627.5Q226 641 267 641Q360 641 409 584.5Q458 528 458 425H346Q346 475 329.5 500.5Q313 526 277 526Q246 526 230 504.5Q214 483 214 447ZM116 66Q145 66 156 110Q146 118 136.5 122.5Q127 127 116 127Q102 127 94 119.5Q86 112 86 96Q86 82 94 74Q102 66 116 66Z" glyph-name="sterling" horiz-adv-x="492" unicode="&#163;" /><glyph d="M215 447Q215 419 221 396.5Q227 374 235 352H341V273H264Q275 237 275 193Q275 159 267 125Q282 115 298.5 108.5Q315 102 335 102Q370 102 382.5 124Q395 146 395 197H478Q487 141 480.5 101.5Q474 62 457 37Q440 12 413.5 0.5Q387 -11 356 -11Q313 -11 282.5 5.5Q252 22 229 44Q209 18 182.5 3.5Q156 -11 125 -11Q79 -11 48.5 16.5Q18 44 18 98Q18 146 48 173Q78 200 122 200Q147 200 171 189Q170 214 165 234.5Q160 255 152 273H60V352H114Q104 374 98 399.5Q92 425 92 459Q92 498 105 531.5Q118 565 142 589.5Q166 614 199 627.5Q232 641 272 641Q362 641 409.5 584.5Q457 528 457 425H347Q347 475 330.5 500.5Q314 526 278 526Q247 526 231 504.5Q215 483 215 447ZM125 66Q152 66 163 110Q154 118 144.5 122.5Q135 127 125 127Q95 127 95 96Q95 66 125 66Z" glyph-name="sterling.lt" horiz-adv-x="500" /><glyph d="M50 353H0V430L19 434Q51 441 64 457.5Q77 474 85 505L99 564H176V443H268V353H176V140Q176 96 215 96Q230 96 244.5 100.5Q259 105 279 115V26Q230 -7 169 -7Q145 -7 123 -0.5Q101 6 85 20.5Q69 35 59.5 58.5Q50 82 50 115Z" glyph-name="t" horiz-adv-x="290" unicode="t" /><glyph d="M10 292H60V353H10V430L29 434Q61 441 74 457.5Q87 474 95 505L109 564H186V443H278V353H186V292H278V205H186V140Q186 96 225 96Q240 96 254.5 100.5Q269 105 289 115V26Q240 -7 179 -7Q155 -7 133 -0.5Q111 6 95 20.5Q79 35 69.5 58.5Q60 82 60 115V205H10Z" glyph-name="tbar" horiz-adv-x="306" unicode="&#359;" /><glyph d="M201 489 215 630H343L279 489ZM50 353H0V430L19 434Q51 441 64 457.5Q77 474 85 505L99 564H176V443H268V353H176V140Q176 96 215 96Q230 96 244.5 100.5Q259 105 279 115V26Q230 -7 169 -7Q145 -7 123 -0.5Q101 6 85 20.5Q69 35 59.5 58.5Q50 82 50 115Z" glyph-name="tcaron" horiz-adv-x="290" unicode="&#357;" /><glyph d="M102 -35H220V-102Q220 -201 101 -201V-156Q126 -156 137 -149Q148 -142 149 -122H102ZM50 353H0V430L19 434Q51 441 64 457.5Q77 474 85 505L99 564H176V443H268V353H176V140Q176 96 215 96Q230 96 244.5 100.5Q259 105 279 115V26Q230 -7 169 -7Q145 -7 123 -0.5Q101 6 85 20.5Q69 35 59.5 58.5Q50 82 50 115Z" glyph-name="tcommaaccent" horiz-adv-x="290" unicode="&#355;" /><glyph d="M311 242Q311 351 238 351Q203 351 184.5 325.5Q166 300 166 258V185Q166 143 184.5 118Q203 93 238 93Q311 93 311 201ZM166 -162H38V630H166V388Q182 416 210.5 434Q239 452 283 452Q359 452 398.5 396Q438 340 438 237V206Q438 103 398.5 47Q359 -9 283 -9Q239 -9 210.5 9Q182 27 166 55Z" glyph-name="thorn" horiz-adv-x="456" unicode="&#254;" /><glyph d="M346 317Q389 303 416 268Q443 233 443 175Q443 90 388.5 39.5Q334 -11 233 -11Q130 -11 73.5 45.5Q17 102 17 201V229H145V203Q145 152 167.5 124Q190 96 233 96Q275 96 295 119.5Q315 143 315 185Q315 228 291.5 248.5Q268 269 228 269Q220 269 208 269Q196 269 183 267V367Q196 365 208 365Q220 365 228 365Q268 365 289.5 383.5Q311 402 311 446Q311 487 292.5 510.5Q274 534 232 534Q189 534 168.5 506Q148 478 148 427V406H23V430Q23 477 36.5 516Q50 555 76.5 582.5Q103 610 142 625.5Q181 641 232 641Q333 641 386 591Q439 541 439 456Q439 399 414 363.5Q389 328 346 317Z" glyph-name="three" horiz-adv-x="462" unicode="3" /><glyph d="M367 317Q411 303 438 268Q465 233 465 175Q465 90 410 39.5Q355 -11 252 -11Q147 -11 90.5 45.5Q34 102 34 201V229H162V203Q162 152 185 124Q208 96 252 96Q296 96 317 119.5Q338 143 338 185Q338 228 313.5 248.5Q289 269 248 269Q240 269 227 269Q214 269 201 267V367Q214 365 227 365Q240 365 248 365Q289 365 311 383.5Q333 402 333 446Q333 487 314 510.5Q295 534 251 534Q207 534 186 506Q165 478 165 427V406H40V430Q40 477 53.5 516Q67 555 94 582.5Q121 610 160.5 625.5Q200 641 251 641Q354 641 407.5 591Q461 541 461 456Q461 399 436 363.5Q411 328 367 317Z" glyph-name="three.lt" horiz-adv-x="500" /><glyph d="M30 336H288V296H30ZM226 108H257V52H226V0H156V52H34V108L148 268H226ZM97 108H156V193ZM217 497Q234 490 245 475.5Q256 461 256 438Q256 400 230.5 378.5Q205 357 158 357Q110 357 84.5 382Q59 407 59 450V462H128V452Q128 416 158 416Q184 416 184 446Q184 458 177 466Q170 474 156 474Q153 474 148.5 474Q144 474 138 473V521Q144 520 148.5 520Q153 520 156 520Q182 520 182 549Q182 561 176 568.5Q170 576 156 576Q144 576 136.5 567Q129 558 129 541V531H62V543Q62 585 87 610Q112 635 158 635Q206 635 230 612Q254 589 254 554Q254 507 217 497Z" glyph-name="threequarters" horiz-adv-x="318" unicode="&#190;" /><glyph d="M165 497Q182 490 193 475.5Q204 461 204 438Q204 400 178.5 378.5Q153 357 106 357Q59 357 33 382Q7 407 7 450V462H76V452Q76 416 106 416Q132 416 132 446Q132 458 125.5 466Q119 474 105 474Q101 474 96.5 474Q92 474 86 473V521Q92 520 96.5 520Q101 520 105 520Q130 520 130 549Q130 561 124 568.5Q118 576 104 576Q92 576 84.5 567Q77 558 77 541V531H10V543Q10 585 35 610Q60 635 107 635Q154 635 178 612Q202 589 202 554Q202 507 165 497Z" glyph-name="threesuperior" horiz-adv-x="223" unicode="&#179;" /><glyph d="M47 491Q47 551 67.5 587Q88 623 129 623Q146 623 158.5 616Q171 609 181.5 601Q192 593 202 586Q212 579 224 579Q236 579 244 588.5Q252 598 254 621H318Q318 561 297.5 524.5Q277 488 236 488Q218 488 206 495Q194 502 183.5 510Q173 518 163 525Q153 532 141 532Q114 532 111 491Z" glyph-name="tilde" horiz-adv-x="365" unicode="&#732;" /><glyph d="M47 666Q47 726 67.5 762.5Q88 799 129 799Q146 799 158.5 792Q171 785 181.5 777Q192 769 202 762Q212 755 224 755Q236 755 244 764.5Q252 774 254 796H318Q318 736 297.5 700Q277 664 236 664Q218 664 206 671Q194 678 183.5 686Q173 694 163 701Q153 708 141 708Q127 708 120 698.5Q113 689 111 666Z" glyph-name="tilde.cap" horiz-adv-x="365" /><glyph d="M69 411V573H9V630H200V573H139V411ZM317 411 279 547H277V411H221V630H301L337 499H339L374 630H454V411H395V547H393L355 411Z" glyph-name="trademark" horiz-adv-x="478" unicode="&#8482;" /><glyph d="M188 112H433V0H15V94L185 269Q212 297 233 319.5Q254 342 268.5 363Q283 384 290.5 404Q298 424 298 447Q298 485 278 507.5Q258 530 222 530Q143 530 143 422V395H15V431Q15 477 28 515.5Q41 554 67 582Q93 610 131.5 625.5Q170 641 221 641Q322 641 376.5 592.5Q431 544 431 453Q431 394 401 342Q371 290 309 230Z" glyph-name="two" horiz-adv-x="448" unicode="2" /><glyph d="M208 112H470V0H34V94L208 268Q235 296 257 318.5Q279 341 294 362Q309 383 317 403Q325 423 325 446Q325 484 304 506.5Q283 529 247 529Q206 529 184.5 502Q163 475 163 420V393H36V429Q36 475 49.5 514Q63 553 89 581Q115 609 154.5 625Q194 641 246 641Q349 641 403.5 592Q458 543 458 452Q458 393 427 341Q396 289 332 229Z" glyph-name="two.lt" horiz-adv-x="500" /><glyph d="M115 423H210V362H18V415L93 487Q115 507 125.5 519.5Q136 532 136 547Q136 573 114 573Q89 573 89 534V524H18V539Q18 580 40.5 607.5Q63 635 113 635Q211 635 211 550Q211 508 166 468Z" glyph-name="twosuperior" horiz-adv-x="234" unicode="&#178;" /><glyph d="M287 443H415V0H287V54Q273 28 243.5 9.5Q214 -9 170 -9Q135 -9 109.5 2Q84 13 67.5 32.5Q51 52 43.5 79.5Q36 107 36 139V443H163V180Q163 142 174.5 119.5Q186 97 221 97Q258 97 272.5 125Q287 153 287 196Z" glyph-name="u" horiz-adv-x="457" unicode="u" /><glyph d="M179 490 226 626H357L268 490ZM287 443H415V0H287V54Q273 28 243.5 9.5Q214 -9 170 -9Q135 -9 109.5 2Q84 13 67.5 32.5Q51 52 43.5 79.5Q36 107 36 139V443H163V180Q163 142 174.5 119.5Q186 97 221 97Q258 97 272.5 125Q287 153 287 196Z" glyph-name="uacute" horiz-adv-x="457" unicode="&#250;" /><glyph d="M287 443H415V0H287V54Q273 28 243.5 9.5Q214 -9 170 -9Q135 -9 109.5 2Q84 13 67.5 32.5Q51 52 43.5 79.5Q36 107 36 139V443H163V180Q163 142 174.5 119.5Q186 97 221 97Q258 97 272.5 125Q287 153 287 196ZM226 486Q166 486 134 522.5Q102 559 102 625H178Q178 565 226 565Q273 565 273 625H350Q350 559 318 522.5Q286 486 226 486Z" glyph-name="ubreve" horiz-adv-x="457" unicode="&#365;" /><glyph d="M288 621 366 483H283L226 549L169 483H85L164 621ZM287 443H415V0H287V54Q273 28 243.5 9.5Q214 -9 170 -9Q135 -9 109.5 2Q84 13 67.5 32.5Q51 52 43.5 79.5Q36 107 36 139V443H163V180Q163 142 174.5 119.5Q186 97 221 97Q258 97 272.5 125Q287 153 287 196Z" glyph-name="ucircumflex" horiz-adv-x="457" unicode="&#251;" /><glyph d="M100 607H210V494H100ZM242 607H351V494H242ZM287 443H415V0H287V54Q273 28 243.5 9.5Q214 -9 170 -9Q135 -9 109.5 2Q84 13 67.5 32.5Q51 52 43.5 79.5Q36 107 36 139V443H163V180Q163 142 174.5 119.5Q186 97 221 97Q258 97 272.5 125Q287 153 287 196Z" glyph-name="udieresis" horiz-adv-x="457" unicode="&#252;" /><glyph d="M287 443H415V0H287V54Q273 28 243.5 9.5Q214 -9 170 -9Q135 -9 109.5 2Q84 13 67.5 32.5Q51 52 43.5 79.5Q36 107 36 139V443H163V180Q163 142 174.5 119.5Q186 97 221 97Q258 97 272.5 125Q287 153 287 196ZM184 490 94 626H226L272 490Z" glyph-name="ugrave" horiz-adv-x="457" unicode="&#249;" /><glyph d="M287 443H415V0H287V54Q273 28 243.5 9.5Q214 -9 170 -9Q135 -9 109.5 2Q84 13 67.5 32.5Q51 52 43.5 79.5Q36 107 36 139V443H163V180Q163 142 174.5 119.5Q186 97 221 97Q258 97 272.5 125Q287 153 287 196ZM111 490 151 626H270L189 490ZM248 490 288 626H409L327 490Z" glyph-name="uhungarumlaut" horiz-adv-x="457" unicode="&#369;" /><glyph d="M287 443H415V0H287V54Q273 28 243.5 9.5Q214 -9 170 -9Q135 -9 109.5 2Q84 13 67.5 32.5Q51 52 43.5 79.5Q36 107 36 139V443H163V180Q163 142 174.5 119.5Q186 97 221 97Q258 97 272.5 125Q287 153 287 196ZM110 583H340V495H110Z" glyph-name="umacron" horiz-adv-x="457" unicode="&#363;" /><glyph d="M16 -36H322V-142H16Z" glyph-name="underscore" horiz-adv-x="339" unicode="_" /><glyph d="M76 589Q99 589 113 598Q127 607 132 630H192V362H117V540H76ZM30 336H288V296H30ZM214 133Q232 127 242.5 112.5Q253 98 253 75Q253 37 228 15.5Q203 -6 155 -6Q108 -6 82.5 18.5Q57 43 57 86V99H126V89Q126 53 155 53Q182 53 182 82Q182 110 154 110Q151 110 146 110Q141 110 136 109V158Q141 157 146 157Q151 157 154 157Q180 157 180 185Q180 212 154 212Q127 212 127 178V168H60V179Q60 221 85 246Q110 271 156 271Q203 271 227.5 248.5Q252 226 252 191Q252 142 214 133Z" glyph-name="uni2153" horiz-adv-x="318" unicode="&#8531;" /><glyph d="M30 336H288V296H30ZM214 133Q232 127 242.5 112.5Q253 98 253 75Q253 37 228 15.5Q203 -6 155 -6Q108 -6 82.5 18.5Q57 43 57 86V99H126V89Q126 53 155 53Q182 53 182 82Q182 110 154 110Q151 110 146 110Q141 110 136 109V158Q141 157 146 157Q151 157 154 157Q180 157 180 185Q180 212 154 212Q127 212 127 178V168H60V179Q60 221 85 246Q110 271 156 271Q203 271 227.5 248.5Q252 226 252 191Q252 142 214 133ZM160 423H254V362H63V415L137 487Q159 507 169.5 519.5Q180 532 180 547Q180 573 159 573Q134 573 134 534V524H62V539Q62 580 85 607.5Q108 635 158 635Q255 635 255 550Q255 508 210 468Z" glyph-name="uni2154" horiz-adv-x="318" unicode="&#8532;" /><glyph d="M159 215Q131 215 131 187Q131 160 159 160Q187 160 187 187Q187 215 159 215ZM159 -5Q114 -5 85.5 16.5Q57 38 57 76Q57 99 67.5 113.5Q78 128 96 134Q79 139 69.5 155Q60 171 60 191Q60 229 86.5 251Q113 273 159 273Q205 273 231.5 251Q258 229 258 191Q258 171 248 155Q238 139 221 134Q239 128 250 113.5Q261 99 261 76Q261 38 232.5 16.5Q204 -5 159 -5ZM159 109Q128 109 128 80Q128 53 159 53Q190 53 190 80Q190 109 159 109ZM77 589Q100 589 114 598Q128 607 133 630H193V362H118V540H77ZM30 336H288V296H30Z" glyph-name="uni215B" horiz-adv-x="318" unicode="&#8539;" /><glyph d="M159 215Q131 215 131 187Q131 160 159 160Q187 160 187 187Q187 215 159 215ZM159 -5Q114 -5 85.5 16.5Q57 38 57 76Q57 99 67.5 113.5Q78 128 96 134Q79 139 69.5 155Q60 171 60 191Q60 229 86.5 251Q113 273 159 273Q205 273 231.5 251Q258 229 258 191Q258 171 248 155Q238 139 221 134Q239 128 250 113.5Q261 99 261 76Q261 38 232.5 16.5Q204 -5 159 -5ZM159 109Q128 109 128 80Q128 53 159 53Q190 53 190 80Q190 109 159 109ZM30 335H288V295H30ZM216 497Q234 490 244.5 475.5Q255 461 255 438Q255 400 229.5 378.5Q204 357 157 357Q110 357 84.5 382Q59 407 59 450V462H127V452Q127 416 157 416Q183 416 183 446Q183 458 176.5 466Q170 474 156 474Q153 474 148 474Q143 474 137 473V521Q143 520 148 520Q153 520 156 520Q181 520 181 549Q181 561 175 568.5Q169 576 155 576Q143 576 135.5 567Q128 558 128 541V531H61V543Q61 585 86 610Q111 635 158 635Q205 635 229 612Q253 589 253 554Q253 531 243.5 516.5Q234 502 216 497Z" glyph-name="uni215C" horiz-adv-x="318" unicode="&#8540;" /><glyph d="M159 215Q131 215 131 187Q131 160 159 160Q187 160 187 187Q187 215 159 215ZM159 -5Q114 -5 85.5 16.5Q57 38 57 76Q57 99 67.5 113.5Q78 128 96 134Q79 139 69.5 155Q60 171 60 191Q60 229 86.5 251Q113 273 159 273Q205 273 231.5 251Q258 229 258 191Q258 171 248 155Q238 139 221 134Q239 128 250 113.5Q261 99 261 76Q261 38 232.5 16.5Q204 -5 159 -5ZM159 109Q128 109 128 80Q128 53 159 53Q190 53 190 80Q190 109 159 109ZM30 335H288V295H30ZM158 489Q140 489 133 472L63 478Q65 493 67 512.5Q69 532 71.5 552.5Q74 573 75.5 593Q77 613 78 630H241V567H132Q131 559 130 546.5Q129 534 128 528Q136 534 148 538.5Q160 543 176 543Q212 543 235 521Q258 499 258 454Q258 409 231.5 383Q205 357 157 357Q109 357 84.5 382.5Q60 408 60 450V454H131V450Q131 415 158 415Q172 415 179 425Q186 435 186 452Q186 469 179 479Q172 489 158 489Z" glyph-name="uni215D" horiz-adv-x="318" unicode="&#8541;" /><glyph d="M159 215Q131 215 131 187Q131 160 159 160Q187 160 187 187Q187 215 159 215ZM159 -5Q114 -5 85.5 16.5Q57 38 57 76Q57 99 67.5 113.5Q78 128 96 134Q79 139 69.5 155Q60 171 60 191Q60 229 86.5 251Q113 273 159 273Q205 273 231.5 251Q258 229 258 191Q258 171 248 155Q238 139 221 134Q239 128 250 113.5Q261 99 261 76Q261 38 232.5 16.5Q204 -5 159 -5ZM159 109Q128 109 128 80Q128 53 159 53Q190 53 190 80Q190 109 159 109ZM30 335H288V295H30ZM65 563V630H253V571Q218 524 203 475Q188 426 188 362H107Q108 427 127 473Q146 519 178 563Z" glyph-name="uni215E" horiz-adv-x="318" unicode="&#8542;" /><glyph d="M287 0V54Q273 28 243.5 9.5Q214 -9 170 -9Q135 -9 109.5 2Q84 13 67.5 32.5Q51 52 43.5 79.5Q36 107 36 139V443H163V180Q163 142 174.5 119.5Q186 97 221 97Q258 97 272.5 125Q287 153 287 196V443H415V0Q383 -21 371 -37Q359 -53 359 -69Q359 -94 383 -94Q398 -94 415 -87V-153Q404 -161 390.5 -165.5Q377 -170 357 -170Q325 -170 302 -151.5Q279 -133 279 -95Q279 -67 293 -43.5Q307 -20 331 0Z" glyph-name="uogonek" horiz-adv-x="457" unicode="&#371;" /><glyph d="M190 564Q190 548 199 538.5Q208 529 226 529Q244 529 253 538.5Q262 548 262 564Q262 581 253 591Q244 601 226 601Q208 601 199 591Q190 581 190 564ZM134 564Q134 602 159 627.5Q184 653 226 653Q268 653 293 627.5Q318 602 318 564Q318 526 293 501Q268 476 226 476Q184 476 159 501Q134 526 134 564ZM287 443H415V0H287V54Q273 28 243.5 9.5Q214 -9 170 -9Q135 -9 109.5 2Q84 13 67.5 32.5Q51 52 43.5 79.5Q36 107 36 139V443H163V180Q163 142 174.5 119.5Q186 97 221 97Q258 97 272.5 125Q287 153 287 196Z" glyph-name="uring" horiz-adv-x="457" unicode="&#367;" /><glyph d="M287 443H415V0H287V54Q273 28 243.5 9.5Q214 -9 170 -9Q135 -9 109.5 2Q84 13 67.5 32.5Q51 52 43.5 79.5Q36 107 36 139V443H163V180Q163 142 174.5 119.5Q186 97 221 97Q258 97 272.5 125Q287 153 287 196ZM90 491Q90 551 110.5 587Q131 623 172 623Q189 623 201.5 616Q214 609 224.5 601Q235 593 245 586Q255 579 267 579Q279 579 287 588.5Q295 598 297 621H361Q361 561 340.5 524.5Q320 488 279 488Q261 488 249 495Q237 502 226.5 510Q216 518 206 525Q196 532 184 532Q157 532 154 491Z" glyph-name="utilde" horiz-adv-x="457" unicode="&#361;" /><glyph d="M149 0 0 443H127L212 170H216L296 443H417L271 0Z" glyph-name="v" horiz-adv-x="417" unicode="v" /><glyph d="M407 182H411L472 443H584L470 0H355L294 275H290L229 0H114L0 443H124L185 182H189L248 443H347Z" glyph-name="w" horiz-adv-x="584" unicode="w" /><glyph d="M246 490 293 626H424L335 490ZM407 182H411L472 443H584L470 0H355L294 275H290L229 0H114L0 443H124L185 182H189L248 443H347Z" glyph-name="wacute" horiz-adv-x="584" unicode="&#7811;" /><glyph d="M355 621 433 483H350L293 549L236 483H152L231 621ZM407 182H411L472 443H584L470 0H355L294 275H290L229 0H114L0 443H124L185 182H189L248 443H347Z" glyph-name="wcircumflex" horiz-adv-x="584" unicode="&#373;" /><glyph d="M167 607H277V494H167ZM309 607H418V494H309ZM407 182H411L472 443H584L470 0H355L294 275H290L229 0H114L0 443H124L185 182H189L248 443H347Z" glyph-name="wdieresis" horiz-adv-x="584" unicode="&#7813;" /><glyph d="M407 182H411L472 443H584L470 0H355L294 275H290L229 0H114L0 443H124L185 182H189L248 443H347ZM251 490 161 626H293L339 490Z" glyph-name="wgrave" horiz-adv-x="584" unicode="&#7809;" /><glyph d="M282 227 428 0H287L206 133L121 0H-2L145 224L5 443H146L222 315L299 443H422Z" glyph-name="x" horiz-adv-x="426" unicode="x" /><glyph d="M100 -162 154 -6 0 443H127L214 165H218L303 443H424L217 -162Z" glyph-name="y" horiz-adv-x="424" unicode="y" /><glyph d="M100 -162 154 -6 0 443H127L214 165H218L303 443H424L217 -162ZM165 490 212 626H343L254 490Z" glyph-name="yacute" horiz-adv-x="424" unicode="&#253;" /><glyph d="M100 -162 154 -6 0 443H127L214 165H218L303 443H424L217 -162ZM274 621 352 483H269L212 549L155 483H71L150 621Z" glyph-name="ycircumflex" horiz-adv-x="424" unicode="&#375;" /><glyph d="M100 -162 154 -6 0 443H127L214 165H218L303 443H424L217 -162ZM86 607H196V494H86ZM228 607H337V494H228Z" glyph-name="ydieresis" horiz-adv-x="424" unicode="&#255;" /><glyph d="M51 337H146L1 630H137L254 384L365 630H500L354 337H450V256H314V210H450V129H314V0H187V129H51V210H187V256H51Z" glyph-name="yen" horiz-adv-x="501" unicode="&#165;" /><glyph d="M46 337H149L12 630H148L254 390L355 630H489L351 337H455V256H313V210H455V129H313V0H187V129H46V210H187V256H46Z" glyph-name="yen.lt" horiz-adv-x="500" /><glyph d="M100 -162 154 -6 0 443H127L214 165H218L303 443H424L217 -162ZM172 490 82 626H214L260 490Z" glyph-name="ygrave" horiz-adv-x="424" unicode="&#7923;" /><glyph d="M26 349V443H349V356L165 94H354V0H22V88L204 349Z" glyph-name="z" horiz-adv-x="376" unicode="z" /><glyph d="M146 490 193 626H324L235 490ZM26 349V443H349V356L165 94H354V0H22V88L204 349Z" glyph-name="zacute" horiz-adv-x="376" unicode="&#378;" /><glyph d="M131 490 52 626H136L193 562L250 626H333L255 490ZM26 349V443H349V356L165 94H354V0H22V88L204 349Z" glyph-name="zcaron" horiz-adv-x="376" unicode="&#382;" /><glyph d="M26 349V443H349V356L165 94H354V0H22V88L204 349ZM129 620H258V497H129Z" glyph-name="zdotaccent" horiz-adv-x="376" unicode="&#380;" /><glyph d="M502 299Q502 229 487 172Q472 115 442 74.5Q412 34 367 11.5Q322 -11 262 -11Q202 -11 157 11.5Q112 34 82 74.5Q52 115 37 172Q22 229 22 299V331Q22 401 37 458Q52 515 82 555.5Q112 596 157 618.5Q202 641 262 641Q322 641 367 618.5Q412 596 442 555.5Q472 515 487 458Q502 401 502 331ZM160 291Q160 101 262 101Q364 101 364 291V339Q364 529 262 529Q160 529 160 339Z" glyph-name="zero" horiz-adv-x="524" unicode="0" /><glyph d="M480 299Q480 229 465.5 172Q451 115 422 74.5Q393 34 350 11.5Q307 -11 250 -11Q193 -11 150 11.5Q107 34 78 74.5Q49 115 34.5 172Q20 229 20 299V331Q20 401 34.5 458Q49 515 78 555.5Q107 596 150 618.5Q193 641 250 641Q307 641 350 618.5Q393 596 422 555.5Q451 515 465.5 458Q480 401 480 331ZM156 262Q156 185 178.5 143Q201 101 250 101Q299 101 321.5 143Q344 185 344 262V368Q344 445 321.5 487Q299 529 250 529Q201 529 178.5 487Q156 445 156 368Z" glyph-name="zero.lt" horiz-adv-x="500" /></font>
</defs>
</svg>
